<svg width="28" height="28" viewBox="0 0 28 28" fill="none" xmlns="http://www.w3.org/2000/svg">
<rect x="0.75" y="0.75" width="26.5" height="26.5" rx="1.25" stroke="#6853C2" stroke-opacity="0.8" stroke-width="1.5"/>
<path d="M23.1327 10.4531H4.72656C4.325 10.4531 4 10.1277 4 9.72656C4 9.325 4.325 9 4.72656 9H23.1327C23.5338 9 23.8592 9.325 23.8592 9.72656C23.8592 10.1277 23.5338 10.4531 23.1327 10.4531Z" fill="#6853C2"/>
<path d="M18.7733 14.8125H4.72656C4.32501 14.8125 4 14.487 4 14.0859C4 13.6848 4.32501 13.3593 4.72656 13.3593H18.7733C19.1745 13.3593 19.4999 13.6848 19.4999 14.0859C19.4999 14.487 19.1745 14.8125 18.7733 14.8125Z" fill="#6853C2"/>
<path d="M13.3849 19.1718H4.72656C4.325 19.1718 4 18.8464 4 18.4452C4 18.0441 4.325 17.7187 4.72656 17.7187H13.3849C13.7865 17.7187 14.1115 18.0441 14.1115 18.4452C14.1115 18.8464 13.7865 19.1718 13.3849 19.1718Z" fill="#6853C2"/>
</svg>
