<svg width="13" height="23" viewBox="0 0 13 23" fill="none" xmlns="http://www.w3.org/2000/svg">
<path d="M10.2351 8.60914H11.4282C11.6855 8.60914 11.896 8.39862 11.896 8.14129V6.94822C11.896 6.69088 11.6855 6.48038 11.4282 6.48038C11.1708 6.48038 10.9603 6.69089 10.9603 6.94822V7.65009H10.2585C10.0011 7.65009 9.79062 7.86061 9.79062 8.11794C9.76728 8.37529 9.9778 8.60914 10.2352 8.60914H10.2351Z" fill="#6853C2"/>
<path d="M3.77831 2.12894C4.03565 2.12894 4.24615 1.91842 4.24615 1.66109V0.959219H4.94802C5.20537 0.959219 5.41587 0.748707 5.41587 0.491374C5.41587 0.234028 5.20536 0.0235291 4.94802 0.0235291H3.75495C3.49761 0.0235291 3.28711 0.23404 3.28711 0.491374V1.68444C3.31028 1.91845 3.52096 2.12898 3.77831 2.12898V2.12894Z" fill="#6853C2"/>
<path d="M6.93653 0.93569H8.24657C8.50392 0.93569 8.71442 0.725178 8.71442 0.467845C8.71442 0.210499 8.50391 0 8.24657 0H6.93653C6.67919 0 6.46869 0.210511 6.46869 0.467845C6.46869 0.725191 6.6792 0.93569 6.93653 0.93569Z" fill="#6853C2"/>
<path d="M10.2351 0.93569H10.937V1.63756C10.937 1.89491 11.1475 2.10541 11.4048 2.10541C11.6622 2.10541 11.8727 1.8949 11.8727 1.63756V0.467845C11.8727 0.210499 11.6622 0 11.4048 0H10.2118C9.95443 0 9.74393 0.210511 9.74393 0.467845C9.76726 0.725191 9.97777 0.93569 10.2351 0.93569Z" fill="#6853C2"/>
<path d="M11.4282 3.15836C11.1709 3.15836 10.9604 3.36887 10.9604 3.6262V4.93624C10.9604 5.19359 11.1709 5.40409 11.4282 5.40409C11.6856 5.40409 11.8961 5.19358 11.8961 4.93624V3.6262C11.8962 3.36885 11.6856 3.15836 11.4282 3.15836Z" fill="#6853C2"/>
<path d="M0.80722 11.5568H2.44478V10.6211H1.29842V3.90689H8.01259V10.6211H6.84304V11.5568L8.4806 11.5569C8.73795 11.5569 8.94845 11.3464 8.94845 11.0891V3.43913C8.94845 3.18178 8.73794 2.97128 8.4806 2.97128H0.807262C0.549916 2.97128 0.339417 3.18179 0.339417 3.43913V11.0891C0.339417 11.3464 0.549928 11.5569 0.807262 11.5569L0.80722 11.5568Z" fill="#6853C2"/>
<path d="M12.2704 15.1829C12.2704 14.5512 11.7558 14.0132 11.1007 14.0132C10.6797 14.0132 10.3287 14.2237 10.1182 14.5512V14.5279C10.1182 13.8962 9.60348 13.3582 8.94844 13.3582C8.52743 13.3582 8.17643 13.5687 7.96588 13.8962V13.8729C7.96588 13.2412 7.4512 12.7032 6.79616 12.7032C6.37515 12.7032 6.02415 12.9137 5.8136 13.2412V9.35769C5.8136 9.05352 5.69659 8.74948 5.46275 8.53881C5.25224 8.32829 4.94808 8.18796 4.64387 8.18796C4.01218 8.18796 3.47415 8.70263 3.47415 9.35767V16.5631C3.47415 16.6333 3.42731 16.6801 3.38064 16.7035C3.33381 16.7268 3.26364 16.7268 3.2168 16.6566L2.02373 15.4869C1.62605 15.0892 0.994341 15.0191 0.526496 15.3466C0.245814 15.5338 0.058651 15.8379 0.0118206 16.1655C-0.0350141 16.493 0.0586553 16.8205 0.269167 17.0778L3.21681 20.6338C4.05901 21.6397 5.27555 22.2246 6.58564 22.2246H8.41039C9.43979 22.2246 10.399 21.8269 11.1242 21.1017C11.8494 20.3765 12.2471 19.4173 12.2471 18.3879L12.2704 15.1829Z" fill="#6853C2"/>
</svg>
