<svg width="40" height="40" viewBox="0 0 40 40" fill="none" xmlns="http://www.w3.org/2000/svg">
<circle cx="20.0389" cy="20.451" r="19.5384" fill="white"/>
<path d="M29.6578 10.0305H20.8405V19.6494H30.4594V10.8321C30.4594 10.3912 30.0987 10.0305 29.6578 10.0305ZM27.2531 15.6416H24.0468C23.6059 15.6416 23.2452 15.2808 23.2452 14.84C23.2452 14.3991 23.6059 14.0384 24.0468 14.0384H27.2531C27.6939 14.0384 28.0546 14.3991 28.0546 14.84C28.0546 15.2808 27.6939 15.6416 27.2531 15.6416Z" fill="#D269E6"/>
<path d="M20.8405 21.2527V30.8716H29.6578C30.0987 30.8716 30.4594 30.5109 30.4594 30.07V21.2527H20.8405ZM27.2531 28.4669H24.0468C23.6059 28.4669 23.2452 28.1062 23.2452 27.6653C23.2452 27.2244 23.6059 26.8637 24.0468 26.8637H27.2531C27.6939 26.8637 28.0546 27.2244 28.0546 27.6653C28.0546 28.1062 27.6939 28.4669 27.2531 28.4669ZM27.2531 25.2606H24.0468C23.6059 25.2606 23.2452 24.8999 23.2452 24.459C23.2452 24.0181 23.6059 23.6574 24.0468 23.6574H27.2531C27.6939 23.6574 28.0546 24.0181 28.0546 24.459C28.0546 24.8999 27.6939 25.2606 27.2531 25.2606Z" fill="#D269E6"/>
<path d="M10.4199 10.0305C9.97906 10.0305 9.61835 10.3912 9.61835 10.8321V19.6494H19.2373V10.0305H10.4199ZM16.031 15.6416H15.2294V16.4431C15.2294 16.884 14.8687 17.2447 14.4278 17.2447C13.9869 17.2447 13.6262 16.884 13.6262 16.4431V15.6416H12.8247C12.3838 15.6416 12.0231 15.2808 12.0231 14.84C12.0231 14.3991 12.3838 14.0384 12.8247 14.0384H13.6262V13.2368C13.6262 12.796 13.9869 12.4352 14.4278 12.4352C14.8687 12.4352 15.2294 12.796 15.2294 13.2368V14.0384H16.031C16.4718 14.0384 16.8325 14.3991 16.8325 14.84C16.8325 15.2808 16.4718 15.6416 16.031 15.6416Z" fill="#D269E6"/>
<path d="M9.61835 21.2527V30.07C9.61835 30.5109 9.97906 30.8716 10.4199 30.8716H19.2373V21.2527H9.61835ZM16.6003 27.096C16.9129 27.4085 16.9129 27.9137 16.6003 28.2262C16.44 28.3865 16.2396 28.4586 16.0311 28.4586C15.8227 28.4586 15.6223 28.3785 15.462 28.2262L14.428 27.1922L13.394 28.2262C13.2337 28.3865 13.0333 28.4586 12.8248 28.4586C12.6164 28.4586 12.416 28.3785 12.2557 28.2262C11.9431 27.9136 11.9431 27.4085 12.2557 27.096L13.2897 26.062L12.2557 25.028C11.9431 24.7154 11.9431 24.2103 12.2557 23.8977C12.5683 23.5851 13.0734 23.5851 13.3859 23.8977L14.4199 24.9317L15.4539 23.8977C15.7665 23.5851 16.2716 23.5851 16.5842 23.8977C16.8968 24.2103 16.8968 24.7154 16.5842 25.028L15.5502 26.062L16.5842 27.096H16.6003Z" fill="#D269E6"/>
</svg>
