<svg width="40" height="40" viewBox="0 0 40 40" fill="none" xmlns="http://www.w3.org/2000/svg">
<circle cx="20.4" cy="20.2048" r="19.5384" fill="white"/>
<path d="M22.247 9.13293H24.7005V11.5864H22.247V9.13293ZM21.613 12.1929V14.6464H19.1595V12.1929H21.613ZM18.553 12.1929V14.6464H16.0995V12.1929H18.553ZM18.553 15.2804V17.7339H16.0995V15.2804H18.553ZM13.0395 12.1929H15.493V14.6464H13.0395V12.1929ZM9.97948 17.7064V15.2529H12.433V17.7064H9.97948ZM13.0395 17.7064V15.2529H15.493V17.7064H13.0395ZM16.127 18.3404H18.5805V20.7939H16.127V18.3404ZM19.187 18.3404H21.6405V20.7939H19.187V18.3404ZM9.97943 21.4004H12.4329V23.8539H9.97943V21.4004ZM9.97943 29.9739V27.5204H12.4329V29.9739H9.97943ZM21.6129 27.5204V29.9739H19.1594V27.5204H21.6129ZM18.5529 27.5204V29.9739H16.0994V27.5204H18.5529ZM15.4929 27.5204V29.9739H13.0394V27.5204H15.4929ZM12.4329 26.9139H9.97943V24.4604H12.4329V26.9139ZM13.0394 23.8264V21.3729H15.4929V23.8264H13.0394ZM16.1269 23.8264V21.3729H18.5804V23.8264H16.1269ZM21.6129 23.8264H19.1594V21.3729H21.6129V23.8264ZM27.7604 29.9739H25.3069V27.5204H27.7604V29.9739ZM27.7604 26.9139H25.3069V24.4604H27.7604V26.9139ZM27.7604 23.8264H25.3069V21.3729H27.7604V23.8264ZM27.7604 18.3405V20.794H25.3069V18.3405H27.7604ZM24.6729 18.3405V20.794H22.2194V18.3405H24.6729ZM21.6129 17.7065H19.1594V15.253H21.6129V17.7065ZM22.2469 14.6465V12.193H24.7004V14.6465H22.2469ZM25.3069 14.6465V12.193H27.7604V14.6465H25.3069ZM30.8204 14.6465H28.3669V12.193H30.8204V14.6465Z" fill="#A548FF"/>
</svg>
