<svg width="47" height="45" viewBox="0 0 47 45" fill="none" xmlns="http://www.w3.org/2000/svg">
<path d="M10.2862 10.2663L10.2811 10.377L10.3304 10.4763L14.1016 18.0728L10.4785 26.9712L10.4445 27.0549L10.4471 27.1453L10.4995 28.9548C10.545 30.5264 8.93881 31.6103 7.49844 30.98L5.68094 30.1846L3.84752 29.0365C1.72036 27.7045 0.428571 25.3714 0.428571 22.8616V11.5882C0.428571 9.86293 1.37097 8.2755 2.88557 7.44942L5.67221 5.92958L6.11731 5.72594C8.15824 4.7922 10.4642 6.34811 10.3623 8.59019L10.2862 10.2663Z" stroke="black" stroke-width="0.857143"/>
<path d="M43.1349 36.0476V1H4.43651V6.94828M4.43651 36.0476V29.5" stroke="black" stroke-width="0.730159"/>
<rect x="1.15078" y="36.4129" width="45.2698" height="8.03175" stroke="black" stroke-width="0.730159"/>
</svg>
