<svg width="48" height="57" viewBox="0 0 48 57" fill="none" xmlns="http://www.w3.org/2000/svg">
<rect x="0.5" y="0.5" width="47" height="33.9985" stroke="black"/>
<rect x="0.73174" y="36.2227" width="46.3931" height="6.97447" stroke="black"/>
<rect x="0.73174" y="46.8545" width="46.3931" height="8.74657" rx="4.37329" stroke="black"/>
<path d="M25.5945 46.5124C25.681 46.5989 25.8212 46.5989 25.9077 46.5124L27.3174 45.1027C27.4039 45.0162 27.4039 44.8759 27.3174 44.7894C27.2309 44.7029 27.0907 44.7029 27.0042 44.7894L25.7511 46.0425L24.498 44.7894C24.4115 44.7029 24.2713 44.7029 24.1848 44.7894C24.0982 44.8759 24.0982 45.0162 24.1848 45.1027L25.5945 46.5124ZM25.5296 42.8115V46.3557H25.9726V42.8115H25.5296Z" fill="black"/>
</svg>
