<svg width="56" height="54" viewBox="0 0 56 54" fill="none" xmlns="http://www.w3.org/2000/svg">
<path d="M12.736 10.5014L12.7278 10.6531L12.8053 10.7837L17.4325 18.5807L12.9848 27.7184L12.9304 27.8303L12.9347 27.9546L12.9864 29.4484C13.0497 31.277 11.2413 32.5879 9.52314 31.9589L6.9725 31.0252L5.18199 30.0873C2.30361 28.5795 0.5 25.5987 0.5 22.3493V12.678C0.5 10.4625 1.79327 8.45099 3.80886 7.53141L6.96299 6.09238L7.91415 5.72836C10.3526 4.79514 12.9435 6.6833 12.8018 9.29039L12.736 10.5014Z" stroke="black"/>
<path d="M8.07702 31.5093L7 37.8573L15.2666 37.0327L23.0892 38L30.9087 37.0327L38.7281 38L46.5476 37.0327L54.8142 37.8573L53.7403 31.5238L55 25.5022L53.7403 19.4976L55 13.4929L53.7403 7.4883L54.8142 1.14026L46.5476 1.96732L38.725 1L30.9055 1.96732L23.0861 1L15.2666 1.96732L7 1.14026L7.50568 6.45331" stroke="#1D1D1B" stroke-width="1.01806" stroke-miterlimit="10"/>
<path d="M6.41904 39.1777H55.1479V52.0183L30.7835 53.3719L6.41904 52.0183V39.1777Z" stroke="black"/>
</svg>
