<svg width="49" height="56" viewBox="0 0 49 56" fill="none" xmlns="http://www.w3.org/2000/svg">
<path d="M14.7849 40.5261H2.27504C1.57085 40.5261 1 39.9553 1 39.2511V2.27504C1 1.57085 1.57085 1 2.27504 1H46.725C47.4291 1 48 1.57085 48 2.27504V39.2511C48 39.9553 47.4291 40.5261 46.725 40.5261H35.4623" stroke="black"/>
<path d="M14.7364 47.3713H2.27504C1.57085 47.3713 1 47.9422 1 48.6464V54.2113C1 54.9155 1.57085 55.4863 2.27504 55.4863H46.5937C47.2979 55.4863 47.8688 54.9155 47.8688 54.2113V48.6464C47.8688 47.9422 47.2979 47.3713 46.5937 47.3713H35.3409" stroke="black"/>
<path d="M39.0978 43.8931C39.0978 44.5119 38.7867 45.1518 38.1166 45.7863C37.4454 46.4218 36.4473 47.0172 35.1725 47.5277C32.6258 48.5475 29.0732 49.1896 25.1236 49.1896C21.1741 49.1896 17.6215 48.5475 15.0747 47.5277C13.8 47.0172 12.8019 46.4218 12.1307 45.7863C11.4605 45.1518 11.1495 44.5119 11.1495 43.8931C11.1495 43.2744 11.4605 42.6345 12.1307 42C12.8019 41.3644 13.8 40.7691 15.0747 40.2586C17.6215 39.2387 21.1741 38.5967 25.1236 38.5967C29.0732 38.5967 32.6258 39.2387 35.1725 40.2586C36.4473 40.7691 37.4454 41.3644 38.1166 42C38.7867 42.6345 39.0978 43.2744 39.0978 43.8931Z" stroke="black"/>
</svg>
