<svg width="102" height="45" viewBox="0 0 102 45" fill="none" xmlns="http://www.w3.org/2000/svg">
<path d="M55.3885 21.8046C55.3885 26.2696 51.308 29.9843 46.1503 29.9843C40.9926 29.9843 36.9122 26.2696 36.9122 21.8046C36.9122 17.3397 40.9926 13.625 46.1503 13.625C51.308 13.625 55.3885 17.3397 55.3885 21.8046Z" stroke="black"/>
<rect x="75.4414" y="0.5" width="25.674" height="8.73814" stroke="black"/>
<rect x="0.5" y="0.5" width="16.7827" height="8.73814" stroke="black"/>
<rect x="0.5" y="11.5078" width="16.7827" height="8.73814" stroke="black"/>
<rect x="0.5" y="23.3633" width="16.7827" height="8.73814" stroke="black"/>
<rect x="0.5" y="34.7949" width="16.7827" height="8.73814" stroke="black"/>
<rect x="75.4414" y="11.9316" width="25.674" height="8.73814" stroke="black"/>
<rect x="75.4414" y="23.3633" width="25.674" height="8.73814" stroke="black"/>
<rect x="75.4414" y="34.7949" width="25.674" height="8.73814" stroke="black"/>
<line x1="51.2311" y1="14.3193" x2="57.5821" y2="14.3193" stroke="black"/>
<line y1="-0.5" x2="6.35096" y2="-0.5" transform="matrix(1 -8.74228e-08 -8.74228e-08 -1 51.2311 28.791)" stroke="black"/>
<line x1="55.465" y1="21.0928" x2="62.6628" y2="21.0928" stroke="black"/>
<line x1="55.465" y1="22.3633" x2="63.0862" y2="22.3633" stroke="black"/>
<line x1="57.082" y1="14.8193" x2="57.082" y2="4.6578" stroke="black"/>
<line y1="-0.5" x2="10.1615" y2="-0.5" transform="matrix(-4.37114e-08 1 1 4.37114e-08 57.582 28.791)" stroke="black"/>
<line x1="62.5862" y1="21.5928" x2="62.5862" y2="16.512" stroke="black"/>
<line x1="62.5862" y1="27.5215" x2="62.5862" y2="22.4407" stroke="black"/>
<line x1="57.1586" y1="4.58008" x2="74.9413" y2="4.58008" stroke="black"/>
<line y1="-0.5" x2="17.7827" y2="-0.5" transform="matrix(1 0 0 -1 57.1586 38.5293)" stroke="black"/>
<line x1="63.0862" y1="16.4355" x2="74.9413" y2="16.4355" stroke="black"/>
<line x1="63.0862" y1="27.0215" x2="74.9413" y2="27.0215" stroke="black"/>
<path d="M17.7827 38.9515C17.7827 38.9515 24.1901 32.8109 29.2144 33.0239C31.905 33.138 33.146 35.7145 35.7771 35.1409C38.6906 34.5057 41.0696 29.6367 41.0696 29.6367" stroke="black"/>
<path d="M17.3593 29.214C17.3593 29.214 22.8347 26.1437 27.1282 26.2502C29.4274 26.3073 30.4879 27.5955 32.7363 27.3087C35.2261 26.9911 37.259 24.5566 37.259 24.5566" stroke="black"/>
<path d="M17.3593 16.9355C17.3593 16.9355 22.7182 19.4476 26.9204 19.3604C29.1706 19.3138 30.2086 18.2597 32.4091 18.4944C34.8459 18.7542 36.8356 20.7461 36.8356 20.7461" stroke="black"/>
<path d="M17.7827 5.9268C17.7827 5.9268 23.1416 8.43885 27.3438 8.35171C29.594 8.30505 30.632 7.251 32.8326 7.48567C35.2693 7.74553 40.6462 14.6064 40.6462 14.6064" stroke="black"/>
</svg>
