<svg width="48" height="45" viewBox="0 0 48 45" fill="none" xmlns="http://www.w3.org/2000/svg">
<path d="M5.94943 12.592L4.09303 20.2285L5.94943 27.8649L4.09303 35.5014L5.67747 42.5285L13.246 43.9998L21.4699 42.2759L29.6938 43.9998L37.9177 42.2759L46.7978 43.7472L45.2143 35.5341L47.0698 27.8641L45.2134 20.2276L47.0698 12.5911L45.4853 5.56404L37.9168 4.09277L29.6929 5.81658L21.469 4.09277L13.2451 5.81658" stroke="black" stroke-width="0.967078" stroke-miterlimit="10"/>
<path d="M14.2358 6.36813C14.2358 9.57161 11.216 12.2764 7.34785 12.2764C3.47974 12.2764 0.459865 9.57161 0.459865 6.36813C0.459865 3.16466 3.47974 0.459865 7.34785 0.459865C11.216 0.459865 14.2358 3.16466 14.2358 6.36813Z" stroke="black" stroke-width="0.919731"/>
</svg>
