<svg width="59" height="59" viewBox="0 0 59 59" fill="none" xmlns="http://www.w3.org/2000/svg">
<path d="M0.00252577 43.1034C0.00252577 42.3266 1 42 1 42V58C1 58 0.00252577 57.1217 0.00252577 56.3448C0.00252577 55.5679 1 55.4665 1 54.6897C1 53.9128 0.00252577 53.8114 0.00252577 53.0345C0.00252577 52.2576 1 52.1562 1 51.3793C1 50.6024 0.050842 50.4991 0.00252577 49.7241C-0.0514936 48.8577 1.00008 48.6617 1 47.7931C0.99992 46.9655 0.056545 47.101 0.00252577 46.4138C-0.0583099 45.6398 1 45.5355 1 44.7586C1 43.9817 0.00252577 43.6552 0.00252577 43.1034Z" fill="#232323"/>
<path d="M43.1034 0.00252589C42.3266 0.00252592 42 1 42 1H58C58 1 57.1217 0.00252533 56.3448 0.00252536C55.5679 0.00252539 55.4665 1 54.6897 1C53.9128 1 53.8114 0.00252546 53.0345 0.00252549C52.2576 0.00252552 52.1562 1 51.3793 1C50.6024 1 50.4991 0.0508419 49.7241 0.00252562C48.8577 -0.0514934 48.6617 1.00008 47.7931 1C46.9655 0.99992 47.101 0.056545 46.4138 0.00252575C45.6398 -0.0583096 45.5355 1 44.7586 1C43.9817 1 43.6552 0.00252586 43.1034 0.00252589Z" fill="#232323"/>
<path d="M58.9975 43.1034C58.9975 42.3266 58 42 58 42V58C58 58 58.9975 57.1217 58.9975 56.3448C58.9975 55.5679 58 55.4665 58 54.6897C58 53.9128 58.9975 53.8114 58.9975 53.0345C58.9975 52.2576 58 52.1562 58 51.3793C58 50.6024 58.9491 50.4991 58.9975 49.7241C59.0513 48.8577 58 48.6617 58 47.7931C58 46.9655 58.9436 47.101 58.9975 46.4138C59.0583 45.6398 58 45.5355 58 44.7586C58 43.9817 58.9975 43.6552 58.9975 43.1034Z" fill="#232323"/>
<path d="M15.8966 58.9975C16.6734 58.9975 17 58 17 58H1C1 58 1.87831 58.9975 2.65517 58.9975C3.43203 58.9975 3.53348 58 4.31034 58C5.08721 58 5.18866 58.9975 5.96552 58.9975C6.7424 58.9975 6.84381 58 7.62069 58C8.39757 58 8.50086 58.9491 9.27586 58.9975C10.1423 59.0513 10.3383 58 11.2069 58C12.0345 58 11.899 58.9436 12.5862 58.9975C13.3602 59.0583 13.4645 58 14.2414 58C15.0183 58 15.3448 58.9975 15.8966 58.9975Z" fill="#232323"/>
<path d="M0.00252577 16.1034C0.00252577 15.3266 1 15 1 15V31C1 31 0.00252577 30.1724 0.00252577 29.3448C0.00252577 28.5172 1 28.4665 1 27.6897C1 26.9128 0.00252577 26.8114 0.00252577 26.0345C0.00252577 25.2576 1 25.1562 1 24.3793C1 23.6024 0.050842 23.4991 0.00252577 22.7241C-0.0514936 21.8577 1.00008 21.6617 1 20.7931C0.99992 19.9655 0.056545 20.101 0.00252577 19.4138C-0.0583099 18.6398 1 18.5355 1 17.7586C1 16.9817 0.00252577 16.6552 0.00252577 16.1034Z" fill="#232323"/>
<path d="M16.1034 0.00252589C15.3266 0.00252592 15 1 15 1H31C31 1 30.1724 0.00252533 29.3448 0.00252536C28.5172 0.00252539 28.4665 1 27.6897 1C26.9128 1 26.8114 0.00252546 26.0345 0.00252549C25.2576 0.00252552 25.1562 1 24.3793 1C23.6024 1 23.4991 0.0508419 22.7241 0.00252562C21.8577 -0.0514934 21.6617 1.00008 20.7931 1C19.9655 0.99992 20.101 0.056545 19.4138 0.00252575C18.6398 -0.0583096 18.5355 1 17.7586 1C16.9817 1 16.6552 0.00252586 16.1034 0.00252589Z" fill="#232323"/>
<path d="M58.9975 16.1034C58.9975 15.3266 58 15 58 15V31C58 31 58.9975 30.1724 58.9975 29.3448C58.9975 28.5172 58 28.4665 58 27.6897C58 26.9128 58.9975 26.8114 58.9975 26.0345C58.9975 25.2576 58 25.1562 58 24.3793C58 23.6024 58.9491 23.4991 58.9975 22.7241C59.0513 21.8577 58 21.6617 58 20.7931C58 19.9655 58.9436 20.101 58.9975 19.4138C59.0583 18.6398 58 18.5355 58 17.7586C58 16.9817 58.9975 16.6552 58.9975 16.1034Z" fill="#232323"/>
<path d="M42.8966 58.9975C43.6734 58.9975 44 58 44 58H28C28 58 28.8276 58.9975 29.6552 58.9975C30.4828 58.9975 30.5335 58 31.3103 58C32.0872 58 32.1886 58.9975 32.9655 58.9975C33.7424 58.9975 33.8438 58 34.6207 58C35.3976 58 35.5009 58.9491 36.2759 58.9975C37.1423 59.0513 37.3383 58 38.2069 58C39.0345 58 38.899 58.9436 39.5862 58.9975C40.3602 59.0583 40.4645 58 41.2414 58C42.0183 58 42.3448 58.9975 42.8966 58.9975Z" fill="#232323"/>
<path d="M0.00252577 29.1034C0.00252577 28.3266 1 28 1 28V44C1 44 0.00252577 43.1217 0.00252577 42.3448C0.00252577 41.5679 1 41.4665 1 40.6897C1 39.9128 0.00252577 39.8114 0.00252577 39.0345C0.00252577 38.2576 1 38.1562 1 37.3793C1 36.6024 0.050842 36.4991 0.00252577 35.7241C-0.0514936 34.8577 1.00008 34.6617 1 33.7931C0.99992 32.9655 0.056545 33.101 0.00252577 32.4138C-0.0583099 31.6398 1 31.5355 1 30.7586C1 29.9817 0.00252577 29.6552 0.00252577 29.1034Z" fill="#232323"/>
<path d="M29.1034 0.00252589C28.3266 0.00252592 28 1 28 1H44C44 1 43.1217 0.00252533 42.3448 0.00252536C41.5679 0.00252539 41.4665 1 40.6897 1C39.9128 1 39.8114 0.00252546 39.0345 0.00252549C38.2576 0.00252552 38.1562 1 37.3793 1C36.6024 1 36.4991 0.0508419 35.7241 0.00252562C34.8577 -0.0514934 34.6617 1.00008 33.7931 1C32.9655 0.99992 33.101 0.056545 32.4138 0.00252575C31.6398 -0.0583096 31.5355 1 30.7586 1C29.9817 1 29.6552 0.00252586 29.1034 0.00252589Z" fill="#232323"/>
<path d="M58.9975 29.1034C58.9975 28.3266 58 28 58 28V44C58 44 58.9975 43.1217 58.9975 42.3448C58.9975 41.5679 58 41.4665 58 40.6897C58 39.9128 58.9975 39.8114 58.9975 39.0345C58.9975 38.2576 58 38.1562 58 37.3793C58 36.6024 58.9491 36.4991 58.9975 35.7241C59.0513 34.8577 58 34.6617 58 33.7931C58 32.9655 58.9436 33.101 58.9975 32.4138C59.0583 31.6398 58 31.5355 58 30.7586C58 29.9817 58.9975 29.6552 58.9975 29.1034Z" fill="#232323"/>
<path d="M29.8966 58.9975C30.6734 58.9975 31 58 31 58H15C15 58 15.8783 58.9975 16.6552 58.9975C17.4321 58.9975 17.5335 58 18.3103 58C19.0872 58 19.1886 58.9975 19.9655 58.9975C20.7424 58.9975 20.8438 58 21.6207 58C22.3976 58 22.5009 58.9491 23.2759 58.9975C24.1423 59.0513 24.3383 58 25.2069 58C26.0345 58 25.899 58.9436 26.5862 58.9975C27.3602 59.0583 27.4645 58 28.2414 58C29.0183 58 29.3448 58.9975 29.8966 58.9975Z" fill="#232323"/>
<path d="M0.00252577 2.10345C0.00252577 1.32659 1 1 1 1V17C1 17 0.00252577 16.1217 0.00252577 15.3448C0.00252577 14.5679 1 14.4665 1 13.6897C1 12.9128 0.00252577 12.8114 0.00252577 12.0345C0.00252577 11.2576 1 11.1562 1 10.3793C1 9.60243 0.050842 9.49914 0.00252577 8.72414C-0.0514936 7.85766 1.00008 7.66168 1 6.7931C0.99992 5.96546 0.056545 6.10102 0.00252577 5.41379C-0.0583099 4.63985 1 4.53548 1 3.75862C1 2.98176 0.00252577 2.65517 0.00252577 2.10345Z" fill="#232323"/>
<path d="M2.10345 0.00252589C1.32659 0.00252592 1 1 1 1H17C17 1 16.1217 0.00252533 15.3448 0.00252536C14.5679 0.00252539 14.4665 1 13.6897 1C12.9128 1 12.8114 0.00252546 12.0345 0.00252549C11.2576 0.00252552 11.1562 1 10.3793 1C9.60243 1 9.49914 0.0508419 8.72414 0.00252562C7.85766 -0.0514934 7.66168 1.00008 6.7931 1C5.96546 0.99992 6.10102 0.056545 5.41379 0.00252575C4.63985 -0.0583096 4.53548 1 3.75862 1C2.98176 1 2.65517 0.00252586 2.10345 0.00252589Z" fill="#232323"/>
<path d="M58.9975 2.10345C58.9975 1.32659 58 1 58 1V17C58 17 58.9975 16.1217 58.9975 15.3448C58.9975 14.5679 58 14.4665 58 13.6897C58 12.9128 58.9975 12.8114 58.9975 12.0345C58.9975 11.2576 58 11.1562 58 10.3793C58 9.60243 58.9491 9.49914 58.9975 8.72414C59.0513 7.85766 58 7.66168 58 6.7931C58 5.96546 58.9436 6.10102 58.9975 5.41379C59.0583 4.63985 58 4.53548 58 3.75862C58 2.98176 58.9975 2.65517 58.9975 2.10345Z" fill="#232323"/>
<path d="M56.8966 58.9975C57.6734 58.9975 58 58 58 58H42C42 58 42.8783 58.9975 43.6552 58.9975C44.4321 58.9975 44.5335 58 45.3103 58C46.0872 58 46.1886 58.9975 46.9655 58.9975C47.7424 58.9975 47.8438 58 48.6207 58C49.3976 58 49.5009 58.9491 50.2759 58.9975C51.1423 59.0513 51.3383 58 52.2069 58C53.0345 58 52.899 58.9436 53.5862 58.9975C54.3602 59.0583 54.4645 58 55.2414 58C56.0183 58 56.3448 58.9975 56.8966 58.9975Z" fill="#232323"/>
</svg>
