<svg width="128" height="59" viewBox="0 0 128 59" fill="none" xmlns="http://www.w3.org/2000/svg">
<path d="M127 29.5C127 33.2042 125.371 36.8556 122.218 40.2884C119.071 43.7141 114.484 46.8329 108.766 49.4665C97.3348 54.7308 81.5076 58 64 58C46.4924 58 30.6652 54.7308 19.2343 49.4665C13.516 46.8329 8.92859 43.7141 5.78223 40.2884C2.62959 36.8556 1 33.2042 1 29.5C1 25.7958 2.62959 22.1444 5.78223 18.7116C8.92859 15.2858 13.516 12.167 19.2343 9.53353C30.6652 4.26924 46.4924 1 64 1C81.5076 1 97.3348 4.26924 108.766 9.53353C114.484 12.167 119.071 15.2858 122.218 18.7116C125.371 22.1444 127 25.7958 127 29.5Z" stroke="black"/>
</svg>
