<svg width="139" height="96" viewBox="0 0 139 96" fill="none" xmlns="http://www.w3.org/2000/svg">
<mask id="path-1-inside-1_18_139" fill="white">
<path fill-rule="evenodd" clip-rule="evenodd" d="M139 18.4633C137.926 18.6546 136.82 18.7544 135.691 18.7544C125.333 18.7544 116.937 10.3579 116.937 0.000391006V0H18.7529V0.000391006C18.7529 10.3576 10.357 18.7538 0 18.7544V77.2221C10.357 77.2226 18.7529 85.6189 18.7529 95.976C18.7529 95.9761 18.7529 95.9761 18.7529 95.9762H118.039V95.976C118.039 85.6185 126.435 77.2221 136.793 77.2221C137.539 77.2221 138.276 77.2657 139 77.3506V18.4633Z"/>
</mask>
<path d="M139 18.4633H141V16.0758L138.649 16.4943L139 18.4633ZM116.937 0H118.937V-2H116.937V0ZM18.7529 0V-2H16.7529V0H18.7529ZM0 18.7544L-0.000113074 16.7544L-2 16.7545V18.7544H0ZM0 77.2221H-2V79.2219L-0.000113442 79.2221L0 77.2221ZM18.7529 95.9762H16.7529V97.9762H18.7529V95.9762ZM118.039 95.9762V97.9762H120.039V95.9762H118.039ZM139 77.3506L138.767 79.337L141 79.5988V77.3506H139ZM135.691 20.7544C136.938 20.7544 138.161 20.6441 139.351 20.4324L138.649 16.4943C137.69 16.665 136.702 16.7544 135.691 16.7544V20.7544ZM114.937 0.000391006C114.937 11.4625 124.229 20.7544 135.691 20.7544V16.7544C126.438 16.7544 118.937 9.25335 118.937 0.000391006H114.937ZM114.937 0V0.000391006H118.937V0H114.937ZM18.7529 2H116.937V-2H18.7529V2ZM20.7529 0.000391006V0H16.7529V0.000391006H20.7529ZM0.000113074 20.7544C11.4617 20.7537 20.7529 11.4621 20.7529 0.000391006H16.7529C16.7529 9.25302 9.2524 16.7538 -0.000113074 16.7544L0.000113074 20.7544ZM2 77.2221V18.7544H-2V77.2221H2ZM-0.000113442 79.2221C9.2524 79.2226 16.7529 86.7234 16.7529 95.976H20.7529C20.7529 84.5143 11.4617 75.2227 0.000113442 75.2221L-0.000113442 79.2221ZM16.7529 95.976C16.7529 95.976 16.7529 95.976 16.7529 95.976C16.7529 95.976 16.7529 95.976 16.7529 95.976C16.7529 95.976 16.7529 95.976 16.7529 95.976C16.7529 95.976 16.7529 95.976 16.7529 95.976C16.7529 95.976 16.7529 95.976 16.7529 95.976C16.7529 95.976 16.7529 95.976 16.7529 95.976C16.7529 95.976 16.7529 95.976 16.7529 95.976C16.7529 95.976 16.7529 95.976 16.7529 95.976C16.7529 95.976 16.7529 95.976 16.7529 95.976C16.7529 95.976 16.7529 95.976 16.7529 95.976C16.7529 95.976 16.7529 95.976 16.7529 95.976C16.7529 95.976 16.7529 95.976 16.7529 95.976C16.7529 95.976 16.7529 95.976 16.7529 95.976C16.7529 95.976 16.7529 95.976 16.7529 95.976C16.7529 95.976 16.7529 95.976 16.7529 95.976C16.7529 95.976 16.7529 95.976 16.7529 95.976C16.7529 95.976 16.7529 95.976 16.7529 95.976C16.7529 95.976 16.7529 95.976 16.7529 95.976C16.7529 95.976 16.7529 95.976 16.7529 95.976C16.7529 95.976 16.7529 95.976 16.7529 95.976C16.7529 95.976 16.7529 95.976 16.7529 95.976C16.7529 95.976 16.7529 95.976 16.7529 95.976C16.7529 95.976 16.7529 95.976 16.7529 95.976C16.7529 95.976 16.7529 95.976 16.7529 95.976C16.7529 95.976 16.7529 95.976 16.7529 95.976C16.7529 95.976 16.7529 95.976 16.7529 95.976C16.7529 95.976 16.7529 95.976 16.7529 95.976C16.7529 95.976 16.7529 95.976 16.7529 95.976C16.7529 95.976 16.7529 95.976 16.7529 95.976C16.7529 95.976 16.7529 95.976 16.7529 95.976C16.7529 95.976 16.7529 95.976 16.7529 95.976C16.7529 95.976 16.7529 95.976 16.7529 95.976C16.7529 95.976 16.7529 95.976 16.7529 95.976C16.7529 95.976 16.7529 95.976 16.7529 95.976C16.7529 95.976 16.7529 95.976 16.7529 95.976C16.7529 95.976 16.7529 95.976 16.7529 95.976C16.7529 95.976 16.7529 95.976 16.7529 95.976C16.7529 95.976 16.7529 95.976 16.7529 95.976C16.7529 95.976 16.7529 95.976 16.7529 95.976C16.7529 95.976 16.7529 95.976 16.7529 95.976C16.7529 95.976 16.7529 95.976 16.7529 95.976C16.7529 95.976 16.7529 95.976 16.7529 95.976C16.7529 95.976 16.7529 95.976 16.7529 95.976C16.7529 95.976 16.7529 95.976 16.7529 95.976C16.7529 95.976 16.7529 95.976 16.7529 95.976C16.7529 95.976 16.7529 95.976 16.7529 95.976C16.7529 95.976 16.7529 95.976 16.7529 95.976C16.7529 95.976 16.7529 95.976 16.7529 95.976C16.7529 95.976 16.7529 95.976 16.7529 95.976C16.7529 95.976 16.7529 95.976 16.7529 95.976C16.7529 95.976 16.7529 95.976 16.7529 95.976C16.7529 95.976 16.7529 95.976 16.7529 95.976C16.7529 95.976 16.7529 95.976 16.7529 95.976C16.7529 95.976 16.7529 95.976 16.7529 95.976C16.7529 95.976 16.7529 95.976 16.7529 95.976C16.7529 95.976 16.7529 95.976 16.7529 95.976C16.7529 95.976 16.7529 95.976 16.7529 95.976C16.7529 95.976 16.7529 95.976 16.7529 95.976C16.7529 95.976 16.7529 95.976 16.7529 95.976C16.7529 95.976 16.7529 95.976 16.7529 95.976C16.7529 95.976 16.7529 95.976 16.7529 95.976C16.7529 95.976 16.7529 95.976 16.7529 95.976C16.7529 95.976 16.7529 95.976 16.7529 95.976C16.7529 95.976 16.7529 95.976 16.7529 95.976C16.7529 95.976 16.7529 95.976 16.7529 95.976C16.7529 95.976 16.7529 95.976 16.7529 95.976C16.7529 95.976 16.7529 95.976 16.7529 95.976C16.7529 95.976 16.7529 95.976 16.7529 95.976C16.7529 95.976 16.7529 95.976 16.7529 95.976C16.7529 95.976 16.7529 95.976 16.7529 95.976C16.7529 95.976 16.7529 95.976 16.7529 95.976C16.7529 95.976 16.7529 95.976 16.7529 95.976C16.7529 95.976 16.7529 95.976 16.7529 95.976C16.7529 95.976 16.7529 95.976 16.7529 95.976C16.7529 95.976 16.7529 95.976 16.7529 95.976C16.7529 95.976 16.7529 95.976 16.7529 95.976C16.7529 95.976 16.7529 95.976 16.7529 95.976C16.7529 95.976 16.7529 95.976 16.7529 95.976C16.7529 95.976 16.7529 95.976 16.7529 95.976C16.7529 95.976 16.7529 95.976 16.7529 95.976C16.7529 95.976 16.7529 95.976 16.7529 95.976C16.7529 95.976 16.7529 95.976 16.7529 95.976C16.7529 95.976 16.7529 95.976 16.7529 95.976C16.7529 95.976 16.7529 95.976 16.7529 95.976C16.7529 95.976 16.7529 95.976 16.7529 95.976C16.7529 95.976 16.7529 95.976 16.7529 95.976C16.7529 95.976 16.7529 95.976 16.7529 95.976C16.7529 95.976 16.7529 95.976 16.7529 95.976C16.7529 95.976 16.7529 95.976 16.7529 95.976C16.7529 95.976 16.7529 95.976 16.7529 95.976C16.7529 95.976 16.7529 95.976 16.7529 95.976C16.7529 95.976 16.7529 95.976 16.7529 95.976C16.7529 95.976 16.7529 95.976 16.7529 95.976C16.7529 95.9761 16.7529 95.9761 16.7529 95.9761C16.7529 95.9761 16.7529 95.9761 16.7529 95.9761C16.7529 95.9761 16.7529 95.9761 16.7529 95.9761C16.7529 95.9761 16.7529 95.9761 16.7529 95.9761C16.7529 95.9761 16.7529 95.9761 16.7529 95.9761C16.7529 95.9761 16.7529 95.9761 16.7529 95.9761C16.7529 95.9761 16.7529 95.9761 16.7529 95.9761C16.7529 95.9761 16.7529 95.9761 16.7529 95.9761C16.7529 95.9761 16.7529 95.9761 16.7529 95.9761C16.7529 95.9761 16.7529 95.9761 16.7529 95.9761C16.7529 95.9761 16.7529 95.9761 16.7529 95.9761C16.7529 95.9761 16.7529 95.9761 16.7529 95.9761C16.7529 95.9761 16.7529 95.9761 16.7529 95.9761C16.7529 95.9761 16.7529 95.9761 16.7529 95.9761C16.7529 95.9761 16.7529 95.9761 16.7529 95.9761C16.7529 95.9761 16.7529 95.9761 16.7529 95.9761C16.7529 95.9761 16.7529 95.9761 16.7529 95.9761C16.7529 95.9761 16.7529 95.9761 16.7529 95.9761C16.7529 95.9761 16.7529 95.9761 16.7529 95.9761C16.7529 95.9761 16.7529 95.9761 16.7529 95.9761C16.7529 95.9761 16.7529 95.9761 16.7529 95.9761C16.7529 95.9761 16.7529 95.9761 16.7529 95.9761C16.7529 95.9761 16.7529 95.9761 16.7529 95.9761C16.7529 95.9761 16.7529 95.9761 16.7529 95.9761C16.7529 95.9761 16.7529 95.9761 16.7529 95.9761C16.7529 95.9761 16.7529 95.9761 16.7529 95.9761C16.7529 95.9761 16.7529 95.9761 16.7529 95.9761C16.7529 95.9761 16.7529 95.9761 16.7529 95.9761C16.7529 95.9761 16.7529 95.9761 16.7529 95.9761C16.7529 95.9761 16.7529 95.9761 16.7529 95.9761C16.7529 95.9761 16.7529 95.9761 16.7529 95.9761C16.7529 95.9761 16.7529 95.9761 16.7529 95.9761C16.7529 95.9761 16.7529 95.9761 16.7529 95.9761C16.7529 95.9761 16.7529 95.9761 16.7529 95.9761C16.7529 95.9761 16.7529 95.9761 16.7529 95.9761C16.7529 95.9761 16.7529 95.9761 16.7529 95.9761C16.7529 95.9761 16.7529 95.9761 16.7529 95.9761C16.7529 95.9761 16.7529 95.9761 16.7529 95.9761C16.7529 95.9761 16.7529 95.9761 16.7529 95.9761C16.7529 95.9761 16.7529 95.9761 16.7529 95.9761C16.7529 95.9761 16.7529 95.9761 16.7529 95.9761C16.7529 95.9761 16.7529 95.9761 16.7529 95.9761C16.7529 95.9761 16.7529 95.9761 16.7529 95.9761C16.7529 95.9761 16.7529 95.9761 16.7529 95.9761C16.7529 95.9761 16.7529 95.9761 16.7529 95.9761C16.7529 95.9761 16.7529 95.9761 16.7529 95.9761C16.7529 95.9761 16.7529 95.9761 16.7529 95.9761C16.7529 95.9761 16.7529 95.9761 16.7529 95.9761C16.7529 95.9761 16.7529 95.9761 16.7529 95.9761C16.7529 95.9761 16.7529 95.9761 16.7529 95.9761C16.7529 95.9761 16.7529 95.9761 16.7529 95.9761C16.7529 95.9761 16.7529 95.9761 16.7529 95.9761C16.7529 95.9761 16.7529 95.9761 16.7529 95.9761C16.7529 95.9761 16.7529 95.9761 16.7529 95.9761C16.7529 95.9761 16.7529 95.9761 16.7529 95.9761C16.7529 95.9761 16.7529 95.9761 16.7529 95.9761C16.7529 95.9761 16.7529 95.9761 16.7529 95.9761C16.7529 95.9761 16.7529 95.9761 16.7529 95.9761C16.7529 95.9761 16.7529 95.9761 16.7529 95.9761C16.7529 95.9761 16.7529 95.9761 16.7529 95.9761C16.7529 95.9761 16.7529 95.9761 16.7529 95.9761C16.7529 95.9761 16.7529 95.9761 16.7529 95.9761C16.7529 95.9761 16.7529 95.9761 16.7529 95.9761C16.7529 95.9761 16.7529 95.9761 16.7529 95.9761C16.7529 95.9761 16.7529 95.9761 16.7529 95.9761C16.7529 95.9761 16.7529 95.9761 16.7529 95.9761C16.7529 95.9761 16.7529 95.9761 16.7529 95.9761C16.7529 95.9761 16.7529 95.9761 16.7529 95.9761C16.7529 95.9761 16.7529 95.9761 16.7529 95.9761C16.7529 95.9761 16.7529 95.9761 16.7529 95.9761C16.7529 95.9761 16.7529 95.9761 16.7529 95.9761C16.7529 95.9761 16.7529 95.9761 16.7529 95.9761C16.7529 95.9761 16.7529 95.9761 16.7529 95.9761C16.7529 95.9761 16.7529 95.9761 16.7529 95.9761C16.7529 95.9761 16.7529 95.9761 16.7529 95.9761C16.7529 95.9761 16.7529 95.9761 16.7529 95.9761C16.7529 95.9761 16.7529 95.9761 16.7529 95.9761C16.7529 95.9761 16.7529 95.9761 16.7529 95.9761C16.7529 95.9761 16.7529 95.9761 16.7529 95.9761C16.7529 95.9761 16.7529 95.9761 16.7529 95.9761C16.7529 95.9761 16.7529 95.9761 16.7529 95.9761C16.7529 95.9761 16.7529 95.9761 16.7529 95.9761C16.7529 95.9761 16.7529 95.9761 16.7529 95.9761C16.7529 95.9761 16.7529 95.9761 16.7529 95.9761C16.7529 95.9761 16.7529 95.9761 16.7529 95.9761C16.7529 95.9761 16.7529 95.9761 16.7529 95.9761C16.7529 95.9761 16.7529 95.9761 16.7529 95.9761C16.7529 95.9761 16.7529 95.9761 16.7529 95.9761C16.7529 95.9761 16.7529 95.9761 16.7529 95.9761C16.7529 95.9761 16.7529 95.9761 16.7529 95.9761C16.7529 95.9761 16.7529 95.9761 16.7529 95.9761C16.7529 95.9761 16.7529 95.9761 16.7529 95.9761C16.7529 95.9761 16.7529 95.9761 16.7529 95.9761C16.7529 95.9761 16.7529 95.9761 16.7529 95.9761C16.7529 95.9761 16.7529 95.9761 16.7529 95.9761C16.7529 95.9761 16.7529 95.9761 16.7529 95.9761C16.7529 95.9761 16.7529 95.9761 16.7529 95.9761C16.7529 95.9761 16.7529 95.9761 16.7529 95.9761C16.7529 95.9761 16.7529 95.9761 16.7529 95.9761C16.7529 95.9761 16.7529 95.9761 16.7529 95.9761C16.7529 95.9761 16.7529 95.9761 16.7529 95.9761C16.7529 95.9761 16.7529 95.9761 16.7529 95.9761C16.7529 95.9761 16.7529 95.9761 16.7529 95.9761C16.7529 95.9761 16.7529 95.9761 16.7529 95.9761C16.7529 95.9761 16.7529 95.9761 16.7529 95.9761C16.7529 95.9761 16.7529 95.9761 16.7529 95.9761C16.7529 95.9761 16.7529 95.9761 16.7529 95.9761C16.7529 95.9761 16.7529 95.9761 16.7529 95.9761C16.7529 95.9761 16.7529 95.9761 16.7529 95.9761C16.7529 95.9761 16.7529 95.9761 16.7529 95.9761C16.7529 95.9761 16.7529 95.9761 16.7529 95.9761C16.7529 95.9761 16.7529 95.9761 16.7529 95.9761C16.7529 95.9761 16.7529 95.9761 16.7529 95.9761C16.7529 95.9761 16.7529 95.9761 16.7529 95.9761C16.7529 95.9761 16.7529 95.9761 16.7529 95.9761C16.7529 95.9761 16.7529 95.9761 16.7529 95.9761C16.7529 95.9761 16.7529 95.9761 16.7529 95.9761C16.7529 95.9761 16.7529 95.9761 16.7529 95.9761C16.7529 95.9761 16.7529 95.9761 16.7529 95.9761C16.7529 95.9761 16.7529 95.9761 16.7529 95.9761C16.7529 95.9761 16.7529 95.9761 16.7529 95.9761C16.7529 95.9761 16.7529 95.9761 16.7529 95.9761C16.7529 95.9761 16.7529 95.9761 16.7529 95.9761C16.7529 95.9761 16.7529 95.9761 16.7529 95.9761C16.7529 95.9761 16.7529 95.9761 16.7529 95.9761C16.7529 95.9761 16.7529 95.9761 16.7529 95.9761C16.7529 95.9761 16.7529 95.9761 16.7529 95.9761C16.7529 95.9761 16.7529 95.9761 16.7529 95.9761C16.7529 95.9761 16.7529 95.9761 16.7529 95.9761C16.7529 95.9761 16.7529 95.9761 16.7529 95.9761C16.7529 95.9761 16.7529 95.9761 16.7529 95.9761C16.7529 95.9761 16.7529 95.9761 16.7529 95.9761C16.7529 95.9761 16.7529 95.9761 16.7529 95.9761C16.7529 95.9761 16.7529 95.9761 16.7529 95.9761C16.7529 95.9761 16.7529 95.9761 16.7529 95.9761C16.7529 95.9761 16.7529 95.9761 16.7529 95.9761C16.7529 95.9761 16.7529 95.9761 16.7529 95.9761C16.7529 95.9761 16.7529 95.9761 16.7529 95.9761C16.7529 95.9761 16.7529 95.9761 16.7529 95.9761C16.7529 95.9761 16.7529 95.9761 16.7529 95.9761C16.7529 95.9761 16.7529 95.9761 16.7529 95.9761C16.7529 95.9761 16.7529 95.9761 16.7529 95.9761C16.7529 95.9761 16.7529 95.9761 16.7529 95.9761C16.7529 95.9761 16.7529 95.9761 16.7529 95.9761C16.7529 95.9761 16.7529 95.9761 16.7529 95.9761C16.7529 95.9761 16.7529 95.9761 16.7529 95.9761C16.7529 95.9761 16.7529 95.9761 16.7529 95.9761C16.7529 95.9761 16.7529 95.9761 16.7529 95.9761C16.7529 95.9761 16.7529 95.9761 16.7529 95.9761C16.7529 95.9761 16.7529 95.9761 16.7529 95.9761C16.7529 95.9761 16.7529 95.9761 16.7529 95.9761C16.7529 95.9761 16.7529 95.9761 16.7529 95.9761C16.7529 95.9761 16.7529 95.9761 16.7529 95.9761C16.7529 95.9761 16.7529 95.9761 16.7529 95.9761C16.7529 95.9761 16.7529 95.9761 16.7529 95.9761C16.7529 95.9761 16.7529 95.9761 16.7529 95.9761C16.7529 95.9761 16.7529 95.9761 16.7529 95.9761C16.7529 95.9761 16.7529 95.9761 16.7529 95.9761C16.7529 95.9761 16.7529 95.9761 16.7529 95.9761C16.7529 95.9761 16.7529 95.9761 16.7529 95.9761C16.7529 95.9761 16.7529 95.9761 16.7529 95.9761C16.7529 95.9761 16.7529 95.9761 16.7529 95.9761C16.7529 95.9761 16.7529 95.9761 16.7529 95.9761C16.7529 95.9761 16.7529 95.9761 16.7529 95.9761C16.7529 95.9761 16.7529 95.9761 16.7529 95.9761C16.7529 95.9761 16.7529 95.9761 16.7529 95.9761C16.7529 95.9761 16.7529 95.9761 16.7529 95.9761C16.7529 95.9761 16.7529 95.9761 16.7529 95.9761C16.7529 95.9761 16.7529 95.9761 16.7529 95.9761C16.7529 95.9761 16.7529 95.9761 16.7529 95.9761C16.7529 95.9761 16.7529 95.9761 16.7529 95.9761C16.7529 95.9761 16.7529 95.9761 16.7529 95.9761C16.7529 95.9761 16.7529 95.9761 16.7529 95.9761C16.7529 95.9761 16.7529 95.9761 16.7529 95.9761C16.7529 95.9761 16.7529 95.9761 16.7529 95.9761C16.7529 95.9761 16.7529 95.9761 16.7529 95.9761C16.7529 95.9761 16.7529 95.9761 16.7529 95.9761C16.7529 95.9761 16.7529 95.9761 16.7529 95.9761C16.7529 95.9761 16.7529 95.9761 16.7529 95.9761C16.7529 95.9761 16.7529 95.9761 16.7529 95.9761C16.7529 95.9761 16.7529 95.9761 16.7529 95.9761C16.7529 95.9761 16.7529 95.9761 16.7529 95.9761C16.7529 95.9761 16.7529 95.9761 16.7529 95.9761C16.7529 95.9761 16.7529 95.9761 16.7529 95.9761C16.7529 95.9761 16.7529 95.9761 16.7529 95.9761C16.7529 95.9761 16.7529 95.9761 16.7529 95.9761C16.7529 95.9761 16.7529 95.9761 16.7529 95.9761C16.7529 95.9761 16.7529 95.9761 16.7529 95.9761C16.7529 95.9761 16.7529 95.9761 16.7529 95.9761C16.7529 95.9761 16.7529 95.9761 16.7529 95.9761C16.7529 95.9761 16.7529 95.9761 16.7529 95.9761C16.7529 95.9761 16.7529 95.9761 16.7529 95.9761C16.7529 95.9761 16.7529 95.9761 16.7529 95.9761C16.7529 95.9761 16.7529 95.9761 16.7529 95.9761C16.7529 95.9761 16.7529 95.9761 16.7529 95.9761C16.7529 95.9761 16.7529 95.9761 16.7529 95.9761C16.7529 95.9761 16.7529 95.9761 16.7529 95.9761C16.7529 95.9761 16.7529 95.9761 16.7529 95.9761C16.7529 95.9761 16.7529 95.9761 16.7529 95.9761C16.7529 95.9761 16.7529 95.9761 16.7529 95.9761C16.7529 95.9761 16.7529 95.9761 16.7529 95.9761C16.7529 95.9761 16.7529 95.9761 16.7529 95.9761C16.7529 95.9761 16.7529 95.9761 16.7529 95.9761C16.7529 95.9761 16.7529 95.9761 16.7529 95.9761C16.7529 95.9761 16.7529 95.9761 16.7529 95.9761C16.7529 95.9761 16.7529 95.9761 16.7529 95.9761C16.7529 95.9761 16.7529 95.9761 16.7529 95.9761C16.7529 95.9761 16.7529 95.9761 16.7529 95.9761C16.7529 95.9761 16.7529 95.9761 16.7529 95.9761C16.7529 95.9761 16.7529 95.9761 16.7529 95.9761C16.7529 95.9761 16.7529 95.9761 16.7529 95.9761C16.7529 95.9761 16.7529 95.9761 16.7529 95.9761C16.7529 95.9761 16.7529 95.9761 16.7529 95.9761C16.7529 95.9761 16.7529 95.9761 16.7529 95.9761C16.7529 95.9761 16.7529 95.9761 16.7529 95.9761C16.7529 95.9761 16.7529 95.9761 16.7529 95.9761C16.7529 95.9761 16.7529 95.9761 16.7529 95.9761C16.7529 95.9761 16.7529 95.9761 16.7529 95.9761C16.7529 95.9761 16.7529 95.9761 16.7529 95.9761C16.7529 95.9761 16.7529 95.9761 16.7529 95.9761C16.7529 95.9761 16.7529 95.9761 16.7529 95.9761C16.7529 95.9761 16.7529 95.9761 16.7529 95.9761C16.7529 95.9761 16.7529 95.9761 16.7529 95.9761C16.7529 95.9761 16.7529 95.9761 16.7529 95.9761C16.7529 95.9761 16.7529 95.9761 16.7529 95.9761C16.7529 95.9761 16.7529 95.9761 16.7529 95.9761C16.7529 95.9761 16.7529 95.9761 16.7529 95.9761C16.7529 95.9761 16.7529 95.9761 16.7529 95.9761C16.7529 95.9761 16.7529 95.9761 16.7529 95.9761C16.7529 95.9761 16.7529 95.9761 16.7529 95.9761C16.7529 95.9761 16.7529 95.9761 16.7529 95.9761C16.7529 95.9761 16.7529 95.9761 16.7529 95.9761C16.7529 95.9761 16.7529 95.9761 16.7529 95.9761C16.7529 95.9761 16.7529 95.9761 16.7529 95.9761C16.7529 95.9761 16.7529 95.9761 16.7529 95.9761C16.7529 95.9761 16.7529 95.9761 16.7529 95.9761C16.7529 95.9761 16.7529 95.9761 16.7529 95.9761C16.7529 95.9761 16.7529 95.9761 16.7529 95.9761C16.7529 95.9761 16.7529 95.9761 16.7529 95.9761C16.7529 95.9761 16.7529 95.9761 16.7529 95.9761C16.7529 95.9761 16.7529 95.9761 16.7529 95.9761C16.7529 95.9761 16.7529 95.9761 16.7529 95.9761C16.7529 95.9761 16.7529 95.9761 16.7529 95.9761C16.7529 95.9761 16.7529 95.9761 16.7529 95.9761C16.7529 95.9761 16.7529 95.9761 16.7529 95.9761C16.7529 95.9761 16.7529 95.9761 16.7529 95.9761C16.7529 95.9761 16.7529 95.9761 16.7529 95.9761C16.7529 95.9761 16.7529 95.9761 16.7529 95.9761C16.7529 95.9761 16.7529 95.9761 16.7529 95.9761C16.7529 95.9761 16.7529 95.9761 16.7529 95.9761C16.7529 95.9761 16.7529 95.9761 16.7529 95.9761C16.7529 95.9761 16.7529 95.9761 16.7529 95.9761C16.7529 95.9761 16.7529 95.9761 16.7529 95.9761C16.7529 95.9761 16.7529 95.9761 16.7529 95.9761C16.7529 95.9761 16.7529 95.9761 16.7529 95.9761C16.7529 95.9761 16.7529 95.9761 16.7529 95.9761C16.7529 95.9761 16.7529 95.9761 16.7529 95.9761C16.7529 95.9761 16.7529 95.9761 16.7529 95.9761C16.7529 95.9761 16.7529 95.9761 16.7529 95.9761C16.7529 95.9761 16.7529 95.9761 16.7529 95.9761C16.7529 95.9761 16.7529 95.9761 16.7529 95.9761C16.7529 95.9761 16.7529 95.9761 16.7529 95.9761C16.7529 95.9761 16.7529 95.9761 16.7529 95.9761C16.7529 95.9761 16.7529 95.9761 16.7529 95.9761C16.7529 95.9761 16.7529 95.9761 16.7529 95.9761C16.7529 95.9761 16.7529 95.9761 16.7529 95.9761C16.7529 95.9761 16.7529 95.9761 16.7529 95.9761C16.7529 95.9761 16.7529 95.9761 16.7529 95.9761C16.7529 95.9761 16.7529 95.9761 16.7529 95.9761C16.7529 95.9761 16.7529 95.9761 16.7529 95.9761C16.7529 95.9761 16.7529 95.9761 16.7529 95.9761C16.7529 95.9761 16.7529 95.9761 16.7529 95.9761C16.7529 95.9761 16.7529 95.9761 16.7529 95.9761C16.7529 95.9761 16.7529 95.9761 16.7529 95.9761C16.7529 95.9761 16.7529 95.9761 16.7529 95.9761C16.7529 95.9761 16.7529 95.9761 16.7529 95.9761C16.7529 95.9761 16.7529 95.9761 16.7529 95.9761C16.7529 95.9761 16.7529 95.9761 16.7529 95.9761C16.7529 95.9761 16.7529 95.9761 16.7529 95.9761C16.7529 95.9761 16.7529 95.9761 16.7529 95.9761C16.7529 95.9761 16.7529 95.9761 16.7529 95.9761C16.7529 95.9761 16.7529 95.9761 16.7529 95.9761C16.7529 95.9761 16.7529 95.9761 16.7529 95.9761C16.7529 95.9761 16.7529 95.9761 16.7529 95.9761C16.7529 95.9761 16.7529 95.9761 16.7529 95.9761C16.7529 95.9761 16.7529 95.9761 16.7529 95.9761C16.7529 95.9761 16.7529 95.9761 16.7529 95.9761C16.7529 95.9761 16.7529 95.9761 16.7529 95.9761C16.7529 95.9761 16.7529 95.9761 16.7529 95.9761C16.7529 95.9761 16.7529 95.9761 16.7529 95.9761C16.7529 95.9761 16.7529 95.9761 16.7529 95.9761C16.7529 95.9761 16.7529 95.9761 16.7529 95.9761C16.7529 95.9761 16.7529 95.9761 16.7529 95.9761C16.7529 95.9761 16.7529 95.9761 16.7529 95.9761C16.7529 95.9761 16.7529 95.9761 16.7529 95.9761C16.7529 95.9761 16.7529 95.9761 16.7529 95.9761C16.7529 95.9761 16.7529 95.9761 16.7529 95.9761C16.7529 95.9761 16.7529 95.9761 16.7529 95.9761C16.7529 95.9761 16.7529 95.9761 16.7529 95.9761C16.7529 95.9761 16.7529 95.9761 16.7529 95.9761C16.7529 95.9761 16.7529 95.9761 16.7529 95.9761C16.7529 95.9761 16.7529 95.9761 16.7529 95.9761C16.7529 95.9761 16.7529 95.9761 16.7529 95.9761C16.7529 95.9761 16.7529 95.9761 16.7529 95.9761C16.7529 95.9761 16.7529 95.9761 16.7529 95.9761C16.7529 95.9761 16.7529 95.9761 16.7529 95.9761C16.7529 95.9761 16.7529 95.9761 16.7529 95.9761C16.7529 95.9761 16.7529 95.9761 16.7529 95.9761C16.7529 95.9761 16.7529 95.9761 16.7529 95.9761C16.7529 95.9761 16.7529 95.9761 16.7529 95.9761C16.7529 95.9761 16.7529 95.9761 16.7529 95.9761C16.7529 95.9761 16.7529 95.9761 16.7529 95.9761C16.7529 95.9761 16.7529 95.9761 16.7529 95.9761C16.7529 95.9761 16.7529 95.9761 16.7529 95.9761C16.7529 95.9761 16.7529 95.9761 16.7529 95.9761C16.7529 95.9761 16.7529 95.9761 16.7529 95.9761C16.7529 95.9761 16.7529 95.9761 16.7529 95.9761C16.7529 95.9761 16.7529 95.9761 16.7529 95.9761C16.7529 95.9761 16.7529 95.9761 16.7529 95.9761C16.7529 95.9761 16.7529 95.9761 16.7529 95.9762C16.7529 95.9762 16.7529 95.9762 16.7529 95.9762C16.7529 95.9762 16.7529 95.9762 16.7529 95.9762C16.7529 95.9762 16.7529 95.9762 16.7529 95.9762C16.7529 95.9762 16.7529 95.9762 16.7529 95.9762C16.7529 95.9762 16.7529 95.9762 16.7529 95.9762C16.7529 95.9762 16.7529 95.9762 16.7529 95.9762C16.7529 95.9762 16.7529 95.9762 16.7529 95.9762C16.7529 95.9762 16.7529 95.9762 16.7529 95.9762C16.7529 95.9762 16.7529 95.9762 16.7529 95.9762C16.7529 95.9762 16.7529 95.9762 16.7529 95.9762C16.7529 95.9762 16.7529 95.9762 16.7529 95.9762C16.7529 95.9762 16.7529 95.9762 16.7529 95.9762C16.7529 95.9762 16.7529 95.9762 16.7529 95.9762C16.7529 95.9762 16.7529 95.9762 16.7529 95.9762C16.7529 95.9762 16.7529 95.9762 16.7529 95.9762C16.7529 95.9762 16.7529 95.9762 16.7529 95.9762C16.7529 95.9762 16.7529 95.9762 16.7529 95.9762C16.7529 95.9762 16.7529 95.9762 16.7529 95.9762C16.7529 95.9762 16.7529 95.9762 16.7529 95.9762C16.7529 95.9762 16.7529 95.9762 16.7529 95.9762C16.7529 95.9762 16.7529 95.9762 16.7529 95.9762C16.7529 95.9762 16.7529 95.9762 16.7529 95.9762C16.7529 95.9762 16.7529 95.9762 16.7529 95.9762C16.7529 95.9762 16.7529 95.9762 16.7529 95.9762C16.7529 95.9762 16.7529 95.9762 16.7529 95.9762C16.7529 95.9762 16.7529 95.9762 16.7529 95.9762C16.7529 95.9762 16.7529 95.9762 16.7529 95.9762C16.7529 95.9762 16.7529 95.9762 16.7529 95.9762C16.7529 95.9762 16.7529 95.9762 16.7529 95.9762C16.7529 95.9762 16.7529 95.9762 16.7529 95.9762C16.7529 95.9762 16.7529 95.9762 16.7529 95.9762C16.7529 95.9762 16.7529 95.9762 16.7529 95.9762C16.7529 95.9762 16.7529 95.9762 16.7529 95.9762C16.7529 95.9762 16.7529 95.9762 16.7529 95.9762C16.7529 95.9762 16.7529 95.9762 16.7529 95.9762C16.7529 95.9762 16.7529 95.9762 16.7529 95.9762C16.7529 95.9762 16.7529 95.9762 16.7529 95.9762C16.7529 95.9762 16.7529 95.9762 16.7529 95.9762C16.7529 95.9762 16.7529 95.9762 16.7529 95.9762C16.7529 95.9762 16.7529 95.9762 16.7529 95.9762C16.7529 95.9762 16.7529 95.9762 16.7529 95.9762C16.7529 95.9762 16.7529 95.9762 16.7529 95.9762C16.7529 95.9762 16.7529 95.9762 16.7529 95.9762C16.7529 95.9762 16.7529 95.9762 16.7529 95.9762C16.7529 95.9762 16.7529 95.9762 16.7529 95.9762C16.7529 95.9762 16.7529 95.9762 16.7529 95.9762C16.7529 95.9762 16.7529 95.9762 16.7529 95.9762C16.7529 95.9762 16.7529 95.9762 16.7529 95.9762C16.7529 95.9762 16.7529 95.9762 16.7529 95.9762C16.7529 95.9762 16.7529 95.9762 16.7529 95.9762C16.7529 95.9762 16.7529 95.9762 16.7529 95.9762C16.7529 95.9762 16.7529 95.9762 16.7529 95.9762C16.7529 95.9762 16.7529 95.9762 16.7529 95.9762C16.7529 95.9762 16.7529 95.9762 16.7529 95.9762C16.7529 95.9762 16.7529 95.9762 16.7529 95.9762C16.7529 95.9762 16.7529 95.9762 16.7529 95.9762C16.7529 95.9762 16.7529 95.9762 16.7529 95.9762C16.7529 95.9762 16.7529 95.9762 16.7529 95.9762C16.7529 95.9762 16.7529 95.9762 16.7529 95.9762C16.7529 95.9762 16.7529 95.9762 16.7529 95.9762C16.7529 95.9762 16.7529 95.9762 16.7529 95.9762C16.7529 95.9762 16.7529 95.9762 16.7529 95.9762C16.7529 95.9762 16.7529 95.9762 16.7529 95.9762C16.7529 95.9762 16.7529 95.9762 16.7529 95.9762C16.7529 95.9762 16.7529 95.9762 16.7529 95.9762C16.7529 95.9762 16.7529 95.9762 16.7529 95.9762C16.7529 95.9762 16.7529 95.9762 16.7529 95.9762C16.7529 95.9762 16.7529 95.9762 16.7529 95.9762C16.7529 95.9762 16.7529 95.9762 16.7529 95.9762C16.7529 95.9762 16.7529 95.9762 16.7529 95.9762C16.7529 95.9762 16.7529 95.9762 16.7529 95.9762C16.7529 95.9762 16.7529 95.9762 16.7529 95.9762C16.7529 95.9762 16.7529 95.9762 16.7529 95.9762C16.7529 95.9762 16.7529 95.9762 16.7529 95.9762C16.7529 95.9762 16.7529 95.9762 16.7529 95.9762C16.7529 95.9762 16.7529 95.9762 16.7529 95.9762C16.7529 95.9762 16.7529 95.9762 16.7529 95.9762C16.7529 95.9762 16.7529 95.9762 16.7529 95.9762C16.7529 95.9762 16.7529 95.9762 16.7529 95.9762C16.7529 95.9762 16.7529 95.9762 16.7529 95.9762C16.7529 95.9762 16.7529 95.9762 16.7529 95.9762C16.7529 95.9762 16.7529 95.9762 16.7529 95.9762C16.7529 95.9762 16.7529 95.9762 16.7529 95.9762C16.7529 95.9762 16.7529 95.9762 16.7529 95.9762C16.7529 95.9762 16.7529 95.9762 16.7529 95.9762C16.7529 95.9762 16.7529 95.9762 16.7529 95.9762C16.7529 95.9762 16.7529 95.9762 16.7529 95.9762C16.7529 95.9762 16.7529 95.9762 16.7529 95.9762C16.7529 95.9762 16.7529 95.9762 16.7529 95.9762C16.7529 95.9762 16.7529 95.9762 16.7529 95.9762C16.7529 95.9762 16.7529 95.9762 16.7529 95.9762C16.7529 95.9762 16.7529 95.9762 16.7529 95.9762C16.7529 95.9762 16.7529 95.9762 16.7529 95.9762C16.7529 95.9762 16.7529 95.9762 16.7529 95.9762C16.7529 95.9762 16.7529 95.9762 16.7529 95.9762C16.7529 95.9762 16.7529 95.9762 16.7529 95.9762C16.7529 95.9762 16.7529 95.9762 16.7529 95.9762C16.7529 95.9762 16.7529 95.9762 16.7529 95.9762C16.7529 95.9762 16.7529 95.9762 16.7529 95.9762H20.7529C20.7529 95.9762 20.7529 95.9762 20.7529 95.9762C20.7529 95.9762 20.7529 95.9762 20.7529 95.9762C20.7529 95.9762 20.7529 95.9762 20.7529 95.9762C20.7529 95.9762 20.7529 95.9762 20.7529 95.9762C20.7529 95.9762 20.7529 95.9762 20.7529 95.9762C20.7529 95.9762 20.7529 95.9762 20.7529 95.9762C20.7529 95.9762 20.7529 95.9762 20.7529 95.9762C20.7529 95.9762 20.7529 95.9762 20.7529 95.9762C20.7529 95.9762 20.7529 95.9762 20.7529 95.9762C20.7529 95.9762 20.7529 95.9762 20.7529 95.9762C20.7529 95.9762 20.7529 95.9762 20.7529 95.9762C20.7529 95.9762 20.7529 95.9762 20.7529 95.9762C20.7529 95.9762 20.7529 95.9762 20.7529 95.9762C20.7529 95.9762 20.7529 95.9762 20.7529 95.9762C20.7529 95.9762 20.7529 95.9762 20.7529 95.9762C20.7529 95.9762 20.7529 95.9762 20.7529 95.9762C20.7529 95.9762 20.7529 95.9762 20.7529 95.9762C20.7529 95.9762 20.7529 95.9762 20.7529 95.9762C20.7529 95.9762 20.7529 95.9762 20.7529 95.9762C20.7529 95.9762 20.7529 95.9762 20.7529 95.9762C20.7529 95.9762 20.7529 95.9762 20.7529 95.9762C20.7529 95.9762 20.7529 95.9762 20.7529 95.9762C20.7529 95.9762 20.7529 95.9762 20.7529 95.9762C20.7529 95.9762 20.7529 95.9762 20.7529 95.9762C20.7529 95.9762 20.7529 95.9762 20.7529 95.9762C20.7529 95.9762 20.7529 95.9762 20.7529 95.9762C20.7529 95.9762 20.7529 95.9762 20.7529 95.9762C20.7529 95.9762 20.7529 95.9762 20.7529 95.9762C20.7529 95.9762 20.7529 95.9762 20.7529 95.9762C20.7529 95.9762 20.7529 95.9762 20.7529 95.9762C20.7529 95.9762 20.7529 95.9762 20.7529 95.9762C20.7529 95.9762 20.7529 95.9762 20.7529 95.9762C20.7529 95.9762 20.7529 95.9762 20.7529 95.9762C20.7529 95.9762 20.7529 95.9762 20.7529 95.9762C20.7529 95.9762 20.7529 95.9762 20.7529 95.9762C20.7529 95.9762 20.7529 95.9762 20.7529 95.9762C20.7529 95.9762 20.7529 95.9762 20.7529 95.9762C20.7529 95.9762 20.7529 95.9762 20.7529 95.9762C20.7529 95.9762 20.7529 95.9762 20.7529 95.9762C20.7529 95.9762 20.7529 95.9762 20.7529 95.9762C20.7529 95.9762 20.7529 95.9762 20.7529 95.9762C20.7529 95.9762 20.7529 95.9762 20.7529 95.9762C20.7529 95.9762 20.7529 95.9762 20.7529 95.9762C20.7529 95.9762 20.7529 95.9762 20.7529 95.9762C20.7529 95.9762 20.7529 95.9762 20.7529 95.9762C20.7529 95.9762 20.7529 95.9762 20.7529 95.9762C20.7529 95.9762 20.7529 95.9762 20.7529 95.9762C20.7529 95.9762 20.7529 95.9762 20.7529 95.9762C20.7529 95.9762 20.7529 95.9762 20.7529 95.9762C20.7529 95.9762 20.7529 95.9762 20.7529 95.9762C20.7529 95.9762 20.7529 95.9762 20.7529 95.9762C20.7529 95.9762 20.7529 95.9762 20.7529 95.9762C20.7529 95.9762 20.7529 95.9762 20.7529 95.9762C20.7529 95.9762 20.7529 95.9762 20.7529 95.9762C20.7529 95.9762 20.7529 95.9762 20.7529 95.9762C20.7529 95.9762 20.7529 95.9762 20.7529 95.9762C20.7529 95.9762 20.7529 95.9762 20.7529 95.9762C20.7529 95.9762 20.7529 95.9762 20.7529 95.9762C20.7529 95.9762 20.7529 95.9762 20.7529 95.9762C20.7529 95.9762 20.7529 95.9762 20.7529 95.9762C20.7529 95.9762 20.7529 95.9762 20.7529 95.9762C20.7529 95.9762 20.7529 95.9762 20.7529 95.9762C20.7529 95.9762 20.7529 95.9762 20.7529 95.9762C20.7529 95.9762 20.7529 95.9762 20.7529 95.9762C20.7529 95.9762 20.7529 95.9762 20.7529 95.9762C20.7529 95.9762 20.7529 95.9762 20.7529 95.9762C20.7529 95.9762 20.7529 95.9762 20.7529 95.9762C20.7529 95.9762 20.7529 95.9762 20.7529 95.9762C20.7529 95.9762 20.7529 95.9762 20.7529 95.9762C20.7529 95.9762 20.7529 95.9762 20.7529 95.9762C20.7529 95.9762 20.7529 95.9762 20.7529 95.9762C20.7529 95.9762 20.7529 95.9762 20.7529 95.9762C20.7529 95.9762 20.7529 95.9762 20.7529 95.9762C20.7529 95.9762 20.7529 95.9762 20.7529 95.9762C20.7529 95.9762 20.7529 95.9762 20.7529 95.9762C20.7529 95.9762 20.7529 95.9762 20.7529 95.9762C20.7529 95.9762 20.7529 95.9762 20.7529 95.9762C20.7529 95.9762 20.7529 95.9762 20.7529 95.9762C20.7529 95.9762 20.7529 95.9762 20.7529 95.9762C20.7529 95.9762 20.7529 95.9762 20.7529 95.9762C20.7529 95.9762 20.7529 95.9762 20.7529 95.9762C20.7529 95.9762 20.7529 95.9762 20.7529 95.9762C20.7529 95.9762 20.7529 95.9762 20.7529 95.9762C20.7529 95.9762 20.7529 95.9762 20.7529 95.9762C20.7529 95.9762 20.7529 95.9762 20.7529 95.9762C20.7529 95.9762 20.7529 95.9762 20.7529 95.9762C20.7529 95.9762 20.7529 95.9762 20.7529 95.9762C20.7529 95.9762 20.7529 95.9762 20.7529 95.9762C20.7529 95.9762 20.7529 95.9762 20.7529 95.9762C20.7529 95.9762 20.7529 95.9762 20.7529 95.9762C20.7529 95.9762 20.7529 95.9762 20.7529 95.9762C20.7529 95.9762 20.7529 95.9762 20.7529 95.9762C20.7529 95.9762 20.7529 95.9762 20.7529 95.9762C20.7529 95.9762 20.7529 95.9762 20.7529 95.9762C20.7529 95.9762 20.7529 95.9762 20.7529 95.9762C20.7529 95.9762 20.7529 95.9762 20.7529 95.9762C20.7529 95.9762 20.7529 95.9762 20.7529 95.9762C20.7529 95.9762 20.7529 95.9762 20.7529 95.9762C20.7529 95.9762 20.7529 95.9762 20.7529 95.9762C20.7529 95.9761 20.7529 95.9761 20.7529 95.9761C20.7529 95.9761 20.7529 95.9761 20.7529 95.9761C20.7529 95.9761 20.7529 95.9761 20.7529 95.9761C20.7529 95.9761 20.7529 95.9761 20.7529 95.9761C20.7529 95.9761 20.7529 95.9761 20.7529 95.9761C20.7529 95.9761 20.7529 95.9761 20.7529 95.9761C20.7529 95.9761 20.7529 95.9761 20.7529 95.9761C20.7529 95.9761 20.7529 95.9761 20.7529 95.9761C20.7529 95.9761 20.7529 95.9761 20.7529 95.9761C20.7529 95.9761 20.7529 95.9761 20.7529 95.9761C20.7529 95.9761 20.7529 95.9761 20.7529 95.9761C20.7529 95.9761 20.7529 95.9761 20.7529 95.9761C20.7529 95.9761 20.7529 95.9761 20.7529 95.9761C20.7529 95.9761 20.7529 95.9761 20.7529 95.9761C20.7529 95.9761 20.7529 95.9761 20.7529 95.9761C20.7529 95.9761 20.7529 95.9761 20.7529 95.9761C20.7529 95.9761 20.7529 95.9761 20.7529 95.9761C20.7529 95.9761 20.7529 95.9761 20.7529 95.9761C20.7529 95.9761 20.7529 95.9761 20.7529 95.9761C20.7529 95.9761 20.7529 95.9761 20.7529 95.9761C20.7529 95.9761 20.7529 95.9761 20.7529 95.9761C20.7529 95.9761 20.7529 95.9761 20.7529 95.9761C20.7529 95.9761 20.7529 95.9761 20.7529 95.9761C20.7529 95.9761 20.7529 95.9761 20.7529 95.9761C20.7529 95.9761 20.7529 95.9761 20.7529 95.9761C20.7529 95.9761 20.7529 95.9761 20.7529 95.9761C20.7529 95.9761 20.7529 95.9761 20.7529 95.9761C20.7529 95.9761 20.7529 95.9761 20.7529 95.9761C20.7529 95.9761 20.7529 95.9761 20.7529 95.9761C20.7529 95.9761 20.7529 95.9761 20.7529 95.9761C20.7529 95.9761 20.7529 95.9761 20.7529 95.9761C20.7529 95.9761 20.7529 95.9761 20.7529 95.9761C20.7529 95.9761 20.7529 95.9761 20.7529 95.9761C20.7529 95.9761 20.7529 95.9761 20.7529 95.9761C20.7529 95.9761 20.7529 95.9761 20.7529 95.9761C20.7529 95.9761 20.7529 95.9761 20.7529 95.9761C20.7529 95.9761 20.7529 95.9761 20.7529 95.9761C20.7529 95.9761 20.7529 95.9761 20.7529 95.9761C20.7529 95.9761 20.7529 95.9761 20.7529 95.9761C20.7529 95.9761 20.7529 95.9761 20.7529 95.9761C20.7529 95.9761 20.7529 95.9761 20.7529 95.9761C20.7529 95.9761 20.7529 95.9761 20.7529 95.9761C20.7529 95.9761 20.7529 95.9761 20.7529 95.9761C20.7529 95.9761 20.7529 95.9761 20.7529 95.9761C20.7529 95.9761 20.7529 95.9761 20.7529 95.9761C20.7529 95.9761 20.7529 95.9761 20.7529 95.9761C20.7529 95.9761 20.7529 95.9761 20.7529 95.9761C20.7529 95.9761 20.7529 95.9761 20.7529 95.9761C20.7529 95.9761 20.7529 95.9761 20.7529 95.9761C20.7529 95.9761 20.7529 95.9761 20.7529 95.9761C20.7529 95.9761 20.7529 95.9761 20.7529 95.9761C20.7529 95.9761 20.7529 95.9761 20.7529 95.9761C20.7529 95.9761 20.7529 95.9761 20.7529 95.9761C20.7529 95.9761 20.7529 95.9761 20.7529 95.9761C20.7529 95.9761 20.7529 95.9761 20.7529 95.9761C20.7529 95.9761 20.7529 95.9761 20.7529 95.9761C20.7529 95.9761 20.7529 95.9761 20.7529 95.9761C20.7529 95.9761 20.7529 95.9761 20.7529 95.9761C20.7529 95.9761 20.7529 95.9761 20.7529 95.9761C20.7529 95.9761 20.7529 95.9761 20.7529 95.9761C20.7529 95.9761 20.7529 95.9761 20.7529 95.9761C20.7529 95.9761 20.7529 95.9761 20.7529 95.9761C20.7529 95.9761 20.7529 95.9761 20.7529 95.9761C20.7529 95.9761 20.7529 95.9761 20.7529 95.9761C20.7529 95.9761 20.7529 95.9761 20.7529 95.9761C20.7529 95.9761 20.7529 95.9761 20.7529 95.9761C20.7529 95.9761 20.7529 95.9761 20.7529 95.9761C20.7529 95.9761 20.7529 95.9761 20.7529 95.9761C20.7529 95.9761 20.7529 95.9761 20.7529 95.9761C20.7529 95.9761 20.7529 95.9761 20.7529 95.9761C20.7529 95.9761 20.7529 95.9761 20.7529 95.9761C20.7529 95.9761 20.7529 95.9761 20.7529 95.9761C20.7529 95.9761 20.7529 95.9761 20.7529 95.9761C20.7529 95.9761 20.7529 95.9761 20.7529 95.9761C20.7529 95.9761 20.7529 95.9761 20.7529 95.9761C20.7529 95.9761 20.7529 95.9761 20.7529 95.9761C20.7529 95.9761 20.7529 95.9761 20.7529 95.9761C20.7529 95.9761 20.7529 95.9761 20.7529 95.9761C20.7529 95.9761 20.7529 95.9761 20.7529 95.9761C20.7529 95.9761 20.7529 95.9761 20.7529 95.9761C20.7529 95.9761 20.7529 95.9761 20.7529 95.9761C20.7529 95.9761 20.7529 95.9761 20.7529 95.9761C20.7529 95.9761 20.7529 95.9761 20.7529 95.9761C20.7529 95.9761 20.7529 95.9761 20.7529 95.9761C20.7529 95.9761 20.7529 95.9761 20.7529 95.9761C20.7529 95.9761 20.7529 95.9761 20.7529 95.9761C20.7529 95.9761 20.7529 95.9761 20.7529 95.9761C20.7529 95.9761 20.7529 95.9761 20.7529 95.9761C20.7529 95.9761 20.7529 95.9761 20.7529 95.9761C20.7529 95.9761 20.7529 95.9761 20.7529 95.9761C20.7529 95.9761 20.7529 95.9761 20.7529 95.9761C20.7529 95.9761 20.7529 95.9761 20.7529 95.9761C20.7529 95.9761 20.7529 95.9761 20.7529 95.9761C20.7529 95.9761 20.7529 95.9761 20.7529 95.9761C20.7529 95.9761 20.7529 95.9761 20.7529 95.9761C20.7529 95.9761 20.7529 95.9761 20.7529 95.9761C20.7529 95.9761 20.7529 95.9761 20.7529 95.9761C20.7529 95.9761 20.7529 95.9761 20.7529 95.9761C20.7529 95.9761 20.7529 95.9761 20.7529 95.9761C20.7529 95.9761 20.7529 95.9761 20.7529 95.9761C20.7529 95.9761 20.7529 95.9761 20.7529 95.9761C20.7529 95.9761 20.7529 95.9761 20.7529 95.9761C20.7529 95.9761 20.7529 95.9761 20.7529 95.9761C20.7529 95.9761 20.7529 95.9761 20.7529 95.9761C20.7529 95.9761 20.7529 95.9761 20.7529 95.9761C20.7529 95.9761 20.7529 95.9761 20.7529 95.9761C20.7529 95.9761 20.7529 95.9761 20.7529 95.9761C20.7529 95.9761 20.7529 95.9761 20.7529 95.9761C20.7529 95.9761 20.7529 95.9761 20.7529 95.9761C20.7529 95.9761 20.7529 95.9761 20.7529 95.9761C20.7529 95.9761 20.7529 95.9761 20.7529 95.9761C20.7529 95.9761 20.7529 95.9761 20.7529 95.9761C20.7529 95.9761 20.7529 95.9761 20.7529 95.9761C20.7529 95.9761 20.7529 95.9761 20.7529 95.9761C20.7529 95.9761 20.7529 95.9761 20.7529 95.9761C20.7529 95.9761 20.7529 95.9761 20.7529 95.9761C20.7529 95.9761 20.7529 95.9761 20.7529 95.9761C20.7529 95.9761 20.7529 95.9761 20.7529 95.9761C20.7529 95.9761 20.7529 95.9761 20.7529 95.9761C20.7529 95.9761 20.7529 95.9761 20.7529 95.9761C20.7529 95.9761 20.7529 95.9761 20.7529 95.9761C20.7529 95.9761 20.7529 95.9761 20.7529 95.9761C20.7529 95.9761 20.7529 95.9761 20.7529 95.9761C20.7529 95.9761 20.7529 95.9761 20.7529 95.9761C20.7529 95.9761 20.7529 95.9761 20.7529 95.9761C20.7529 95.9761 20.7529 95.9761 20.7529 95.9761C20.7529 95.9761 20.7529 95.9761 20.7529 95.9761C20.7529 95.9761 20.7529 95.9761 20.7529 95.9761C20.7529 95.9761 20.7529 95.9761 20.7529 95.9761C20.7529 95.9761 20.7529 95.9761 20.7529 95.9761C20.7529 95.9761 20.7529 95.9761 20.7529 95.9761C20.7529 95.9761 20.7529 95.9761 20.7529 95.9761C20.7529 95.9761 20.7529 95.9761 20.7529 95.9761C20.7529 95.9761 20.7529 95.9761 20.7529 95.9761C20.7529 95.9761 20.7529 95.9761 20.7529 95.9761C20.7529 95.9761 20.7529 95.9761 20.7529 95.9761C20.7529 95.9761 20.7529 95.9761 20.7529 95.9761C20.7529 95.9761 20.7529 95.9761 20.7529 95.9761C20.7529 95.9761 20.7529 95.9761 20.7529 95.9761C20.7529 95.9761 20.7529 95.9761 20.7529 95.9761C20.7529 95.9761 20.7529 95.9761 20.7529 95.9761C20.7529 95.9761 20.7529 95.9761 20.7529 95.9761C20.7529 95.9761 20.7529 95.9761 20.7529 95.9761C20.7529 95.9761 20.7529 95.9761 20.7529 95.9761C20.7529 95.9761 20.7529 95.9761 20.7529 95.9761C20.7529 95.9761 20.7529 95.9761 20.7529 95.9761C20.7529 95.9761 20.7529 95.9761 20.7529 95.9761C20.7529 95.9761 20.7529 95.9761 20.7529 95.9761C20.7529 95.9761 20.7529 95.9761 20.7529 95.9761C20.7529 95.9761 20.7529 95.9761 20.7529 95.9761C20.7529 95.9761 20.7529 95.9761 20.7529 95.9761C20.7529 95.9761 20.7529 95.9761 20.7529 95.9761C20.7529 95.9761 20.7529 95.9761 20.7529 95.9761C20.7529 95.9761 20.7529 95.9761 20.7529 95.9761C20.7529 95.9761 20.7529 95.9761 20.7529 95.9761C20.7529 95.9761 20.7529 95.9761 20.7529 95.9761C20.7529 95.9761 20.7529 95.9761 20.7529 95.9761C20.7529 95.9761 20.7529 95.9761 20.7529 95.9761C20.7529 95.9761 20.7529 95.9761 20.7529 95.9761C20.7529 95.9761 20.7529 95.9761 20.7529 95.9761C20.7529 95.9761 20.7529 95.9761 20.7529 95.9761C20.7529 95.9761 20.7529 95.9761 20.7529 95.9761C20.7529 95.9761 20.7529 95.9761 20.7529 95.9761C20.7529 95.9761 20.7529 95.9761 20.7529 95.9761C20.7529 95.9761 20.7529 95.9761 20.7529 95.9761C20.7529 95.9761 20.7529 95.9761 20.7529 95.9761C20.7529 95.9761 20.7529 95.9761 20.7529 95.9761C20.7529 95.9761 20.7529 95.9761 20.7529 95.9761C20.7529 95.9761 20.7529 95.9761 20.7529 95.9761C20.7529 95.9761 20.7529 95.9761 20.7529 95.9761C20.7529 95.9761 20.7529 95.9761 20.7529 95.9761C20.7529 95.9761 20.7529 95.9761 20.7529 95.9761C20.7529 95.9761 20.7529 95.9761 20.7529 95.9761C20.7529 95.9761 20.7529 95.9761 20.7529 95.9761C20.7529 95.9761 20.7529 95.9761 20.7529 95.9761C20.7529 95.9761 20.7529 95.9761 20.7529 95.9761C20.7529 95.9761 20.7529 95.9761 20.7529 95.9761C20.7529 95.9761 20.7529 95.9761 20.7529 95.9761C20.7529 95.9761 20.7529 95.9761 20.7529 95.9761C20.7529 95.9761 20.7529 95.9761 20.7529 95.9761C20.7529 95.9761 20.7529 95.9761 20.7529 95.9761C20.7529 95.9761 20.7529 95.9761 20.7529 95.9761C20.7529 95.9761 20.7529 95.9761 20.7529 95.9761C20.7529 95.9761 20.7529 95.9761 20.7529 95.9761C20.7529 95.9761 20.7529 95.9761 20.7529 95.9761C20.7529 95.9761 20.7529 95.9761 20.7529 95.9761C20.7529 95.9761 20.7529 95.9761 20.7529 95.9761C20.7529 95.9761 20.7529 95.9761 20.7529 95.9761C20.7529 95.9761 20.7529 95.9761 20.7529 95.9761C20.7529 95.9761 20.7529 95.9761 20.7529 95.9761C20.7529 95.9761 20.7529 95.9761 20.7529 95.9761C20.7529 95.9761 20.7529 95.9761 20.7529 95.9761C20.7529 95.9761 20.7529 95.9761 20.7529 95.9761C20.7529 95.9761 20.7529 95.9761 20.7529 95.9761C20.7529 95.9761 20.7529 95.9761 20.7529 95.9761C20.7529 95.9761 20.7529 95.9761 20.7529 95.9761C20.7529 95.9761 20.7529 95.9761 20.7529 95.9761C20.7529 95.9761 20.7529 95.9761 20.7529 95.9761C20.7529 95.9761 20.7529 95.9761 20.7529 95.9761C20.7529 95.9761 20.7529 95.9761 20.7529 95.9761C20.7529 95.9761 20.7529 95.9761 20.7529 95.9761C20.7529 95.9761 20.7529 95.9761 20.7529 95.9761C20.7529 95.9761 20.7529 95.9761 20.7529 95.9761C20.7529 95.9761 20.7529 95.9761 20.7529 95.9761C20.7529 95.9761 20.7529 95.9761 20.7529 95.9761C20.7529 95.9761 20.7529 95.9761 20.7529 95.9761C20.7529 95.9761 20.7529 95.9761 20.7529 95.9761C20.7529 95.9761 20.7529 95.9761 20.7529 95.9761C20.7529 95.9761 20.7529 95.9761 20.7529 95.9761C20.7529 95.9761 20.7529 95.9761 20.7529 95.9761C20.7529 95.9761 20.7529 95.9761 20.7529 95.9761C20.7529 95.9761 20.7529 95.9761 20.7529 95.9761C20.7529 95.9761 20.7529 95.9761 20.7529 95.9761C20.7529 95.9761 20.7529 95.9761 20.7529 95.9761C20.7529 95.9761 20.7529 95.9761 20.7529 95.9761C20.7529 95.9761 20.7529 95.9761 20.7529 95.9761C20.7529 95.9761 20.7529 95.9761 20.7529 95.9761C20.7529 95.9761 20.7529 95.9761 20.7529 95.9761C20.7529 95.9761 20.7529 95.9761 20.7529 95.9761C20.7529 95.9761 20.7529 95.9761 20.7529 95.9761C20.7529 95.9761 20.7529 95.9761 20.7529 95.9761C20.7529 95.9761 20.7529 95.9761 20.7529 95.9761C20.7529 95.9761 20.7529 95.9761 20.7529 95.9761C20.7529 95.9761 20.7529 95.9761 20.7529 95.9761C20.7529 95.9761 20.7529 95.9761 20.7529 95.9761C20.7529 95.9761 20.7529 95.9761 20.7529 95.9761C20.7529 95.9761 20.7529 95.9761 20.7529 95.9761C20.7529 95.9761 20.7529 95.9761 20.7529 95.9761C20.7529 95.9761 20.7529 95.9761 20.7529 95.9761C20.7529 95.9761 20.7529 95.9761 20.7529 95.9761C20.7529 95.9761 20.7529 95.9761 20.7529 95.9761C20.7529 95.9761 20.7529 95.9761 20.7529 95.9761C20.7529 95.9761 20.7529 95.9761 20.7529 95.9761C20.7529 95.9761 20.7529 95.9761 20.7529 95.9761C20.7529 95.9761 20.7529 95.9761 20.7529 95.9761C20.7529 95.9761 20.7529 95.9761 20.7529 95.9761C20.7529 95.9761 20.7529 95.9761 20.7529 95.9761C20.7529 95.9761 20.7529 95.9761 20.7529 95.9761C20.7529 95.9761 20.7529 95.9761 20.7529 95.9761C20.7529 95.9761 20.7529 95.9761 20.7529 95.9761C20.7529 95.9761 20.7529 95.9761 20.7529 95.9761C20.7529 95.9761 20.7529 95.9761 20.7529 95.9761C20.7529 95.9761 20.7529 95.9761 20.7529 95.9761C20.7529 95.9761 20.7529 95.9761 20.7529 95.9761C20.7529 95.9761 20.7529 95.9761 20.7529 95.9761C20.7529 95.9761 20.7529 95.9761 20.7529 95.9761C20.7529 95.9761 20.7529 95.9761 20.7529 95.9761C20.7529 95.9761 20.7529 95.9761 20.7529 95.9761C20.7529 95.9761 20.7529 95.9761 20.7529 95.9761C20.7529 95.9761 20.7529 95.9761 20.7529 95.9761C20.7529 95.9761 20.7529 95.9761 20.7529 95.9761C20.7529 95.9761 20.7529 95.9761 20.7529 95.9761C20.7529 95.9761 20.7529 95.9761 20.7529 95.9761C20.7529 95.9761 20.7529 95.9761 20.7529 95.9761C20.7529 95.9761 20.7529 95.9761 20.7529 95.9761C20.7529 95.9761 20.7529 95.9761 20.7529 95.9761C20.7529 95.9761 20.7529 95.9761 20.7529 95.9761C20.7529 95.9761 20.7529 95.9761 20.7529 95.9761C20.7529 95.9761 20.7529 95.9761 20.7529 95.9761C20.7529 95.9761 20.7529 95.9761 20.7529 95.9761C20.7529 95.9761 20.7529 95.9761 20.7529 95.9761C20.7529 95.9761 20.7529 95.9761 20.7529 95.9761C20.7529 95.9761 20.7529 95.9761 20.7529 95.9761C20.7529 95.9761 20.7529 95.9761 20.7529 95.9761C20.7529 95.9761 20.7529 95.9761 20.7529 95.9761C20.7529 95.9761 20.7529 95.9761 20.7529 95.9761C20.7529 95.9761 20.7529 95.9761 20.7529 95.9761C20.7529 95.9761 20.7529 95.9761 20.7529 95.9761C20.7529 95.9761 20.7529 95.9761 20.7529 95.9761C20.7529 95.9761 20.7529 95.9761 20.7529 95.9761C20.7529 95.9761 20.7529 95.9761 20.7529 95.9761C20.7529 95.9761 20.7529 95.9761 20.7529 95.9761C20.7529 95.9761 20.7529 95.9761 20.7529 95.9761C20.7529 95.9761 20.7529 95.9761 20.7529 95.9761C20.7529 95.9761 20.7529 95.9761 20.7529 95.9761C20.7529 95.9761 20.7529 95.9761 20.7529 95.9761C20.7529 95.9761 20.7529 95.9761 20.7529 95.9761C20.7529 95.9761 20.7529 95.9761 20.7529 95.9761C20.7529 95.9761 20.7529 95.9761 20.7529 95.9761C20.7529 95.9761 20.7529 95.9761 20.7529 95.9761C20.7529 95.9761 20.7529 95.9761 20.7529 95.9761C20.7529 95.9761 20.7529 95.9761 20.7529 95.9761C20.7529 95.9761 20.7529 95.9761 20.7529 95.9761C20.7529 95.9761 20.7529 95.9761 20.7529 95.9761C20.7529 95.9761 20.7529 95.9761 20.7529 95.9761C20.7529 95.9761 20.7529 95.9761 20.7529 95.9761C20.7529 95.9761 20.7529 95.9761 20.7529 95.9761C20.7529 95.9761 20.7529 95.9761 20.7529 95.9761C20.7529 95.9761 20.7529 95.9761 20.7529 95.9761C20.7529 95.9761 20.7529 95.9761 20.7529 95.9761C20.7529 95.9761 20.7529 95.9761 20.7529 95.9761C20.7529 95.9761 20.7529 95.9761 20.7529 95.9761C20.7529 95.9761 20.7529 95.9761 20.7529 95.9761C20.7529 95.9761 20.7529 95.9761 20.7529 95.9761C20.7529 95.9761 20.7529 95.9761 20.7529 95.9761C20.7529 95.9761 20.7529 95.9761 20.7529 95.9761C20.7529 95.9761 20.7529 95.9761 20.7529 95.9761C20.7529 95.9761 20.7529 95.9761 20.7529 95.9761C20.7529 95.9761 20.7529 95.9761 20.7529 95.9761C20.7529 95.9761 20.7529 95.9761 20.7529 95.9761C20.7529 95.9761 20.7529 95.9761 20.7529 95.9761C20.7529 95.9761 20.7529 95.9761 20.7529 95.9761C20.7529 95.9761 20.7529 95.9761 20.7529 95.9761C20.7529 95.9761 20.7529 95.9761 20.7529 95.9761C20.7529 95.9761 20.7529 95.9761 20.7529 95.9761C20.7529 95.9761 20.7529 95.9761 20.7529 95.9761C20.7529 95.9761 20.7529 95.9761 20.7529 95.9761C20.7529 95.9761 20.7529 95.9761 20.7529 95.9761C20.7529 95.9761 20.7529 95.9761 20.7529 95.9761C20.7529 95.9761 20.7529 95.9761 20.7529 95.9761C20.7529 95.9761 20.7529 95.9761 20.7529 95.9761C20.7529 95.9761 20.7529 95.9761 20.7529 95.9761C20.7529 95.9761 20.7529 95.9761 20.7529 95.9761C20.7529 95.9761 20.7529 95.9761 20.7529 95.9761C20.7529 95.9761 20.7529 95.9761 20.7529 95.9761C20.7529 95.9761 20.7529 95.9761 20.7529 95.9761C20.7529 95.9761 20.7529 95.9761 20.7529 95.9761C20.7529 95.9761 20.7529 95.9761 20.7529 95.9761C20.7529 95.9761 20.7529 95.9761 20.7529 95.9761C20.7529 95.9761 20.7529 95.9761 20.7529 95.976C20.7529 95.976 20.7529 95.976 20.7529 95.976C20.7529 95.976 20.7529 95.976 20.7529 95.976C20.7529 95.976 20.7529 95.976 20.7529 95.976C20.7529 95.976 20.7529 95.976 20.7529 95.976C20.7529 95.976 20.7529 95.976 20.7529 95.976C20.7529 95.976 20.7529 95.976 20.7529 95.976C20.7529 95.976 20.7529 95.976 20.7529 95.976C20.7529 95.976 20.7529 95.976 20.7529 95.976C20.7529 95.976 20.7529 95.976 20.7529 95.976C20.7529 95.976 20.7529 95.976 20.7529 95.976C20.7529 95.976 20.7529 95.976 20.7529 95.976C20.7529 95.976 20.7529 95.976 20.7529 95.976C20.7529 95.976 20.7529 95.976 20.7529 95.976C20.7529 95.976 20.7529 95.976 20.7529 95.976C20.7529 95.976 20.7529 95.976 20.7529 95.976C20.7529 95.976 20.7529 95.976 20.7529 95.976C20.7529 95.976 20.7529 95.976 20.7529 95.976C20.7529 95.976 20.7529 95.976 20.7529 95.976C20.7529 95.976 20.7529 95.976 20.7529 95.976C20.7529 95.976 20.7529 95.976 20.7529 95.976C20.7529 95.976 20.7529 95.976 20.7529 95.976C20.7529 95.976 20.7529 95.976 20.7529 95.976C20.7529 95.976 20.7529 95.976 20.7529 95.976C20.7529 95.976 20.7529 95.976 20.7529 95.976C20.7529 95.976 20.7529 95.976 20.7529 95.976C20.7529 95.976 20.7529 95.976 20.7529 95.976C20.7529 95.976 20.7529 95.976 20.7529 95.976C20.7529 95.976 20.7529 95.976 20.7529 95.976C20.7529 95.976 20.7529 95.976 20.7529 95.976C20.7529 95.976 20.7529 95.976 20.7529 95.976C20.7529 95.976 20.7529 95.976 20.7529 95.976C20.7529 95.976 20.7529 95.976 20.7529 95.976C20.7529 95.976 20.7529 95.976 20.7529 95.976C20.7529 95.976 20.7529 95.976 20.7529 95.976C20.7529 95.976 20.7529 95.976 20.7529 95.976C20.7529 95.976 20.7529 95.976 20.7529 95.976C20.7529 95.976 20.7529 95.976 20.7529 95.976C20.7529 95.976 20.7529 95.976 20.7529 95.976C20.7529 95.976 20.7529 95.976 20.7529 95.976C20.7529 95.976 20.7529 95.976 20.7529 95.976C20.7529 95.976 20.7529 95.976 20.7529 95.976C20.7529 95.976 20.7529 95.976 20.7529 95.976C20.7529 95.976 20.7529 95.976 20.7529 95.976C20.7529 95.976 20.7529 95.976 20.7529 95.976C20.7529 95.976 20.7529 95.976 20.7529 95.976C20.7529 95.976 20.7529 95.976 20.7529 95.976C20.7529 95.976 20.7529 95.976 20.7529 95.976C20.7529 95.976 20.7529 95.976 20.7529 95.976C20.7529 95.976 20.7529 95.976 20.7529 95.976C20.7529 95.976 20.7529 95.976 20.7529 95.976C20.7529 95.976 20.7529 95.976 20.7529 95.976C20.7529 95.976 20.7529 95.976 20.7529 95.976C20.7529 95.976 20.7529 95.976 20.7529 95.976C20.7529 95.976 20.7529 95.976 20.7529 95.976C20.7529 95.976 20.7529 95.976 20.7529 95.976C20.7529 95.976 20.7529 95.976 20.7529 95.976C20.7529 95.976 20.7529 95.976 20.7529 95.976C20.7529 95.976 20.7529 95.976 20.7529 95.976C20.7529 95.976 20.7529 95.976 20.7529 95.976C20.7529 95.976 20.7529 95.976 20.7529 95.976C20.7529 95.976 20.7529 95.976 20.7529 95.976C20.7529 95.976 20.7529 95.976 20.7529 95.976C20.7529 95.976 20.7529 95.976 20.7529 95.976C20.7529 95.976 20.7529 95.976 20.7529 95.976C20.7529 95.976 20.7529 95.976 20.7529 95.976C20.7529 95.976 20.7529 95.976 20.7529 95.976C20.7529 95.976 20.7529 95.976 20.7529 95.976C20.7529 95.976 20.7529 95.976 20.7529 95.976C20.7529 95.976 20.7529 95.976 20.7529 95.976C20.7529 95.976 20.7529 95.976 20.7529 95.976C20.7529 95.976 20.7529 95.976 20.7529 95.976C20.7529 95.976 20.7529 95.976 20.7529 95.976C20.7529 95.976 20.7529 95.976 20.7529 95.976C20.7529 95.976 20.7529 95.976 20.7529 95.976C20.7529 95.976 20.7529 95.976 20.7529 95.976C20.7529 95.976 20.7529 95.976 20.7529 95.976C20.7529 95.976 20.7529 95.976 20.7529 95.976C20.7529 95.976 20.7529 95.976 20.7529 95.976C20.7529 95.976 20.7529 95.976 20.7529 95.976C20.7529 95.976 20.7529 95.976 20.7529 95.976C20.7529 95.976 20.7529 95.976 20.7529 95.976C20.7529 95.976 20.7529 95.976 20.7529 95.976C20.7529 95.976 20.7529 95.976 20.7529 95.976C20.7529 95.976 20.7529 95.976 20.7529 95.976C20.7529 95.976 20.7529 95.976 20.7529 95.976C20.7529 95.976 20.7529 95.976 20.7529 95.976C20.7529 95.976 20.7529 95.976 20.7529 95.976C20.7529 95.976 20.7529 95.976 20.7529 95.976C20.7529 95.976 20.7529 95.976 20.7529 95.976C20.7529 95.976 20.7529 95.976 20.7529 95.976C20.7529 95.976 20.7529 95.976 20.7529 95.976C20.7529 95.976 20.7529 95.976 20.7529 95.976C20.7529 95.976 20.7529 95.976 20.7529 95.976H16.7529ZM118.039 93.9762H18.7529V97.9762H118.039V93.9762ZM116.039 95.976V95.9762H120.039V95.976H116.039ZM136.793 75.2221C125.331 75.2221 116.039 84.5139 116.039 95.976H120.039C120.039 86.7231 127.54 79.2221 136.793 79.2221V75.2221ZM139.233 75.3642C138.432 75.2703 137.617 75.2221 136.793 75.2221V79.2221C137.461 79.2221 138.12 79.2612 138.767 79.337L139.233 75.3642ZM137 18.4633V77.3506H141V18.4633H137Z" fill="black" mask="url(#path-1-inside-1_18_139)"/>
</svg>
