<svg width="178" height="55" viewBox="0 0 178 55" fill="none" xmlns="http://www.w3.org/2000/svg">
<path d="M173.52 1H4.48023C2.55815 1 1 3.59535 1 6.79688V48.2031C1 51.4047 2.55815 54 4.48023 54H173.52C175.442 54 177 51.4047 177 48.2031V6.79688C177 3.59535 175.442 1 173.52 1Z" stroke="black"/>
<path d="M172.868 1.83105H131.54C129.584 1.83105 127.998 4.06299 127.998 6.81622V48.3593C127.998 51.1125 129.584 53.3445 131.54 53.3445H172.868C174.825 53.3445 176.41 51.1125 176.41 48.3593V6.81622C176.41 4.06299 174.825 1.83105 172.868 1.83105Z" stroke="black" stroke-width="2"/>
</svg>
