<svg width="148" height="59" viewBox="0 0 148 59" fill="none" xmlns="http://www.w3.org/2000/svg">
<path d="M93.2261 54.4203L93.1733 54.408H93.119H29.2158C25.5151 54.408 21.8234 54.773 18.1945 55.4976L6.08419 57.9158C3.32824 58.4662 0.805713 56.2421 1.01181 53.4435L2.91753 27.567L2.92025 27.5301L2.91717 27.4932L1.27104 7.77096C0.935921 3.75598 4.50522 0.515619 8.47671 1.22935L23.6142 3.94978L23.6558 3.95724H23.6979H59.1169H93.119H93.168L93.2158 3.94725L106.878 1.09228C109.776 0.486612 112.391 2.95155 111.952 5.87529L109.084 24.9612C108.829 26.6642 108.814 28.3945 109.04 30.1017L111.884 51.5511C112.36 55.144 109.093 58.1043 105.556 57.2834L93.2261 54.4203Z" stroke="black"/>
<path d="M104 29.3563C104 29.3563 111.345 26.9702 116.422 28.5278C121.039 29.9443 122.633 33.0848 128.844 33.9133C135.056 34.7419 147 29.3563 147 29.3563" stroke="black" stroke-linecap="round"/>
</svg>
