<svg width="151" height="60" viewBox="0 0 151 60" fill="none" xmlns="http://www.w3.org/2000/svg">
<path d="M132.675 30.219L132.181 31.7286L133.761 31.9346C138.496 32.5524 142.598 34.3139 145.488 36.7311C148.375 39.1457 150 42.1582 150 45.3449C150 48.7665 148.124 51.9932 144.824 54.4862C141.525 56.9791 136.877 58.6665 131.612 58.9523L130.733 59H24.9975L23.6893 58.9064C17.1967 58.4421 11.4759 56.2849 7.40913 53.1389C3.34296 49.9934 1 45.9277 1 41.5864C1 34.101 8.08006 27.33 18.607 25.0027L19.9199 24.7124L19.6068 23.4088C19.4494 22.7535 19.3648 22.0891 19.3648 21.4159C19.3648 18.1715 21.2334 15.1035 24.5197 12.7932C27.8025 10.4854 32.4071 9.01639 37.5555 9.01639C41.5918 9.01639 45.2987 9.92321 48.2993 11.4327L49.1542 11.8628L49.8309 11.1874C55.9461 5.08473 66.1694 1 77.862 1C94.7166 1 108.291 9.42538 111.308 20.0239L111.715 21.4556L113.092 20.8796C115.072 20.0508 117.408 19.565 119.922 19.565C123.653 19.565 126.974 20.6301 129.328 22.2849C131.684 23.942 132.979 26.1078 132.979 28.3554C132.979 28.9893 132.874 29.6114 132.675 30.219Z" stroke="black"/>
</svg>
