<svg width="113" height="49" viewBox="0 0 113 49" fill="none" xmlns="http://www.w3.org/2000/svg">
<path d="M61.9146 24.2478C61.9146 29.4237 57.1978 33.6645 51.3209 33.6645C45.4439 33.6645 40.7271 29.4237 40.7271 24.2478C40.7271 19.0718 45.4439 14.8311 51.3209 14.8311C57.1978 14.8311 61.9146 19.0718 61.9146 24.2478Z" stroke="black" stroke-width="0.470833"/>
<rect x="83.5729" y="0.235417" width="29.1917" height="10.3583" stroke="black" stroke-width="0.470833"/>
<rect x="0.235417" y="0.235417" width="19.3042" height="10.3583" stroke="black" stroke-width="0.470833"/>
<rect x="0.235417" y="12.4769" width="19.3042" height="10.3583" stroke="black" stroke-width="0.470833"/>
<rect x="0.235417" y="25.6602" width="19.3042" height="10.3583" stroke="black" stroke-width="0.470833"/>
<rect x="0.235417" y="38.3729" width="19.3042" height="10.3583" stroke="black" stroke-width="0.470833"/>
<rect x="83.5729" y="12.9478" width="29.1917" height="10.3583" stroke="black" stroke-width="0.470833"/>
<rect x="83.5729" y="25.6602" width="29.1917" height="10.3583" stroke="black" stroke-width="0.470833"/>
<rect x="83.5729" y="38.3729" width="29.1917" height="10.3583" stroke="black" stroke-width="0.470833"/>
<line x1="56.9708" y1="16.2436" x2="64.0333" y2="16.2436" stroke="black" stroke-width="0.470833"/>
<line y1="-0.235417" x2="7.0625" y2="-0.235417" transform="matrix(1 -8.74228e-08 -8.74228e-08 -1 56.9708 32.0166)" stroke="black" stroke-width="0.470833"/>
<line x1="61.6792" y1="23.777" x2="69.6834" y2="23.777" stroke="black" stroke-width="0.470833"/>
<line x1="61.6792" y1="25.1894" x2="70.1542" y2="25.1894" stroke="black" stroke-width="0.470833"/>
<line x1="63.7979" y1="16.479" x2="63.7979" y2="5.179" stroke="black" stroke-width="0.470833"/>
<line y1="-0.235417" x2="11.3" y2="-0.235417" transform="matrix(-4.37114e-08 1 1 4.37114e-08 64.0333 32.0166)" stroke="black" stroke-width="0.470833"/>
<line x1="69.9188" y1="24.0125" x2="69.9188" y2="18.3625" stroke="black" stroke-width="0.470833"/>
<line x1="69.9188" y1="30.604" x2="69.9188" y2="24.954" stroke="black" stroke-width="0.470833"/>
<line x1="63.5625" y1="5.41449" x2="83.3375" y2="5.41449" stroke="black" stroke-width="0.470833"/>
<line y1="-0.235417" x2="19.775" y2="-0.235417" transform="matrix(1 0 0 -1 63.5625 42.8457)" stroke="black" stroke-width="0.470833"/>
<line x1="70.1542" y1="18.5978" x2="83.3375" y2="18.5978" stroke="black" stroke-width="0.470833"/>
<line x1="70.1542" y1="30.3686" x2="83.3375" y2="30.3686" stroke="black" stroke-width="0.470833"/>
<path d="M19.775 43.3166C19.775 43.3166 26.9003 36.488 32.4875 36.7249C35.4795 36.8518 36.8595 39.717 39.7854 39.0791C43.0254 38.3727 45.6709 32.9583 45.6709 32.9583" stroke="black" stroke-width="0.470833"/>
<path d="M19.3042 32.4873C19.3042 32.4873 25.3931 29.073 30.1676 29.1914C32.7244 29.2549 33.9037 30.6875 36.404 30.3685C39.1727 30.0153 41.4334 27.3081 41.4334 27.3081" stroke="black" stroke-width="0.470833"/>
<path d="M19.3042 18.8333C19.3042 18.8333 25.2635 21.6268 29.9365 21.5299C32.4388 21.478 33.5931 20.3059 36.0402 20.5668C38.75 20.8558 40.9625 23.0708 40.9625 23.0708" stroke="black" stroke-width="0.470833"/>
<path d="M19.775 6.59157C19.775 6.59157 25.7343 9.38507 30.4073 9.28816C32.9096 9.23627 34.0639 8.06413 36.511 8.32509C39.2208 8.61407 45.2 16.2437 45.2 16.2437" stroke="black" stroke-width="0.470833"/>
</svg>
