<?xml version="1.0" encoding="UTF-8"?>
<svg id="Layer_2" data-name="Layer 2" xmlns="http://www.w3.org/2000/svg" viewBox="0 0 154.37 156.22">
  <defs>
    <style>
      .cls-1 {
        fill: #fff;
      }
    </style>
  </defs>
  <g id="Layer_1-2" data-name="Layer 1">
    <path d="M71.2,17.15c-3.72,2.42-7.45,4.84-11.17,7.26,.1,.27,.19,.55,.29,.82h5.99c-2.88,4.65-5.38,8.7-7.85,12.7,2.98-.34,5.49-.64,8.54-.99-4.2,6.07-7.71,11.93-7.5,19.38,1.71-2.44,3.42-4.88,5.61-8.01,.35,4.27-2.9,8.69,2.47,10.95-.5,3.12,.48,4.69,3.7,6.18,.48,.22,.5,1.43,.73,2.19-.33,.19-.65,.38-.98,.57-1.46-1.9-2.92-3.81-4.36-5.69-6.48,6.19-5.47,10.62-1.7,16.68,1.11-2.62,2.15-5.08,3.12-7.37,2.9,6.72,5.81,13.46,8.73,20.2l1.52-.23c.28-3.06,1.11-6.2,.71-9.17-.5-3.75,.28-6.62,3.55-8.83-.29,.67-.5,1.41-.89,2.01-1.79,2.74-3.28,5.28-1.1,8.75,.99,1.56,.15,4.22,1.04,5.91,1.73,3.29,4.1,6.25,6.27,9.44,2.44-2.43,1.36-4.86,.99-7.21l-.06,.06c1.64,1.88,3.29,3.76,4.93,5.65-4.04-1.11-4.59,1.46-4.36,5.54-3.71-4.87-6.78-8.91-9.86-12.95-.18,.09-.37,.18-.55,.27,.11,1.47,.23,2.93,.34,4.4-.21,.11-.43,.22-.64,.32-2.3-3.49-4.61-6.98-6.99-10.58-2.38,1.52-2.24,3.4-1.41,5.47,2.21,5.52,2.86,11.25,3.16,17.18,.28,5.7,1.72,11.34,2.55,17.02,.51,3.52,.84,7.07,1.21,10.62,.16,1.55,.21,3.11,.31,4.58,2.56-.17,4.56-.3,6.57-.43-6.5,1.96-8.33,5.5-8.7,8.74-.25,2.17,.04,4.28,2.41,5.11,2.5,.87,3.79-.63,4.16-2.4,.81,.91,1.55,2.56,2.6,2.79,3.58,.79,3.04-2.65,3.54-3.98,.75,1.2,1.39,3.48,2.48,3.72,2.9,.63,3.02-2.15,3.6-4.69,.1,.98,.04,1.43,.2,1.78,.46,.97,1.02,1.89,1.54,2.84,.59-1.04,1.65-2.06,1.69-3.11,.15-4.09-2.52-6.82-5.72-8.37-2.79-1.35-2.38-2.75-2-5.11,.45-2.85,.56-5.92,0-8.74-1.37-6.97-1.85-13.8,.65-20.62,1.15-3.13,2.07-6.35,3.1-9.52,2.62,2.98,3.06,2.88,5.33-.31,.93-1.31,2.35-2.28,3.54-3.4,0,0-.06-.05-.06-.05-.48,.81-.93,1.65-1.45,2.42-.69,1.02-1.45,1.99-2.59,3.56,4.74-.22,7.77-2.12,10.64-4.48,3.51-2.87,2.71-6.44,1.65-10.14,4.15,4.25,2.86,9.23,1.89,14.78,6.34-2.86,9.72-7.66,11.17-13.17,1.43-5.42,1.24-11.27,1.79-17.13,.29,.92,.81,1.87,.87,2.85,.2,3.79,.16,7.6,.42,11.38,.1,1.41,.61,2.84,1.2,4.15,1.34,2.99,2.73,1.94,4.09-.06,4.04-5.94,5.49-12.51,4.93-19.61-.26-3.24-1.87-5.71-3.95-8.08-1.41-1.61-2.41-3.57-3.43-5.51,9.36,7.65,11.43,17.64,9.26,29.1,5.06-8.91,3.96-18.36,3.89-27.92,1.35,4.55,2.69,9.1,4.04,13.66,.37-.08,.73-.16,1.1-.24,3.07-4.84-.1-10.06,.5-15.41,1.17,.61,2.05,1.07,3.43,1.78-1.64-7.7-5.44-13.73-9.85-19.47,.16-.21,.32-.42,.48-.63l6.74,2.62c-2.68-4.95-5.77-9.24-10.66-11.91-2.62-1.43-5-3.28-7.62-4.7-2.6-1.41-5.37-2.5-7.98-3.69,4.04,.06,7.63,1.39,10.77,4.21,2.06,1.84,4.38,2.94,7.31,1.34,1.03-.56,2.56-.21,4.22-.3-1.63-2.92-4.94-2.8-7.27-4.23-.75-.46-1.78-.47-2.68-.68-4.89-1.11-5.56-2.39-3.79-7.36,.17,.05,.47,.1,.47,.15-.03,3.93,1.93,5.15,5.8,5.62,5.8,.71,9.35,5.2,13.17,9.78-3.55-.3-6.35-3.96-9.78-.92,2.42,2.3,4.95,4.24,6.88,6.66,1.9,2.39,3.19,5.27,4.75,7.93-.27,.23-.54,.47-.81,.7-1.51-.65-3.03-1.3-5.44-2.34,4.34,6.58,7.51,12.67,7.73,20.19-.9-.44-1.53-.69-2.1-1.03-.57-.34-1.09-.76-2.39-1.68,2.02,8.07,1.35,15.09-2.45,22.47-.55-3.01-.96-5.31-1.38-7.61-.29-.03-.57-.07-.86-.1-.4,6.62-2.14,12.72-6.58,18.42-.73-1.85-1.29-3.28-1.93-4.93-2.65,3.51-4.04,8.15-8.92,9.49-.57-2.05-1.06-3.77-1.54-5.5-.3-.05-.59-.09-.89-.14-1.54,3.49-3,7.02-4.65,10.46-1.41,2.95-3.07,5.77-4.56,8.68-1.11,2.16-2.19,4.35-3.17,6.57-1.39,3.17-2.43,6.52-4.06,9.55-1.77,3.31-2.52,6.7-2.23,10.38,.21,2.61,1.17,3.83,4.18,3.21,4.55-.94,7.82,.88,9.09,4.44,1.64,4.64-.8,8.21-5.91,8.31-2.81,.06-5.45-.36-8.28,1.09-1.38,.7-3.98-.99-6.23-1.65-.04,.6-.1,1.48-.17,2.35-.18,2.58-1.65,3.57-4.12,3.47-1.09-.05-2.19,.16-3.28,.16-3.25,0-6.5-.05-9.74-.07-.71,0-1.46-.12-2.12,.07-2.57,.75-5.25,.37-6.05-2.1-.78-2.41-.87-5.55,.02-7.88,.91-2.39,1.66-4.39,1.66-7.12,.01-6.86-2.65-13.07-3.68-19.62-.84-5.35-.47-10.88-.68-16.33-.05-1.22-.28-2.44-.43-3.66-.42-.11-.83-.22-1.25-.33-1.4,2.36-2.75,4.75-4.23,7.07-1.41,2.22-2.62,4.73-4.51,6.44-3.51,3.17-6.06,6.51-6.16,11.52-.05,2.65-1.76,5.09-.08,8.01,1.24,2.15,2.46,2.72,4.66,2.17,7.81-1.93,10.58,3.83,10.03,9.52-.26,2.7-2.81,4.05-5.35,3.25-.84-.26-1.89,.19-2.85,.25-3.67,.26-7.35,.55-11.03,.67-.5,.02-1.02-.89-1.48-1.32-5.04,3.12-10.3,4.34-16.23,3.46-3.11-.46-5.85-.63-6.91-4.22-.88-3.02-.19-5.64,1.44-8.2,.52-.82,.82-1.93,.83-2.91,.07-4.74,.03-9.48-.01-14.22,0-.92,.02-1.96-.39-2.73-1.69-3.22-1.68-5.98,1.51-8.33,.43-.31,.53-1.49,.35-2.14-1.49-5.42-3.65-10.73-4.48-16.24-.62-4.16,.39-8.57,.7-12.86,.16-2.15,.37-4.3,.55-6.33-2.79-.75-5.48-1.2-7.97-2.18-10.59-4.18-11.33-21.33-2.73-28.17,2.24-1.78,4.61-3.47,6.54-5.55,3.09-3.31,2.71-5.83-.1-10.61-1.94-3.3-3.1-6.76-8.14-4.05-.96,.52-3.68-1.1-4.88-2.38-2.79-2.98-5.33-6.23-7.61-9.61C-.19,7.11-.41,4.6,.75,2.2c4.45,4.5,10.24,5.51,15.82,6.49,5.47,.96,7.09,2.26,7.19,7.84,.01,.79,.77,1.81,1.48,2.3,4.23,2.94,6.85,7.12,8.29,11.84,1.33,4.35-1.58,7.5-4.38,10.49-3.43,3.67-6.62,7.54-7.95,12.56-1.11,4.17,1.51,8.05,5.14,7.22,1.35-.31,2.79-1.68,3.52-2.96,4.55-7.96,13.72-14.96,24.43-12.93,1.68,.32,3.3,.97,5.35,1.59,1.25-2.21,2.58-4.58,3.91-6.94l-.91-1.04c-2.04,1.17-4.08,2.33-6.49,3.71-.21-6.1,3.24-10.56,7.3-15.86-3.1,.78-5.35,1.36-7.94,2.01,1.45-5.11,6.14-7.12,10.26-10.47-2.46-.34-4.31-.59-6.65-.91,4.93-6.97,11.56-8.85,19.3-8.29,0-.27,0-.54,0-.81-1.6-.65-3.2-1.3-4.8-1.95,.11-.29,.23-.58,.34-.87,2.97,1.14,5.94,2.28,8.92,3.43-.03,.3-.06,.6-.08,.89-7.27,0-14.19,1.06-19.8,5.91,.06,.35,.12,.7,.18,1.04,2.07-.17,4.15-.33,6.22-.51,.94-.08,2.28-.78,1.73,1.23,0,0,.09-.07,.09-.07Zm-15.77,70.69c-2.66-2.27-5.55-3.49-5.26-7.01,1.79,1.41,3.25,3.09,5.08,3.89,4.39,1.92,8.96,3.42,13.48,5.09,1.45-3.89,3.08-8.11-.56-12.3-1.07,1.49-2.14,2.98-3.4,4.72-1.14-2.07-2.19-3.6-2.87-5.29-1.64-4.08-2.09-8.38,.41-12.15,2.13-3.19,1.9-5.91-.12-9.37-1.35,2.02-2.49,3.74-3.63,5.45-.82-3.46-1.01-6.82,.31-10.11,.87-2.16,.31-3.14-2.13-3.49-8.52-1.21-15.32,1.65-21.34,7.71-5.12,5.15-7.35,11.12-7.46,18.17-.04,2.78-.25,5.56-.57,8.32-1.07,9.4,.66,18.36,3.46,27.06-.68,2.44-1.16,4.93-1.24,7.43-.07,2.36,.43,4.73,.41,7.09-.02,2.98-.93,6.09-.33,8.91,.72,3.41,.54,6.08-1.58,8.94-.72,.97-.22,3.11,.22,4.55,.17,.55,2.34,1.17,2.59,.89,.82-.95,1.17-2.29,1.61-3.27-.27,1.99,.32,4.16,2.98,4,3.27-.2,1.85-3.28,2.48-5.36,.52,2.13-.65,5.08,2.34,5.43,1.09,.13,2.41-1.67,3.32-2.37,.19,1.59,1.43,1.72,2.57,.06,.7-1.02,1.05-2.75,.71-3.93-.58-2.04-2.1-3.72-4.5-3.43-2.99,.36-4-1.56-4.66-3.76-.47-1.55-.78-3.29-.56-4.87,.62-4.44,1.61-8.82,2.32-13.25,.24-1.47-.06-3.03,.16-4.51,.18-1.2,.4-2.88,1.21-3.42,4.01-2.66,5.87-6.55,7.46-10.88,1.29-3.54,1.94-7.78,7.12-8.96Zm-2.77,47.92c.13-1.6,.47-2.92,.3-4.18-1.02-7.78-.91-15.12,6.05-20.62,1.72-1.36,3.32-3.22,4.19-5.2,1.36-3.1,2.27-6.34,6.01-8.13-6.71-2.92-12.67-2.71-17.89,1.91-2.71,2.39-4.7,5.58-7.36,8.04-2.22,2.05-2.32,3.99-1.25,6.56,2.23,5.35,3.52,10.84,2.81,16.79-.24,2,.98,4.21,1.66,6.29,.63,1.92,1.68,3.72,2.07,5.67,.57,2.84,1.48,3.83,4.34,3.27,1.44-.28,2.78-1.09,4.07-1.61,1.8,1.88,3.34,.69,4.24-.3,1.78,.45,3.03,1,4.27,.96,.51-.02,1.26-1.26,1.41-2.03,.74-3.8-2.35-7.41-6.18-7.4-3.12,0-6.24,0-8.75,0Zm61.52-28.62c-6.22,2.61-11.42,1.85-17-.89,0,2.48-.06,4.3,.02,6.12,.07,1.53,.59,3.1,.4,4.58-.77,6.1-1.22,12.32-2.81,18.22-1.12,4.18,.11,6.72,2.69,9.54,4.37,4.76,8.2,5.77,12.58,3.39,1.19,.62,2.57,1.32,3.67,1.02,3.54-.98,5.23-3.15,4.71-5.37-.73-3.1-4.15-5.09-7.31-4.6-3.67,.57-7.4,.83-11.1,1.22,4.25-1.1,5.08-1.97,4.95-6.2-.17-5.32,1.61-10.05,3.88-14.73,1.81-3.74,3.31-7.62,5.32-12.32ZM2.87,6.61c-.31,.29-.62,.57-.93,.86,1.08,1.47,2.09,3,3.25,4.41,.91,1.09,2.35,1.86,2.94,3.08,1.76,3.63,4.6,4.77,8.29,4.08,2.9-.54,4.25,.97,5.3,3.3,.75,1.67,1.54,3.37,2.63,4.82,1.93,2.56,1.71,5-.12,7.33-1.77,2.25-3.69,4.39-5.71,6.41-4.35,4.37-7.47,9.17-6.89,15.75,.66,7.51,7.45,13.29,14.5,12.01,.44-1.68,.89-3.38,1.22-4.62-1.89,0-3.86,.61-4.9-.12-2.75-1.93-4.72-4.73-3.91-8.37,.59-2.68,1.29-5.51,2.73-7.77,2.23-3.5,5.31-6.46,7.69-9.88,1.21-1.74,2.61-4.2,2.26-6.01-.92-4.75-3.23-9.17-7.13-12.21-1.57-1.22-2.16-2.25-1.93-3.99,.32-2.38-.51-4.08-2.88-4.73-5.46-1.49-10.95-2.89-16.42-4.33ZM91.16,139.93c.49,.07,.98,.14,1.48,.22,.37-2.23,.74-4.46,1.13-6.69,.93-5.3-.23-10.92,2.49-15.98,.36-.68,.19-1.85-.12-2.64-1.36-3.53-1.42-6.99-.01-10.53,.29-.73,.04-1.66,.04-2.5-4.15,5.36-6.2,11.13-5.63,17.63,.48,5.58,2.36,11.08,.96,16.78-.29,1.19-.23,2.47-.33,3.71Zm-49.73-23.6c-1.71,6.19-2.6,11.87-1.67,17.72,.4,2.5,2.37,2.34,4.41,2.19-1.11-6.49,.57-13.19-2.74-19.91Z"/>
    <path class="cls-1" d="M93.69,98.32c-1.03,3.18-1.96,6.39-3.1,9.52-2.5,6.82-2.02,13.65-.65,20.62,.55,2.82,.45,5.89,0,8.74-.37,2.35-.79,3.75,2,5.11,3.21,1.55,5.88,4.29,5.72,8.37-.04,1.06-1.1,2.08-1.69,3.11-.52-.94-1.08-1.87-1.54-2.84-.17-.35-.1-.81-.2-1.78-.58,2.54-.7,5.32-3.6,4.69-1.09-.24-1.73-2.52-2.48-3.72-.5,1.32,.04,4.77-3.54,3.98-1.05-.23-1.79-1.88-2.6-2.79-.37,1.77-1.66,3.27-4.16,2.4-2.38-.82-2.66-2.94-2.41-5.11,.37-3.24,2.19-6.78,8.7-8.74-2,.13-4.01,.26-6.57,.43-.1-1.47-.15-3.03-.31-4.58-.37-3.54-.7-7.09-1.21-10.62-.82-5.68-2.27-11.32-2.55-17.02-.3-5.93-.95-11.67-3.16-17.18-.83-2.07-.97-3.95,1.41-5.47,2.38,3.6,4.68,7.09,6.99,10.58,.21-.11,.43-.22,.64-.32-.11-1.47-.23-2.93-.34-4.4,.18-.09,.37-.18,.55-.27,3.07,4.04,6.15,8.08,9.86,12.95-.23-4.09,.32-6.65,4.36-5.54,0,0-.1-.1-.1-.1Z"/>
    <path d="M71.11,17.21c3.2-.52,6.51-1.71,8.87,1.97,.26,.41,1.69,.13,2.57,.08,1.19-.07,2.38-.23,3.58-.34,.06,.5,.08,.69,.11,.88-2.51-1-5.08,3-7.71-.31-1.63-2.06-3.95-2.11-6.4-.77-2.03,1.11-2.64,2.61-2.62,4.77,.03,2.87,1.88,4.35,4.15,5.09,.94,.31,2.81-.37,3.38-1.2,.67-.98,.74-2.71,.38-3.91-.16-.54-1.99-.58-3.07-.83-.27-.06-.56-.05-.94-.09,1.75-1.46,4.4-1.82,4.99-.4,.66,1.59,.91,3.88,.23,5.35-.69,1.48-2.68,2.42-4.21,3.44-2.58,1.73-2.4,4.31-2.3,6.87,.07,1.9,.32,3.92,2.58,4.38,1.41,.29,2.95-.17,4.42-.05,1.61,.14,3.52,.11,4.73,.96,1.54,1.09,1.47,2.84-.56,3.84-1.01,.5-2.15,.79-3.1,1.38-2,1.25-1.82,3.85,.34,4.84,3.94,1.81,7.96,1.95,11.87-.05,3.92-2,4.17-3.86,1.07-6.97,.89-.78,1.78-1.56,2.64-2.31,.42,1.47,.91,2.92,1.22,4.4,.49,2.33-.08,4.56-2.25,5.57-4.8,2.23-9.61,4.58-15.06,1.23-3.13-1.92-5.43-.19-5.39,3.37,.02,1.64-.54,3.28-.83,4.91-.29-.05-.58-.09-.87-.14,.13-.93,.47-1.9,.34-2.8-.36-2.58,.28-5.26-2.3-7.46-2.51-2.14-2.24-6.96-.39-10.37,.54-1,.73-2.27,.77-3.43,.1-2.91,.03-5.83,.03-9.26-4.34-3.34-5.41-7.7-.17-12.73,0,0-.09,.06-.09,.06Zm.55,30.14l-1.12,.93c1.05,1.49,2.04,3.04,3.22,4.42,.23,.26,1.33-.02,1.87-.34,.21-.12,.18-1.23-.12-1.53-1.21-1.24-2.56-2.34-3.85-3.49Z"/>
    <path d="M102.45,16.06c4.96-2.38,9.92-4.77,15.13-7.27-2.73-2.33-6.33-2.54-9.88-1.56-3.36,.92-6.55,2.5-9.54,3.68,1.56-2.06,3.02-4.3,4.81-6.22,.8-.86,2.23-1.25,3.45-1.57,1.05-.28,2.21-.15,3.57-.21-3.26-2.15-9.02-1.68-12.47,.95-1.78,1.35-3.5,2.8-5.07,4.39-1.65,1.67-2.95,1.48-4.72,.1-3.99-3.11-8.2-5.96-13.7-4.71-2.29,.52-4.52,1.31-6.78,1.94-.26,.07-.59-.08-.93-.13,4.84-4.53,13.32-4.78,18.44-1.41,.34,.22,.59,.57,.93,.77,4.51,2.69,4.75,2.47,9.08-.82,6.39-4.84,10.34-5,16.79-1.96,.4,.19,.67,.67,1.37,1.41-3.64,.24-7.15-.36-9.72,2.88,.7,.17,1.25,.51,1.58,.36,5.6-2.58,10.79-.7,16.09,1.15,1.68,.59,3.8,.58,5.55,.16,4.22-1.02,6.55-.96,8.96,1.16-8.99-.56-16.92,2.66-25.23,4.05,.03,.35,.06,.7,.08,1.06,2.05,.39,4.1,.79,6.14,1.18-.04,.26-.07,.52-.11,.78-4.65-1.9-9.09-.65-13.5,1-.11-.38-.23-.77-.34-1.15Z"/>
    <path d="M94.74,59.53c1.13-1.92,2.23-3.86,3.4-5.76,1.04-1.69,1.9-3.05,4.49-3.38,3.71-.48,5.13-5.25,3.66-10.33,3.38,3.57,1.67,7.72,1.41,11.53-.16,2.25-1.28,4.53-2.37,6.58-2.2,4.13-3.18,8.4-2.33,13.06-3.11-6.45,.78-12.13,2.23-18.25-3.24,1.33-6.16,6.29-7.5,11.83-1.12,4.62-.95,9.55-1.31,13.89-1.4-1.96-1.99-8.04-.48-12.69,1.4-4.31,3.27-8.47,4.86-12.52-1.91,1.85-4.02,3.9-6.13,5.95,0,0,.07,.07,.07,.07Z"/>
    <path d="M96,39.15c-3.1,2.07-5.83,1.59-9.26-.06,.74-2.34,.85-5.29,2.37-6.83,1.66-1.68,4.64-2.05,7.05-2.99,.27,.38,.54,.77,.8,1.15-.9,.28-1.79,.55-2.69,.83l.56,.86c.94,.5,1.87,1.01,3.81,2.06-2.33,1.36-3.98,2.53-5.8,3.28-.5,.21-1.51-.83-2.49-1.41,1.01-.86,1.63-1.38,2.25-1.9-.07-.27-.15-.55-.22-.82-.92,.12-2.24-.08-2.67,.44-.56,.68-.73,2.02-.5,2.94,.92,3.79,4.1,1.77,6.78,2.45Z"/>
    <path d="M101.11,24.59c-1.37-4.52-4.69-3.64-8.4-3.78,1.33-1.47,2.2-2.43,2.71-3,2.03,1.14,3.77,2.11,5.46,3.06,5.23-4.42,10.2-4.82,13.69-1.21,3.06,3.16,3.15,7.94-.11,11.23,.77-4.83,1.69-9.69-4.08-11.57-4.16-1.36-6.64,.1-9.28,5.27Z"/>
    <path d="M106.25,73.63c-2.25-4.74-.88-8.9,1.96-12.78,2.72-3.71,4.93-7.67,4.5-12.42-.21-2.36-1.22-4.65-1.88-7.02,2.79,1.69,4.5,7.07,3.04,10.53-1.42,3.37-3.12,6.65-4.98,9.8-1.83,3.11-3.07,6.25-2.51,9.92,.1,.63-.08,1.3-.14,1.96Z"/>
    <path d="M111.16,28.42c-.18-.38-.28-.55-.33-.72-.43-1.45-.85-2.9-1.27-4.36-.99,.32-2.55,.36-2.86,1.01-.72,1.51-1.5,3.52-1.04,4.92,.59,1.81,2.37,3.23,3.4,5.3-1.01-.66-2.15-1.19-3.02-2-3.28-3.07-3.53-6.65-.77-9.4,1.79-1.78,4.47-1.99,6.06-.35,1.77,1.83,1.69,3.68-.17,5.6Z"/>
    <path d="M94.66,59.46c-1.68,1.17-3.58,1.86-3.59,4.72,0,1.33-2.25,2.66-3.88,4.42-.74-1.14-1.29-1.99-1.73-2.67-2.15,.32-3.27,3.96-5.77,1.37,3.64,.47,4.29-2.42,5.53-4.78,.7,1.27,1.36,2.46,2.11,3.82,2.92-1.67,1.84-4.46,2.44-6.83,1.61,0,3.28,0,4.95,0,0,0-.06-.07-.06-.07Z"/>
    <path d="M120.43,63.7c-3.18-2.8-4.21-7.08-1.48-10.24,4.33-5.03,3.71-9.46-.54-14.34,4.11,1.42,6.27,7.97,3.68,11.36-2.83,3.7-3.81,7.29-1.83,11.58,.2,.42,.11,.98,.17,1.63Z"/>
    <path d="M127.47,31.57c2.22,1.93,4.32,4.03,6.69,5.76,2.08,1.52,4.38,2.83,6.74,3.89,2.78,1.24,4.46,3.25,5.83,6.66-.93-.48-1.37-.55-1.49-.79-1.65-3.1-4.81-4.05-7.54-5.78-3.95-2.51-7.38-5.83-11.03-8.8,.27-.31,.53-.62,.8-.93Z"/>
    <path d="M119.57,30.5c.94,1.43,1.97,2.41,2.3,3.59,1.05,3.77,4.02,5.35,7.05,7.16,2.18,1.3,3.97,3.26,5.54,5.34-5.67-4.5-13.59-6.88-14.88-16.09Z"/>
    <path d="M74.54,36.58c1.39-1.37,2.02-1.99,2.64-2.6-.78-.29-1.56-.58-2.41-.89,1.35-1.15,2.83-2.01,4.45-.08,1.44,1.71,1.22,5.73-.42,5.9-1.27,.13-2.71-1.41-4.27-2.32Z"/>
    <path d="M113.11,65.17c2.1,3.92,3.81,7.27,5.68,10.52,1.93,3.36,1.52,6.37-1.26,9.3,3.89-6.55-2.16-10.67-3.53-15.93-.29-1.13-.52-2.27-.89-3.89Z"/>
    <path d="M88.93,92.72c-3.26-3.19-3.58-6.77-1.43-11.04,1.54-3.05,2.67-6.3,4.23-10.07-.42,2.59-.19,5.01-1.2,6.66-2.71,4.4-4.1,8.7-1.59,13.6,.12,.23-.04,.6-.07,.9,0,0,.06-.05,.06-.05Z"/>
    <path d="M103.98,13.39c-3.44,.59-6.88,1.18-11.03,1.9,3.65-2.74,7.1-3.29,10.82-2.79,.07,.3,.15,.59,.22,.89Z"/>
    <path d="M102.57,94.62c.37-3.49,.74-6.98,1.09-10.31,2.29,3.41,1.85,7.92-1.14,10.26,0,0,.06,.05,.06,.05Z"/>
    <path d="M121.42,22.78c4.94-.55,8.71,3.33,13,5.92-4.45-2.03-8.91-4.06-13-5.92Z"/>
    <path class="cls-1" d="M55.43,87.83c-5.17,1.18-5.82,5.42-7.12,8.96-1.58,4.33-3.44,8.22-7.46,10.88-.82,.54-1.04,2.22-1.21,3.42-.22,1.48,.08,3.04-.16,4.51-.71,4.43-1.7,8.81-2.32,13.25-.22,1.57,.09,3.32,.56,4.87,.66,2.19,1.67,4.11,4.66,3.76,2.41-.29,3.93,1.39,4.5,3.43,.33,1.17-.01,2.9-.71,3.93-1.14,1.66-2.37,1.53-2.57-.06-.92,.7-2.23,2.5-3.32,2.37-2.99-.35-1.82-3.3-2.34-5.43-.63,2.08,.79,5.16-2.48,5.36-2.66,.16-3.25-2.01-2.98-4-.44,.97-.79,2.32-1.61,3.27-.25,.29-2.42-.33-2.59-.89-.44-1.45-.94-3.59-.22-4.55,2.13-2.85,2.3-5.52,1.58-8.94-.59-2.82,.31-5.93,.33-8.91,.02-2.36-.48-4.73-.41-7.09,.08-2.5,.56-4.99,1.24-7.43-2.8-8.7-4.53-17.66-3.46-27.06,.31-2.76,.52-5.55,.57-8.32,.11-7.06,2.33-13.02,7.46-18.17,6.03-6.06,12.82-8.92,21.34-7.71,2.44,.35,3,1.33,2.13,3.49-1.32,3.29-1.13,6.65-.31,10.11,1.14-1.72,2.29-3.43,3.63-5.45,2.03,3.47,2.25,6.18,.12,9.37-2.51,3.77-2.05,8.07-.41,12.15,.68,1.69,1.73,3.22,2.87,5.29,1.26-1.74,2.33-3.23,3.4-4.72,3.64,4.19,2.02,8.41,.56,12.3-4.51-1.67-9.09-3.17-13.48-5.09-1.84-.8-3.29-2.48-5.08-3.89-.29,3.52,2.6,4.74,5.26,7.01Z"/>
    <path class="cls-1" d="M52.66,135.75c2.51,0,5.63,0,8.75,0,3.83,0,6.91,3.6,6.18,7.4-.15,.78-.9,2.02-1.41,2.03-1.23,.04-2.48-.51-4.27-.96-.89,.98-2.44,2.18-4.24,.3-1.29,.53-2.63,1.33-4.07,1.61-2.86,.56-3.78-.43-4.34-3.27-.39-1.95-1.45-3.76-2.07-5.67-.68-2.07-1.9-4.28-1.66-6.29,.71-5.95-.58-11.44-2.81-16.79-1.07-2.57-.98-4.5,1.25-6.56,2.66-2.46,4.65-5.65,7.36-8.04,5.22-4.61,11.17-4.83,17.89-1.91-3.74,1.79-4.65,5.04-6.01,8.13-.87,1.98-2.47,3.85-4.19,5.2-6.96,5.5-7.07,12.84-6.05,20.62,.17,1.26-.17,2.58-.3,4.18Z"/>
    <path class="cls-1" d="M114.18,107.13c-2.01,4.69-3.51,8.58-5.32,12.32-2.27,4.68-4.05,9.4-3.88,14.73,.13,4.22-.7,5.09-4.95,6.2,3.7-.39,7.43-.64,11.1-1.22,3.15-.49,6.58,1.5,7.31,4.6,.52,2.22-1.18,4.39-4.71,5.37-1.1,.3-2.48-.4-3.67-1.02-4.38,2.38-8.21,1.37-12.58-3.39-2.58-2.82-3.81-5.36-2.69-9.54,1.59-5.9,2.04-12.12,2.81-18.22,.19-1.49-.34-3.05-.4-4.58-.08-1.81-.02-3.64-.02-6.12,5.58,2.74,10.78,3.5,17,.89Z"/>
    <path class="cls-1" d="M2.87,6.61c5.48,1.44,10.96,2.85,16.42,4.33,2.37,.65,3.2,2.35,2.88,4.73-.23,1.74,.36,2.77,1.93,3.99,3.9,3.04,6.21,7.45,7.13,12.21,.35,1.81-1.06,4.27-2.26,6.01-2.37,3.43-5.45,6.38-7.69,9.88-1.44,2.26-2.14,5.1-2.73,7.77-.8,3.63,1.17,6.44,3.91,8.37,1.04,.73,3.01,.12,4.9,.12-.33,1.24-.77,2.94-1.22,4.62-7.04,1.29-13.84-4.49-14.5-12.01-.58-6.57,2.53-11.37,6.89-15.75,2.02-2.02,3.94-4.17,5.71-6.41,1.83-2.32,2.04-4.77,.12-7.33-1.09-1.45-1.88-3.15-2.63-4.82-1.05-2.34-2.4-3.85-5.3-3.3-3.7,.69-6.54-.44-8.29-4.08-.59-1.21-2.03-1.98-2.94-3.08-1.16-1.4-2.18-2.93-3.25-4.41,.31-.29,.62-.57,.93-.86Z"/>
    <path class="cls-1" d="M91.16,139.93c.1-1.24,.03-2.52,.33-3.71,1.4-5.71-.47-11.2-.96-16.78-.56-6.49,1.48-12.27,5.63-17.63,0,.84,.25,1.78-.04,2.5-1.41,3.54-1.35,7,.01,10.53,.31,.79,.48,1.97,.12,2.64-2.71,5.06-1.56,10.67-2.49,15.98-.39,2.23-.75,4.46-1.13,6.69-.49-.07-.98-.14-1.48-.22Z"/>
    <path class="cls-1" d="M41.44,116.33c3.31,6.73,1.63,13.42,2.74,19.91-2.04,.15-4.01,.31-4.41-2.19-.93-5.85-.05-11.54,1.67-17.72Z"/>
    <path class="cls-1" d="M71.67,47.36c1.3,1.15,2.65,2.25,3.85,3.49,.29,.3,.33,1.41,.12,1.53-.53,.31-1.64,.6-1.87,.34-1.19-1.38-2.17-2.93-3.22-4.42l1.12-.93Z"/>
  </g>
</svg>