<?xml version="1.0" encoding="UTF-8"?>
<svg id="Layer_2" data-name="Layer 2" xmlns="http://www.w3.org/2000/svg" viewBox="0 0 88.31 52.21">
  <defs>
    <style>
      .cls-1 {
        fill: #fff;
      }
    </style>
  </defs>
  <g id="Layer_1-2" data-name="Layer 1">
    <path d="M65.81,8.11c-8.46,1.99-17.18,1.6-25.88-.08-.06-.27-.12-.55-.19-.82,.68-.14,1.38-.45,2.04-.39,3.12,.29,6.23,1,9.33,.96,4.39-.06,8.77-.63,13.15-1.03,1.3-.12,2.32-.65,2.25-2.26-.02-.4,.16-.86,.38-1.21,.69-1.12,1.43-2.19,2.16-3.29,1.12,.82,2.28,1.59,3.35,2.48,.41,.35,.71,.91,.9,1.44,2.04,5.76,6.74,7.38,12.15,7.49,2.26,.05,3.01,.66,2.82,2.91-.18,2.07,.06,3.74-2.33,5.24-3.86,2.43-7.66,4.58-12.2,5.33-.76,.13-1.61,.61-2.13,1.18-2.67,2.94-5.75,5.29-9.3,7.08-.7,.35-1.27,1.23-1.6,2-2.06,4.76-2.7,9.56-.02,14.35,.09,.16,.01,.4,.01,.84-2.23,.57-4.48,1.48-6.79,1.66-3.44,.27-4.56-1.21-3.96-4.76,.54-3.26,.24-6.43-.99-9.44-.83-2.02-2.08-3.86-3.13-5.77-2.83,.31-5.58,.92-8.31,.82-3.24-.12-6.45-.88-9.68-1.29-.59-.08-1.32,.04-1.83,.33-1.36,.77-2.53,2-3.96,2.47-3.79,1.23-4.74,4.22-4.66,7.54,.06,2.69,.88,5.36,1.42,8.34-1.86,.9-4.07,2.47-7.02,1.85-1.62-.34-2.5-1.1-2.69-2.79-.4-3.52-.96-7.01-1.3-10.53-.09-.91,.21-1.97,.65-2.78,1.34-2.47,1.58-4.57-.36-7.04-2.52-3.21-3.25-7.11-2.29-11.13,.31-1.3-.06-1.84-1.06-2.55C.66,12.3-1.12,6.59,.74,2.62c1.67,.1,1.09,1.05,.86,2.03-.2,.85-.11,1.76-.18,3.23,1.73-1.82,3.13-3.78,5.28-2.23,.83,.59,1.49,2.23,1.32,3.24-.36,2.18-2.23,2.73-4.3,2.59-.13,.17-.27,.33-.4,.5,.96,.9,1.92,1.79,2.6,2.42,2.53-2.54,4.75-4.87,7.1-7.06,.75-.7,1.84-1.04,2.82-1.46,.3-.13,.74,.06,1.12,.1-.17,.4-.24,.9-.52,1.17-.34,.33-.87,.47-1.31,.7-8.49,4.32-10.48,15.11-5.19,20.97,2.24,2.49,1.19,5.14,0,7.78-.38,.85-.41,1.97-.28,2.92,.33,2.39,.85,4.75,1.32,7.28h2.29c0-1.2,0-2.4,0-3.59,0-4.73,2.05-7.93,6.62-9.61,1.9-.7,3.74-1.85,5.25-3.19,1.33-1.19,2.17-2.93,3.24-4.42,.36-.5,.76-.96,1.14-1.45,.28,.16,.56,.33,.83,.49-.67,1.57-1.33,3.13-2.14,5.03,1.73,.35,3.44,.96,5.16,.98,3.48,.04,6.96-.21,10.44-.42,1.22-.07,2.13-.56,1.38-1.84-3.84,.13-7.58,.34-11.31,.32-.96,0-1.91-.73-2.87-1.13,.95-.1,1.9-.21,2.85-.29,3.39-.27,6.79-.5,10.18-.85,.4-.04,.71-.8,1.08-1.21,.28-.31,.59-.58,.89-.87,.23,.36,.59,.7,.66,1.09,.13,.69-.05,1.45,.12,2.13,.46,1.84,.65,3.91,1.65,5.43,2.26,3.42,3.31,7.05,3.21,11.09-.02,.7,0,1.41,0,2.28h2.1c.52-2.86,.89-5.67,1.58-8.41,.78-3.1,2.91-5.14,5.78-6.45,3.39-1.54,6.39-3.6,8.92-6.64-1.82-.34-3.42-.59-4.99-.96-.42-.1-.75-.6-1.12-.92,.5-.17,1.05-.57,1.49-.48,6,1.3,11.6,.37,16.83-2.83,.17-.11,.31-.27,.56-.49-1.44-.35-2.79-.67-4.14-.99,0-.25,0-.49,0-.74,.56-.12,1.13-.34,1.69-.34,.92,0,1.85,.26,2.75,.19,3.85-.33,3.89-.42,3.33-4.49-2.01-.31-4.06-.49-6.04-.98-1.28-.31-2.45-1.08-3.68-1.62-1-.44-2.02-.85-3.41-1.44-.44-2.38-.94-5.35-3.69-7.19-2.56,2.97-2.43,6.74,.21,9.66,.37,.41,.43,1.08,.64,1.63-.56-.22-1.34-.27-1.65-.68-1.05-1.39-1.94-2.9-2.99-4.51Zm-7.71,28.17c-1.81,2.67-2.29,5.53-2.3,8.49,0,.28,.89,.57,1.38,.87,.32-3.3,.61-6.22,.92-9.36ZM3.11,9.2c1.27,.75,2.5,1.1,3.26-.4,.23-.45-.25-1.8-.61-1.89-1.76-.45-2.18,.94-2.64,2.29ZM14.98,45.41c.24,0,.48,.01,.72,.02v-6.31c-.5,2.08-1.38,4.17-.72,6.29Zm-.74,5c-.38-2.73-2.08-1.81-3.65-1.68,.46,2.64,2.24,1.5,3.65,1.68Zm37.18-1.71c.5,2.62,2.23,1.57,3.65,1.65-.48-2.35-1.99-1.85-3.65-1.65Zm6.52,.66c.21-2.06-.42-2.8-2.37-1.47l2.37,1.47Z"/>
    <path d="M34.54,6.27h-14.71c-.11-.2-.23-.41-.34-.61,.46-.33,.93-.96,1.38-.95,3.88,.1,7.76,.3,11.63,.54,.52,.03,1.01,.49,2.03,1.02Z"/>
    <path d="M26.54,23.16c0,.72,.13,1.37-.02,1.94-.7,2.76-5.89,7.07-8.65,7.22-.29,.02-.85-.23-.85-.36,0-.35,.12-.87,.38-1.02,.78-.47,1.67-.78,2.48-1.2,2.46-1.26,4.58-2.85,5.37-5.7,.07-.25,.29-.47,.48-.67,.08-.08,.26-.08,.82-.22Z"/>
    <path d="M55.06,33.94c-.27-.19-.67-.34-.67-.5,0-.39,.05-.92,.3-1.14,1.23-1.06,2.47-2.14,3.83-3.02,1.49-.96,3.09-1.75,4.69-2.52,.46-.22,1.08-.11,1.62-.14-.29,.49-.47,1.14-.9,1.43-1.11,.75-2.37,1.29-3.5,2.02-1.48,.95-2.9,2-4.34,3.01-.34,.24-.64,.53-1.02,.85Z"/>
    <path d="M54.75,12.86c-1.71,0-3.42,.04-5.12-.03-.38-.02-.75-.44-1.12-.67,.41-.26,.81-.74,1.23-.75,3.4-.15,6.81-.24,10.22-.27,.39,0,.78,.4,1.16,.62-.35,.34-.67,.93-1.05,.97-1.77,.2-3.55,.24-5.32,.34,0-.06,0-.13,0-.19Z"/>
    <path d="M21.29,9.63c-2.83-.07-4.92,1.54-7.02,3.12-.4,.3-.68,.76-1.1,1-.3,.17-.75,.11-1.13,.15,0-.38-.16-.92,.03-1.12,1.56-1.62,3.06-3.33,5.62-3.43,.94-.04,1.85-.56,2.78-.84,.54-.16,1.11-.45,1.62-.37,.57,.09,1.08,.54,1.61,.83-.52,.24-1.03,.52-1.58,.71-.25,.08-.56-.03-.84-.06Z"/>
    <path class="cls-1" d="M58.1,36.28c-.31,3.14-.6,6.06-.92,9.36-.5-.3-1.38-.58-1.38-.87,0-2.96,.49-5.83,2.3-8.49Z"/>
    <path class="cls-1" d="M3.11,9.2c.47-1.35,.88-2.74,2.64-2.29,.37,.09,.84,1.45,.61,1.89-.76,1.5-1.98,1.15-3.26,.4Z"/>
    <path class="cls-1" d="M14.98,45.41c-.66-2.12,.22-4.2,.72-6.29v6.31c-.24,0-.48-.01-.72-.02Z"/>
    <path class="cls-1" d="M14.24,50.41c-1.41-.19-3.2,.95-3.65-1.68,1.58-.13,3.27-1.04,3.65,1.68Z"/>
    <path class="cls-1" d="M51.42,48.7c1.66-.2,3.16-.7,3.65,1.65-1.42-.09-3.15,.96-3.65-1.65Z"/>
    <path class="cls-1" d="M57.94,49.36l-2.37-1.47c1.95-1.33,2.58-.59,2.37,1.47Z"/>
  </g>
</svg>