<?xml version="1.0" encoding="UTF-8"?>
<svg id="Layer_2" data-name="Layer 2" xmlns="http://www.w3.org/2000/svg" viewBox="0 0 69.38 91">
  <defs>
    <style>
      .cls-1 {
        fill: #fff;
      }
    </style>
  </defs>
  <g id="Layer_1-2" data-name="Layer 1">
    <path d="M19.5,37.66q.39-1.66,2.41-.29c2.34-2.2,4.72-4.44,7.27-6.83-2.4-2.5-4.71-4.99-7.1-7.38-4.89-4.89-9.82-9.74-14.76-14.57-.99-.97-1.28-1.71-.12-2.81,2.01-1.9,3.9-3.93,5.72-5.78,6.93,6.9,13.66,13.6,20.54,20.46-.92,.86-1.89,1.76-2.85,2.66,.8-3.4,.42-4.21-3.03-6.35-.55,.58-1.11,1.18-1.96,2.09,1.07,.91,1.98,1.69,2.9,2.46,.72,.6,1.44,1.19,2.16,1.79-1.15-.52-1.73,.03-2.06,1.08-.28,.9-.59,1.79-.94,2.83,1.63,2.49,2.46,2.63,4.67,.54,.21-.2,.43-.39,.6-.61,1.28-1.7,2.52-1.42,3.73,.08,.67,.83,1.32,1.68,2.26,2.89,3.29-3.39,6.13-6.36,9.02-9.27,4.37-4.41,8.8-8.74,13.13-13.18,1.1-1.13,1.81-1.28,2.91-.03,1.46,1.65,3.07,3.17,4.67,4.69,.91,.87,.96,1.59,.03,2.5-6.07,6.03-12.12,12.07-18.14,18.15-1.01,1.02-1.73,.61-2.5-.19-1.58-1.63-3.14-3.27-4.79-4.98-1.07,1.01-1.93,1.83-2.99,2.83,2.8,2.66,5.41,5.14,8.03,7.62,.16,.15,.32,.28,.46,.45,.72,.91,1.42,1.82,2.14,2.74-1.04,.3-2.08,.6-3.3,.96-.27,2.48-.04,4.75,2.26,6.83,4.38,3.97,8.41,8.31,12.59,12.51,.34,.34,.63,.74,1.25,1.48-2.19,2.08-4.3,4.18-6.56,6.11-.36,.31-1.63,.13-2.05-.27-1.95-1.85-3.75-3.86-5.6-5.81-.21,.1-.42,.2-.63,.29,.25,3.34,.5,6.68,.74,9.91,.28,.17,.4,.29,.52,.3q4.1,.29,4.1,4.38c0,3.64-.06,7.27,.03,10.91,.04,1.54-.41,2.17-2.04,2.16-11.62-.05-23.24-.05-34.86,0-1.46,0-1.99-.45-1.96-1.97,.09-4.27,.14-8.56-.01-12.83-.07-2.06,.55-2.9,2.62-2.6,.55,.08,1.12-.05,1.92-.09,.55-7.89,1.09-15.73,1.64-23.57-.2-.1-.4-.21-.6-.31-3.06,3.14-6.09,6.31-9.2,9.41-1.54,1.54-3.17,3.98-4.86,4.07-1.48,.08-3.11-2.56-4.64-4.03-.76-.72-1.46-1.51-2.25-2.35,.57-.55,1.03-.97,1.47-1.4-.01,.4-.18,.98,0,1.15,.73,.65,1.58,1.16,2.3,1.66,1.25-1.12,2.49-2.23,3.86-3.46-.86-.88-1.53-1.57-1.77-1.82-1.57,.89-2.78,1.58-3.99,2.27,1.27-1.57,2.46-3.21,3.83-4.69,.48-.52,1.38-.65,2.08-.96,.1,.19,.2,.37,.3,.56-.38,.49-.75,.98-1.25,1.62,.54,.57,1.1,1.17,1.73,1.83,1.24-1.31,2.39-2.52,3.61-3.8-.48-.51-1.09-1.18-1.72-1.86-.91,.53-1.77,1.02-2.64,1.52-.15-.19-.31-.37-.46-.56,1.85-1.85,3.65-3.75,5.57-5.52,.88-.81,2-1.34,3.02-2,0,0-.11-.02-.11-.02,.76,.96,1.52,1.91,2.1,2.64,1.63-1.55,2.78-2.65,4.07-3.88-.85-.8-1.69-1.59-2.53-2.38,0,0,0,.04,0,.04Zm2.09,35.84h26.42c-.07-.94-.13-1.69-.21-2.62-1.49,0-2.77,.06-4.03-.04-.35-.03-.66-.5-.99-.77,.35-.25,.68-.68,1.04-.7,1.24-.09,2.49-.03,3.89-.03-.09-1.4-.16-2.44-.21-3.15-1.02-.55-1.76-.94-2.49-1.33,.74-.36,1.49-.71,2.26-1.09q.11-3.1-2.9-3.35c-.28-.02-.6,0-.84-.11-.27-.13-.48-.4-.72-.61,.25-.25,.47-.57,.77-.73,.3-.16,.68-.17,1.43-.33-1.87-1.79-3.54-3.23-5.02-4.86-1.32-1.45-2.65-2.21-4.75-2.09-3.46,.19-3.43,0-3.56-3.45-.07-1.91,.39-3.51,2.39-3.99,2.04-.5,3.17,.75,3.82,2.55,.03,.08,.23,.11,.42,.18,1.19-1.18,2.4-2.37,4.06-4-4.35-2.07-8.71-1.34-12.69-.92-2.91,.31-4.43,3.73-6.77,5.94q3.78,.94,3.65,2.02c-1.1,.05-2.22,.1-3.34,.15-.11,1.16-.2,2.14-.27,2.96,.61,.51,1.09,.93,1.58,1.34-.55,.4-1.1,.81-1.82,1.33-.05,.81-.11,1.85-.19,3.14,1.27,0,2.33-.07,3.37,.04,.34,.03,.62,.53,.93,.81-.31,.21-.61,.58-.93,.6-1.11,.08-2.23,.03-3.5,.03v3.6c.63,.06,1.14,.03,1.59,.18,.23,.08,.43,.49,.47,.77,.02,.17-.3,.56-.47,.55-2.97-.07-1.93,2.02-2.08,3.79,.98,0,1.83-.1,2.64,.03,.78,.13,1.51,.5,2.27,.76-.78,.26-1.56,.52-2.34,.76-.2,.06-.43,.03-.64,0-1.91-.27-2.64,.56-2.26,2.61Zm-4.6,1.82v14.15c2.63,0,5.05,.04,7.46-.04,.4-.01,1.13-.56,1.13-.88,.07-4.39,.05-8.78,.05-13.23h-8.65Zm35.59,14v-13.94h-8.52v13.94h8.52Zm-10.34-.02v-13.97h-14.97v14h2.35c0-2.36-.04-4.63,0-6.9,.08-3.37,2.17-5.48,5.29-5.41,3.03,.07,4.89,2.14,4.91,5.49,.02,2.26,0,4.51,0,6.78h2.4Zm-3.94,.03c0-2.69,.11-5.19-.04-7.66-.11-1.85-1.67-3.12-3.45-3.15-1.79-.03-3.4,1.26-3.49,3.08-.12,2.54-.03,5.08-.03,7.73h7Zm-11.7-46.85c1.51-1.69,2.84-3.26,4.26-4.74,1.92-2,1.71-4.26-.72-5.94-2.37,2.26-4.76,4.54-7.16,6.83,1.23,1.3,2.24,2.38,3.62,3.85Zm12.7-10.76c-1.42,1.2-2.53,3.41-1.75,4.53,1.09,1.54,2.59,3.17,4.27,3.81,1.7,.65,3.85,.14,6.44,.14-3.3-3.12-6.14-5.81-8.97-8.48Zm-4.67-4.34c-.96,1.09-1.91,2.18-2.86,3.27,1.94,2.24,4.41,2.17,6.04-.31-.9-.84-1.83-1.7-3.18-2.96Zm-18.11,24.31c1.4-1.22,2.61-2.27,4.07-3.55-.78-.79-1.35-1.36-2.09-2.11-1.39,1.45-2.54,2.64-3.68,3.83,.62,.67,1.18,1.27,1.7,1.83ZM22.82,11.79c-.65,.69-1.22,1.29-1.45,1.53,1.16,1.42,2.21,2.71,3.34,4.11,.71-.74,1.28-1.34,1.84-1.93-1.28-1.26-2.42-2.4-3.74-3.7Zm27.04,46.14c-.57,.39-1.31,.88-2.04,1.38,.21-.15,.43-.3,.64-.44,.97,1.38,1.94,2.75,2.95,4.2,.79-.84,1.32-1.4,1.84-1.95-1.26-1.19-2.43-2.29-3.39-3.19Zm2.8,5.95c1.36,1.47,2.45,2.66,3.68,3.99,.72-.67,1.36-1.27,2.01-1.87-.23,.07-.45,.13-.68,.2-1.04-1.3-2.08-2.6-3.26-4.08-.67,.68-1.21,1.21-1.75,1.75Zm-41.04-7.29c1.4-1.28,2.64-2.41,3.74-3.43-.63-.85-1.13-1.52-1.36-1.82-1.55,1.21-2.86,2.23-4.31,3.36,.82,.81,1.33,1.3,1.92,1.88ZM13.23,1.97c-.77,.82-1.32,1.41-1.68,1.79,1.26,1.4,2.37,2.64,3.52,3.92,.68-.73,1.24-1.33,1.82-1.96-1.23-1.26-2.36-2.42-3.66-3.74Zm25.05,47.26c1.29,1.46,2.39,2.69,3.12,3.52,.85-.54,1.56-1,1.84-1.17-1.09-1.31-2.16-2.59-3.22-3.87-.69,.61-1.27,1.12-1.73,1.53ZM6.95,61.57c1.25-1.33,2.38-2.54,3.62-3.86-.6-.56-1.24-1.16-1.64-1.53-1.4,1.23-2.61,2.29-3.66,3.21,.58,.76,1.09,1.41,1.68,2.18ZM28.1,23.74c-1.25-1.41-2.36-2.65-3.56-4.01-.65,.69-1.22,1.3-1.71,1.82,1.11,1.37,2.18,2.69,3.4,4.2,.95-1.01,1.47-1.57,1.87-2.01Zm28.19-2.36c-1.42,1.2-2.69,2.27-4.07,3.43,.77,.84,1.28,1.4,1.95,2.13,1.3-1.49,2.41-2.74,3.3-3.76-.41-.61-.87-1.32-1.19-1.8Zm-31.23,22.03c-.58-.65-1.16-1.31-1.51-1.71-1.39,1.14-2.66,2.19-3.83,3.15,.68,.91,1.18,1.57,1.66,2.21,1.35-1.34,2.45-2.43,3.69-3.65Zm-3.08-32.76c-1.52-1.44-2.7-2.56-3.93-3.74-.75,.79-1.27,1.33-1.69,1.77,1.19,1.37,2.28,2.62,3.35,3.85,.84-.7,1.43-1.18,2.28-1.89Zm40.76,7.47c-.68-.64-1.27-1.19-1.8-1.69-1.35,1.26-2.52,2.35-3.84,3.58,.72,.73,1.3,1.31,1.85,1.85,1.3-1.28,2.44-2.41,3.79-3.74Zm-14.4,38.4c-1.28-1.56-2.3-2.8-3.15-3.84-.93,.61-1.63,1.07-2.46,1.62,1.48,1.46,2.61,2.58,4.02,3.97,.66-.73,1.21-1.34,1.58-1.75Zm-30.63-11.84c-1.35-.51-2.52-1.35-3-1.05-1.22,.75-2.12,2-3.21,3.12,.88,.83,1.47,1.38,2.06,1.93,1.26-1.21,2.42-2.33,4.15-4Zm29.96-15.04c.58,.66,1.17,1.32,1.64,1.86,1.34-1.23,2.53-2.32,3.78-3.48-.66-.71-1.23-1.31-1.78-1.9-1.29,1.24-2.49,2.4-3.64,3.51Zm18.26-17.98c-1.41,1.22-2.63,2.28-3.82,3.32,.68,.77,1.26,1.43,1.73,1.97,1.36-1.24,2.56-2.34,3.92-3.59-.7-.65-1.32-1.22-1.83-1.69Zm-9.77,46.55c-1.15-1.29-2.25-2.54-3.33-3.76-.67,.53-1.32,1.04-1.9,1.49,1.37,1.43,2.52,2.63,3.76,3.92,.6-.68,1.12-1.26,1.47-1.65Zm-3.29-40.28c-1.26,1.36-2.4,2.57-3.43,3.69,.53,.72,1.05,1.43,1.41,1.91,1.5-1.28,2.72-2.33,4.04-3.46-.7-.74-1.21-1.29-2.01-2.14Zm-29.47,.91c-1.34-1.4-2.49-2.59-3.72-3.87-.61,.64-1.17,1.24-1.49,1.58,1.22,1.42,2.31,2.68,3.38,3.93,.69-.61,1.27-1.13,1.83-1.63ZM57.64,59.41c-.54,.4-1.25,.93-1.97,1.46,1.37,1.43,2.49,2.59,3.56,3.72,.73-.66,1.34-1.21,2.1-1.89-1.3-1.15-2.55-2.26-3.69-3.28Zm-3.42-42.62c.57,.71,1.09,1.35,1.64,2.03,1.32-1.37,2.48-2.56,3.66-3.78-.57-.64-1.13-1.25-1.75-1.94-1.26,1.31-2.37,2.47-3.54,3.7Zm-12.73,29.27c1.26,1.39,2.37,2.62,3.35,3.71,.7-.46,1.4-.91,2.08-1.37-1.5-1.48-2.65-2.61-3.88-3.83-.56,.54-1.16,1.11-1.56,1.48ZM10.13,5.06c-.78,.84-1.35,1.43-1.65,1.75,1.23,1.32,2.36,2.54,3.34,3.6,.66-.49,1.32-.98,2.07-1.54-1.34-1.35-2.47-2.51-3.76-3.82Zm28.45,35.03c-2.92-3.5-5.85-3.35-7.22,0h7.22Zm12.97,13.02c-1.22-1.31-2.31-2.49-3.49-3.77-.73,.7-1.32,1.26-1.75,1.67,1.18,1.4,2.25,2.68,3.41,4.06,.75-.81,1.32-1.42,1.82-1.96ZM60.54,13.83c1.49-1.36,2.67-2.44,3.96-3.62-.74-.7-1.33-1.26-1.67-1.59-1.35,1.26-2.52,2.35-3.88,3.61,.54,.55,1.08,1.08,1.59,1.6ZM13.22,11.82c1.3,1.29,2.44,2.42,3.67,3.63,.54-.49,1.14-1.04,1.58-1.44-1.26-1.47-2.34-2.73-3.48-4.07-.74,.78-1.26,1.34-1.76,1.87ZM45.91,28.1c1.44-1.14,2.74-2.17,4.12-3.26-.83-.79-1.39-1.31-1.79-1.69-1.37,1.16-2.63,2.24-3.98,3.39,.8,.76,1.36,1.28,1.65,1.56Zm-9.37,22c-.39-1.57-.66-2.86-1.08-4.1-.05-.14-1.4-.1-1.46,.09-.42,1.25-.66,2.56-1,4.01h3.54Zm-1.64-13.4c.51-.82,1.14-1.4,1.04-1.76-.15-.51-.8-1.1-1.32-1.2-.31-.06-1.14,.82-1.09,1.2,.06,.53,.73,.99,1.38,1.77Z"/>
    <path class="cls-1" d="M1.88,55.14c1.21-.69,2.42-1.38,3.99-2.27,.24,.24,.91,.94,1.77,1.82-1.37,1.23-2.61,2.34-3.86,3.46-.72-.5-1.57-1.02-2.3-1.66-.19-.17-.02-.75,0-1.15,.14-.07,.27-.13,.41-.2Z"/>
    <path class="cls-1" d="M30.69,23.1c-.72-.6-1.45-1.19-2.16-1.79-.92-.77-1.83-1.55-2.9-2.46,.86-.91,1.41-1.51,1.96-2.09,3.45,2.14,3.82,2.95,3.03,6.35,0,0,.08-.01,.08-.01Z"/>
    <path d="M19.5,37.66s0-.04,0-.04c-.1,1.76-2.01,3.66-3.65,3.63,0,0,.1,.02,.11,.02-.02-1.49,1.88-3.43,3.55-3.62Z"/>
    <path class="cls-1" d="M21.59,73.5c-.38-2.05,.36-2.88,2.26-2.61,.21,.03,.44,.05,.64,0,.79-.23,1.56-.5,2.34-.76-.76-.26-1.49-.64-2.27-.76-.82-.13-1.67-.03-2.64-.03,.15-1.77-.89-3.86,2.08-3.79,.16,0,.49-.38,.47-.55-.04-.28-.24-.69-.47-.77-.45-.16-.97-.12-1.59-.18v-3.6c1.27,0,2.39,.05,3.5-.03,.32-.02,.62-.39,.93-.6-.31-.28-.6-.78-.93-.81-1.04-.11-2.1-.04-3.37-.04,.08-1.29,.14-2.33,.19-3.14,.71-.52,1.26-.93,1.82-1.33-.49-.41-.97-.82-1.58-1.34,.08-.82,.17-1.8,.27-2.96,1.13-.05,2.24-.1,3.34-.15q.13-1.09-3.65-2.02c2.33-2.2,3.86-5.63,6.77-5.94,3.98-.42,8.33-1.15,12.69,.92-1.65,1.63-2.86,2.82-4.06,4-.19-.08-.39-.1-.42-.18-.64-1.8-1.78-3.05-3.82-2.55-1.99,.49-2.46,2.08-2.39,3.99,.13,3.45,.09,3.64,3.56,3.45,2.1-.11,3.43,.65,4.75,2.09,1.48,1.62,3.15,3.07,5.02,4.86-.75,.16-1.13,.17-1.43,.33-.3,.16-.52,.48-.77,.73,.24,.21,.45,.48,.72,.61,.24,.12,.56,.09,.84,.11q3.01,.25,2.9,3.35c-.77,.37-1.52,.73-2.26,1.09,.73,.39,1.46,.78,2.49,1.33,.05,.71,.12,1.75,.21,3.15-1.4,0-2.65-.05-3.89,.03-.36,.03-.7,.46-1.04,.7,.33,.27,.64,.75,.99,.77,1.27,.09,2.54,.04,4.03,.04,.07,.92,.13,1.67,.21,2.62H21.59Zm13.28-12.42q3.02,0,3.02-3.28c0-2.83-1.17-4.39-3.24-4.33-2.13,.07-2.97,1.48-2.96,4.97q0,2.65,3.18,2.65Zm-.1,9.23c1.14-.3,3.17,.92,3.15-1.92-.03-3.93-.77-5.52-3.02-5.61-2.03-.08-3.16,1.19-3.21,3.61q-.08,3.84,3.07,3.92Z"/>
    <path class="cls-1" d="M16.99,75.32h8.65c0,4.45,.02,8.84-.05,13.23,0,.31-.73,.86-1.13,.88-2.41,.08-4.83,.04-7.46,.04v-14.15Zm3.63,3.71c.69-.43,1.15-.73,1.62-1.02-.45-.29-.88-.79-1.34-.81-.49-.02-1.01,.4-1.51,.63,.37,.36,.74,.73,1.23,1.21Zm-1.02,7.05c-.14,.23-.29,.47-.43,.7,.56,.28,1.13,.78,1.67,.76,.53-.02,1.04-.58,1.56-.91-.11-.19-.22-.37-.33-.56h-2.47Z"/>
    <path class="cls-1" d="M52.58,89.32h-8.52v-13.94h8.52v13.94Zm-5.51-4.38c-.66,.4-1.13,.7-1.6,.99,.51,.3,1,.79,1.54,.84,.45,.04,.94-.45,1.41-.71-.41-.34-.82-.68-1.35-1.12Zm2.41-4.36c.54-.47,.95-.82,1.35-1.16-.5-.23-1-.64-1.49-.63-.47,.01-.92,.47-1.39,.73,.45,.31,.89,.63,1.52,1.07Z"/>
    <path class="cls-1" d="M42.24,89.29h-2.4c0-2.27,.01-4.53,0-6.78-.03-3.36-1.88-5.42-4.91-5.49-3.12-.07-5.21,2.03-5.29,5.41-.05,2.27,0,4.54,0,6.9h-2.35v-14h14.97v13.97Z"/>
    <path class="cls-1" d="M38.3,89.32h-7c0-2.65-.09-5.2,.03-7.73,.09-1.82,1.7-3.11,3.49-3.08,1.77,.03,3.34,1.3,3.45,3.15,.14,2.48,.04,4.97,.04,7.66Z"/>
    <path class="cls-1" d="M26.6,42.47c-1.38-1.47-2.4-2.55-3.62-3.85,2.4-2.29,4.79-4.57,7.16-6.83,2.43,1.68,2.64,3.93,.72,5.94-1.42,1.48-2.75,3.05-4.26,4.74Z"/>
    <path class="cls-1" d="M39.3,31.71c2.83,2.68,5.67,5.36,8.97,8.48-2.59,0-4.74,.51-6.44-.14-1.69-.64-3.18-2.27-4.27-3.81-.79-1.12,.32-3.33,1.75-4.53Z"/>
    <path class="cls-1" d="M34.64,27.37c1.35,1.26,2.28,2.12,3.18,2.96-1.63,2.48-4.1,2.55-6.04,.31,.95-1.09,1.9-2.18,2.86-3.27Z"/>
    <path class="cls-1" d="M16.53,51.68c-.52-.56-1.09-1.17-1.7-1.83,1.14-1.19,2.29-2.38,3.68-3.83,.74,.75,1.32,1.33,2.09,2.11-1.47,1.28-2.68,2.33-4.07,3.55Z"/>
    <path class="cls-1" d="M22.82,11.79c1.32,1.31,2.46,2.44,3.74,3.7-.57,.6-1.14,1.19-1.84,1.93-1.13-1.39-2.19-2.69-3.34-4.11,.23-.24,.79-.84,1.45-1.53Z"/>
    <path class="cls-1" d="M49.87,57.93c.95,.9,2.13,2,3.39,3.19-.52,.55-1.04,1.11-1.84,1.95-1.02-1.45-1.99-2.83-2.95-4.2-.21,.15-.43,.3-.64,.44,.74-.5,1.47-.99,2.04-1.38Z"/>
    <path class="cls-1" d="M52.67,63.89c.54-.54,1.07-1.08,1.75-1.75,1.18,1.48,2.22,2.78,3.26,4.08,.23-.07,.45-.13,.68-.2-.64,.6-1.29,1.2-2.01,1.87-1.23-1.33-2.32-2.52-3.68-3.99Z"/>
    <path class="cls-1" d="M11.63,56.59c-.6-.58-1.1-1.08-1.92-1.88,1.44-1.13,2.76-2.15,4.31-3.36,.22,.3,.73,.97,1.36,1.82-1.11,1.01-2.34,2.14-3.74,3.43Z"/>
    <path class="cls-1" d="M13.23,1.97c1.3,1.33,2.42,2.48,3.66,3.74-.58,.63-1.14,1.23-1.82,1.96-1.15-1.28-2.26-2.52-3.52-3.92,.36-.38,.92-.97,1.68-1.79Z"/>
    <path class="cls-1" d="M38.28,49.23c.47-.41,1.04-.92,1.73-1.53,1.06,1.28,2.13,2.56,3.22,3.87-.28,.18-.99,.63-1.84,1.17-.73-.83-1.83-2.07-3.12-3.52Z"/>
    <path class="cls-1" d="M6.95,61.57c-.59-.76-1.09-1.42-1.68-2.18,1.05-.92,2.26-1.98,3.66-3.21,.39,.37,1.04,.97,1.64,1.53-1.24,1.32-2.37,2.53-3.62,3.86Z"/>
    <path class="cls-1" d="M15.85,41.25c1.64,.03,3.55-1.87,3.65-3.63,.84,.79,1.68,1.58,2.53,2.38-1.29,1.23-2.45,2.33-4.07,3.88-.58-.72-1.34-1.68-2.1-2.64Z"/>
    <path class="cls-1" d="M28.1,23.74c-.4,.43-.93,.99-1.87,2.01-1.22-1.5-2.29-2.82-3.4-4.2,.49-.52,1.06-1.13,1.71-1.82,1.21,1.36,2.31,2.61,3.56,4.01Z"/>
    <path class="cls-1" d="M56.29,21.38c.32,.48,.78,1.18,1.19,1.8-.9,1.02-2,2.28-3.3,3.76-.67-.73-1.19-1.3-1.95-2.13,1.37-1.16,2.64-2.23,4.07-3.43Z"/>
    <path class="cls-1" d="M25.05,43.41c-1.23,1.22-2.33,2.31-3.69,3.65-.48-.63-.98-1.3-1.66-2.21,1.17-.96,2.44-2.01,3.83-3.15,.35,.4,.93,1.06,1.51,1.71Z"/>
    <path class="cls-1" d="M21.97,10.64c-.85,.7-1.44,1.19-2.28,1.89-1.07-1.23-2.16-2.49-3.35-3.85,.42-.44,.94-.98,1.69-1.77,1.24,1.18,2.41,2.29,3.93,3.74Z"/>
    <path class="cls-1" d="M62.73,18.12c-1.35,1.33-2.5,2.46-3.79,3.74-.54-.55-1.12-1.13-1.85-1.85,1.32-1.23,2.49-2.32,3.84-3.58,.53,.5,1.12,1.05,1.8,1.69Z"/>
    <path class="cls-1" d="M48.33,56.51c-.37,.41-.92,1.02-1.58,1.75-1.41-1.39-2.54-2.51-4.02-3.97,.83-.55,1.52-1.01,2.46-1.62,.85,1.04,1.87,2.28,3.15,3.84Z"/>
    <path class="cls-1" d="M17.7,44.68c-1.73,1.67-2.89,2.79-4.15,4-.59-.55-1.18-1.11-2.06-1.93,1.09-1.11,1.99-2.37,3.21-3.12,.48-.29,1.65,.54,3,1.05Z"/>
    <path class="cls-1" d="M47.66,29.63c1.15-1.11,2.35-2.27,3.64-3.51,.55,.58,1.12,1.19,1.78,1.9-1.25,1.15-2.45,2.25-3.78,3.48-.47-.54-1.06-1.2-1.64-1.86Z"/>
    <path class="cls-1" d="M65.92,11.65c.51,.47,1.13,1.04,1.83,1.69-1.36,1.25-2.56,2.35-3.92,3.59-.48-.54-1.06-1.2-1.73-1.97,1.19-1.03,2.41-2.1,3.82-3.32Z"/>
    <path class="cls-1" d="M56.15,58.2c-.35,.4-.87,.98-1.47,1.65-1.24-1.29-2.39-2.5-3.76-3.92,.58-.45,1.23-.97,1.9-1.49,1.08,1.22,2.19,2.47,3.33,3.76Z"/>
    <path class="cls-1" d="M52.87,17.92c.8,.85,1.32,1.4,2.01,2.14-1.32,1.13-2.54,2.18-4.04,3.46-.35-.48-.88-1.19-1.41-1.91,1.03-1.11,2.17-2.33,3.43-3.69Z"/>
    <path class="cls-1" d="M23.4,18.83c-.57,.5-1.14,1.02-1.83,1.63-1.07-1.25-2.16-2.51-3.38-3.93,.32-.34,.88-.93,1.49-1.58,1.23,1.28,2.37,2.47,3.72,3.87Z"/>
    <path class="cls-1" d="M57.64,59.41c1.15,1.02,2.4,2.13,3.69,3.28-.76,.68-1.37,1.23-2.1,1.89-1.08-1.12-2.19-2.28-3.56-3.72,.72-.53,1.43-1.06,1.97-1.46Z"/>
    <path class="cls-1" d="M54.22,16.79c1.18-1.23,2.28-2.38,3.54-3.7,.63,.69,1.18,1.31,1.75,1.94-1.18,1.22-2.33,2.41-3.66,3.78-.55-.68-1.07-1.32-1.64-2.03Z"/>
    <path class="cls-1" d="M41.5,46.06c.4-.38,1-.95,1.56-1.48,1.23,1.22,2.38,2.35,3.88,3.83-.69,.45-1.38,.91-2.08,1.37-.98-1.08-2.09-2.31-3.35-3.71Z"/>
    <path class="cls-1" d="M10.13,5.06c1.29,1.31,2.43,2.46,3.76,3.82-.74,.55-1.41,1.05-2.07,1.54-.99-1.06-2.12-2.28-3.34-3.6,.3-.32,.86-.92,1.65-1.75Z"/>
    <path class="cls-1" d="M38.58,40.09h-7.22c1.37-3.35,4.3-3.5,7.22,0Z"/>
    <path class="cls-1" d="M51.54,53.1c-.51,.55-1.07,1.15-1.82,1.96-1.16-1.38-2.24-2.66-3.41-4.06,.42-.4,1.01-.97,1.75-1.67,1.18,1.28,2.27,2.45,3.49,3.77Z"/>
    <path class="cls-1" d="M60.54,13.83c-.51-.52-1.05-1.05-1.59-1.6,1.35-1.26,2.52-2.35,3.88-3.61,.35,.33,.93,.88,1.67,1.59-1.29,1.18-2.48,2.26-3.96,3.62Z"/>
    <path class="cls-1" d="M13.22,11.82c.5-.53,1.02-1.09,1.76-1.87,1.14,1.34,2.22,2.6,3.48,4.07-.43,.4-1.04,.94-1.58,1.44-1.22-1.21-2.36-2.34-3.67-3.63Z"/>
    <path class="cls-1" d="M45.91,28.1c-.3-.28-.85-.8-1.65-1.56,1.35-1.15,2.62-2.23,3.98-3.39,.41,.38,.96,.9,1.79,1.69-1.38,1.09-2.68,2.12-4.12,3.26Z"/>
    <path class="cls-1" d="M36.54,50.1h-3.54c.34-1.45,.57-2.76,1-4.01,.06-.19,1.41-.22,1.46-.09,.43,1.24,.7,2.53,1.08,4.1Z"/>
    <path class="cls-1" d="M34.9,36.69c-.65-.78-1.31-1.24-1.38-1.77-.05-.38,.79-1.26,1.09-1.2,.52,.1,1.17,.69,1.32,1.2,.11,.36-.52,.94-1.04,1.76Z"/>
    <path d="M34.88,61.08q-3.17,0-3.18-2.65c0-3.49,.84-4.9,2.96-4.97,2.07-.06,3.24,1.5,3.24,4.33q0,3.28-3.02,3.28Zm1.86-1.66c-.5-1.64-.83-2.93-1.33-4.16-.06-.14-1.4-.06-1.46,.14-.4,1.25-.61,2.56-.92,4.01h3.71Z"/>
    <path d="M34.78,70.3q-3.15-.07-3.07-3.92c.05-2.42,1.18-3.69,3.21-3.61,2.25,.09,2.99,1.68,3.02,5.61,.02,2.83-2.01,1.62-3.15,1.92Zm1.22-1.37c.24-.23,.49-.45,.73-.68-.47-1.29-.9-2.59-1.47-3.82-.04-.1-1.49,.15-1.55,.41-.26,1.12-.5,2.37-.21,3.44,.11,.41,1.62,.45,2.5,.65Z"/>
    <path d="M20.62,79.03c-.49-.48-.86-.84-1.23-1.21,.5-.23,1.02-.65,1.51-.63,.46,.02,.9,.52,1.34,.81-.47,.3-.94,.59-1.62,1.02Z"/>
    <path d="M19.6,86.08h2.47c.11,.19,.22,.37,.33,.56-.52,.32-1.03,.88-1.56,.91-.55,.02-1.11-.48-1.67-.76,.14-.23,.29-.47,.43-.7Z"/>
    <path d="M47.07,84.93c.53,.44,.94,.78,1.35,1.12-.47,.26-.96,.74-1.41,.71-.53-.04-1.03-.54-1.54-.84,.47-.29,.94-.58,1.6-.99Z"/>
    <path d="M49.48,80.57c-.63-.44-1.07-.76-1.52-1.07,.46-.26,.92-.72,1.39-.73,.49-.01,.99,.4,1.49,.63-.4,.35-.81,.69-1.35,1.16Z"/>
    <path class="cls-1" d="M36.74,59.42h-3.71c.31-1.45,.51-2.76,.92-4.01,.06-.2,1.4-.29,1.46-.14,.5,1.23,.83,2.52,1.33,4.16Z"/>
    <path class="cls-1" d="M35.99,68.94c-.87-.21-2.39-.24-2.5-.65-.29-1.06-.05-2.32,.21-3.44,.06-.26,1.51-.51,1.55-.41,.57,1.24,1,2.54,1.47,3.82-.24,.23-.49,.45-.73,.68Z"/>
  </g>
</svg>