<?xml version="1.0" encoding="UTF-8"?>
<svg id="Layer_2" data-name="Layer 2" xmlns="http://www.w3.org/2000/svg" viewBox="0 0 69.73 57.06">
  <defs>
    <style>
      .cls-1 {
        fill: #fff;
      }
    </style>
  </defs>
  <g id="Layer_1-2" data-name="Layer 1">
    <path d="M26.62,50.77c3.92-.91,7.84-1.82,11.79-2.73-.48-2.37-.88-4.39-1.29-6.42,.29-.12,.59-.24,.88-.36,.29,.65,.71,1.27,.85,1.95,1,5.01,3.61,8.92,8.3,10.96,2.31,1,5,1.12,7.82,1.7-.19-2.51-1.64-2.99-2.91-3.69-1.42-.78-2.97-1.45-4.14-2.52-1.76-1.61-1.64-4.37,.38-5.54,2.95-1.71,4.39-4.33,5.61-7.26,.65-1.57,1.51-3.05,2.28-4.57-2.2-1.66-4.38-3.3-6.55-4.94,.12-.29,.23-.58,.35-.87,.55,.12,1.32,.04,1.63,.38,2.88,3.12,6.59,4.29,10.5,4.82v-1.82c.5,.09,.99,.24,1.49,.27,.81,.05,1.62,.01,2.25,.01-.18-1.43-.3-2.46-.44-3.54,.53,0,.7-.05,.79,0,.57,.36,1.12,.74,1.67,1.11-.16-.83-.14-1.75-.51-2.47-1.01-1.94-2.21-3.79-3.3-5.69-1.75-3.07-4.51-4.66-7.85-5.38-.54-.11-1.51,0-1.7,.34-1.15,2.09-1.49,.55-2.09-.35-1.84-2.75-3.43-5.76-5.68-8.12-1.55-1.63-4.05-2.35-6.6-3.73-.07,3.84,.84,6.65,2.99,8.68,2.08,1.97,4.69,3.37,7.04,5.05,.5,.36,.91,.85,1.11,1.03-1.64,.61-3.04,.86-4.11,1.6-2.34,1.61-4.5,1.91-7.17,.59-2.39-1.19-5.09-1.75-7.66-2.58-.65-.21-1.32-.37-1.97-.55,0-.26-.01-.53-.02-.79,.83-.08,1.72-.4,2.47-.19,2.66,.76,5.33,1.57,7.89,2.61,3.09,1.25,3.79,1.22,6.42-1.34-3.36-2.04-6.29-4.51-7.59-8.34-.52-1.52-.7-3.17-.97-4.77-.3-1.76,.7-2.24,2.13-1.82,1.83,.54,3.6,1.25,5.37,1.97,.63,.26,1.18,.72,1.89,1.17,.11-.58,.19-.99,.27-1.4,.74-3.87,1.35-4.1,4.26-1.54,3.24,2.85,4.98,6.37,4.47,10.74,1.56,.76,3.11,1.33,4.45,2.22,1.22,.81,2.45,1.81,3.27,3,1.64,2.39,3.07,4.93,4.47,7.47,1.31,2.37,.21,4.73-2.97,6.52-2.22,1.25-4.5,2.08-7.13,1.14-.44-.16-1.45,.35-1.73,.82-.99,1.64-1.69,3.46-2.65,5.12-1.22,2.12-2.59,4.15-4.25,6.77,.31,1.29,2.07,1.91,3.68,2.78,1.41,.76,2.85,1.63,3.93,2.77,1.06,1.12,.5,2.19-.47,3.51-1.85,2.53-4.16,2.72-6.83,2.37-3.69-.48-7.01-2-9.17-4.95-1.81-2.46-3.44-3.15-6.04-1.58-.52,.32-1.22,.34-1.84,.5,.03,.2,0,.37,.08,.42,1.3,1.03,2.76,2.06,2.07,4.03-.73,2.06-2.6,1.63-4.2,1.64-4.85,.02-9.7,.02-14.55,0-3.03-.01-3.63-.56-4.36-3.52-.12-.5-.66-.98-1.12-1.31-.92-.65-2.11-1.02-2.86-1.81-1.67-1.75-3.29-3.35-5.94-3.49-.62-.03-1.33-.81-1.76-1.41-2.23-3.14-.84-9,2.44-11,.75-.46,1.32-1.32,1.77-2.12,1.86-3.35,3.58-6.77,5.48-10.09,.36-.62,1.33-.89,2.34-1.53-2.22,4.17-4.38,7.66-5.98,11.39-1.59,3.69-2.27,7.64-.99,11.68,1.08,3.41,3.34,5.71,6.69,7.27,.8-1.61,1.57-3.18,2.35-4.74l.67-.11c.09,.57,.39,1.2,.23,1.68-.49,1.55-1.32,3.01-1.68,4.58-.46,1.94,.36,2.96,2.28,2.97,5.42,.05,10.84,.01,16.25-.04,.49,0,.97-.39,1.46-.6-.27-.53-.4-1.28-.83-1.55-.82-.5-1.8-.99-2.72-1.02-2.69-.07-5.39,.13-8.08,.15-.41,0-.83-.35-1.35-.59,2.02-1.59,3.94-2.84,5.55-4.41,4.38-4.27,4.62-8.9,.81-13.7-1.1-1.39-2.48-2.56-3.66-3.89-.24-.27-.16-.81-.23-1.22,.36-.01,.88-.19,1.07-.02,3.65,3.28,7.07,6.7,6.93,12.17-.09,3.74-2.15,6.38-4.75,8.73-.25,.23-.61,.35-.91,.52,.14,.27,.28,.53,.42,.8ZM53.61,13.12c.81-.75,1.64-1.14,1.76-1.69,.71-3.22-2.01-7.89-5.19-9.1-1.95,4.44,2.34,6.77,3.43,10.8ZM3.82,36.45c-1.74,.99-2.85,4.51-1.94,7.1,.5,1.43,1.37,2.44,2.74,2.12-.27-3.16-.53-6.15-.8-9.23Zm45.22,9.4c-.82,1.71-.84,2.34,.47,3.2,2.22,1.47,4.58,2.72,6.9,4.04,.12,.07,.38-.1,.87-.25-1.62-3.85-6.93-2.98-8.24-6.99Z"/>
    <path d="M24.14,46.37c.15-.55,.14-1.27,.49-1.61,3.12-3.01,2.71-6.25-.25-9.6-.61-.69-1.32-1.31-1.88-2.03-.2-.25-.12-.73-.17-1.1,.37-.02,.83-.19,1.11-.04,5.8,3.12,6.49,10.84,.71,14.39Z"/>
    <path d="M9.78,34.01c-1.08-4.08,4.81-12.38,7.49-11.53-1.46,1.88-3.06,3.67-4.35,5.66-1.21,1.85-2.1,3.91-3.13,5.88Z"/>
    <path d="M36.69,20.34c.71,.14,1.53,.09,2.1,.44,2.94,1.81,5.8,2.04,8.76,.05,.32-.21,.94,.04,1.42,.07-.25,.45-.39,1.08-.78,1.32-2.66,1.64-5.44,2.38-8.42,.77-1.09-.59-2.2-1.14-3.3-1.71,.07-.31,.15-.63,.22-.94Z"/>
    <path d="M51.92,34.09c.64,2.82-2.32,7.38-4.03,7.73-.3,.06-.77-.01-.93-.21-.14-.18-.08-.82,.08-.9,2.36-1.27,2.75-3.82,3.92-5.87,.15-.26,.49-.4,.96-.75Z"/>
    <path d="M14.48,18.33c3.16-1.23,6.32-2.46,9.48-3.69,.15,.38,.3,.76,.44,1.14-3.16,1.24-6.32,2.48-9.49,3.73-.15-.39-.29-.78-.44-1.17Z"/>
    <path d="M63.11,23.45c-.85-.51-1.55-.68-1.68-1.05-.5-1.45-1.47-1.47-2.71-1.25-.4,.07-.87-.31-1.31-.48,.31-.31,.57-.75,.95-.91,2.3-.94,3.99,.18,4.76,3.68Z"/>
    <path class="cls-1" d="M53.61,13.12c-1.09-4.02-5.38-6.35-3.43-10.8,3.18,1.21,5.9,5.88,5.19,9.1-.12,.55-.95,.94-1.76,1.69Z"/>
    <path class="cls-1" d="M49.04,45.85c1.31,4.01,6.62,3.14,8.24,6.99-.5,.15-.75,.32-.87,.25-2.32-1.32-4.68-2.57-6.9-4.04-1.31-.86-1.29-1.49-.47-3.2Z"/>
  </g>
</svg>