<?xml version="1.0" encoding="UTF-8"?>
<svg id="Layer_2" data-name="Layer 2" xmlns="http://www.w3.org/2000/svg" viewBox="0 0 165.39 155.67">
  <defs>
    <style>
      .cls-1 {
        fill: #fff;
      }
    </style>
  </defs>
  <g id="Layer_1-2" data-name="Layer 1">
    <path d="M71.9,40.23c.75-2.41,1.2-4.96,2.32-7.19,1.03-2.05,3.17-1.67,4.44-.27,1.81,1.98,3.19,4.36,5.14,7.12,2.9-.81,6.39-2,9.97-2.76,16-3.39,31.79-3.6,46.15,5.55,4.38,2.79,7.9,7.12,11.34,11.15,1.41,1.65,2.42,2.28,4.3,1.59,2-.73,3.93-1.63,3.71-4.25-.11-1.32-.65-2.6-.77-3.92-.08-.84,.25-1.71,.4-2.57,1.02,.24,2.3,.17,3.02,.77,3.57,3,4.63,9.7,2.1,14.25-1.17,2.1-3.17,3.72-4.58,5.71-.73,1.02-1.63,2.5-1.39,3.53,3.21,14.02,.64,27.13-5.64,39.81-1.01,2.03-1.24,4.54-1.43,6.86-.37,4.42-.94,8.63-2.7,12.86-1.39,3.35-1.21,7.42-1.39,11.19-.09,1.96-.54,2.99-2.56,3.5-1.41,.35-2.62,1.46-3.97,2.12-3.49,1.69-14.9-.37-17.34-3.45-.95-1.2-1.24-3.21-1.21-4.84,.06-4.01,.49-8.01,.72-12.01,.03-.47-.23-.95-.46-1.79-3.34,.94-6.54,1.83-9.98,2.8,.35,1.57,.66,2.95,.97,4.32,.73,3.16-.18,4.95-3.32,5.84-2.05,.58-4.2,.96-6.32,1.04-4.64,.18-5.18,.76-4.29,5.36,.47,2.42,.9,4.85,1.28,7.28,.27,1.69-.42,2.7-2.16,3.14-1.07,.27-2.02,.95-3.04,1.42-1.02,.47-2.1,1.35-3.09,1.27-5.09-.41-10.36-.22-14.79-3.46-2.38-1.74-1.6-4.07-1.47-6.46,.26-4.78,.11-9.58,.16-14.37,.03-3.02-1.54-4.2-4.4-4.11-.68,.02-1.37-.22-2.87-.47,0,4.67-.16,9.05,.04,13.4,.22,4.71-.54,6.35-5.27,6.98-5.08,.67-10.25,1.8-15.4-.12-2.46-.92-2.93-2.37-2.28-4.71,1.08-3.85,1.46-7.89,2.28-11.82,1.29-6.17-1.41-11.73-2.57-17.52-.26-1.3-.87-2.52-1.23-3.8-.52-1.83-1.66-2.22-3.49-2.07-5.19,.44-9.96-.89-14.41-3.64-1.17-.72-2.62-1.2-3.99-1.33-8.45-.78-14.51-5.35-19.25-12-.81-1.14-1.42-2.55-1.71-3.92-.96-4.56,.73-6.33,5.34-6.02,.77,.05,1.64-.35,2.35-.75,1.16-.65,2.22-1.47,3.33-2.22,.67,1.17,1.36,2.33,2.02,3.5,.2,.35,.34,.73,.46,1.01,4.16,0,8.2-.04,12.24,.01,3.17,.04,7.59-3.57,8.17-6.71,1.44-7.81,1.16-15.63-.32-23.36-.34-1.78-1.68-3.78-3.16-4.85-6.34-4.58-12.57-9.5-19.49-13.01-4.98-2.53-7.45-6.92-10.42-10.74C-1.19,19.07-.55,11.61,3.99,6.57,9.45,.5,16.46-.02,23.76,0c5.62,.01,10.99,1.11,16.14,3.54,1.74,.82,3.97,.79,5.98,.85,4.31,.13,5.43,1.51,5.12,5.74-.15,2.02,.77,4.1,.84,6.17,.16,4.8,.02,9.61,.15,14.41,.04,1.62,0,4.09,.92,4.64,1.61,.96,3.73,1.29,5.71-.73,3-3.06,7.92-1.97,9.92,1.78,.58,1.09,.94,2.31,1.63,3.31,.27,.38,1.19,.3,1.81,.43-.31,.64-.62,1.28-1.17,2.43-1.35-2.22-2.26-3.93-3.37-5.51-2.41-3.42-5.76-3.39-8.47,0,1.04,.98,2.07,1.97,3.36,3.19-3.1-.07-4.76-4.41-7.89-1.35-.9-1.02-1.78-2.03-2.67-3.03-.19,.12-.39,.24-.58,.36,.49,1.76,.99,3.52,1.48,5.28-.36,.06-.71,.13-1.07,.19-.49-2.73-1.32-5.45-1.39-8.19-.09-3.28,.49-6.57,.74-9.86,.57-7.76-3.11-13.2-9.44-17.13C31.91,.52,21.56,.92,11.19,3.51,5.87,4.84,1.83,11.47,2.48,16.88c3.82-4.7,8.56-6.62,14.33-5.58,12.01,2.17,20.03,8.9,23.66,20.7,2.21,7.19,4.33,14.37,9.13,20.46,2.35,2.97,2.54,6.76,1.65,10.37-.74,2.98-2.13,5.8-2.88,8.78-.53,2.1-.75,4.36-.59,6.52,.14,1.8,1,3.55,1.59,5.31,2.28,6.82,.26,11.02-6.82,12.3-10.49,1.91-20.46-.06-29.63-5.63-2.41-1.46-3.87-3.61-4.21-6.5-.3-2.56-2.26-1.9-3.81-1.76-1.71,.15-2.09,1.22-1.85,2.85,1.02,7.23,10.82,15.35,18.5,15.21-.29-.77-.58-1.52-.86-2.27,5.52,4.93,11.47,7.84,19.05,7.69,10.24-.2,18.08-9.36,15.56-17.82-.49-1.65-.62-3.49-.49-5.21,.15-1.99,.77-3.94,1.19-5.91,.24,.06,.48,.11,.72,.17-.2,2.24-.39,4.47-.61,6.86,3.24-1.49,5.94-2.68,8.6-3.97,7.03-3.4,13.23-7.52,13.05-16.57-.06-2.87-.42-5.74-.66-8.6-.08-.91-.19-1.82-.29-2.73,.31-.04,.61-.08,.92-.13,.59,2.56,1.35,5.1,1.73,7.7,1.39,9.56-2.19,16.19-10.9,20.33-3.06,1.46-6.18,2.81-9.28,4.19-1.93,.86-2.79,2.12-2.28,4.37,1.45,6.36-1.28,11.29-5.84,15.33-1.71,1.52-3.96,2.44-6.08,3.7,.89,2.73,1.73,5.69,2.82,8.56,2.75,7.23,3.13,14.58,1.4,22.08-.32,1.4-.31,2.29,1.19,3.29,2.4,1.59,6.21,1.01,7.3,4.65,.05,.18,.77,.27,1.15,.22,1.93-.26,3.86-.51,5.76-.92,1.96-.43,2.41-1.8,2.34-3.73-.14-3.8-.16-7.61,.04-11.41,.13-2.41-.24-3.94-2.86-4.89-2.52-.91-4.74-2.64-7.1-4.01,.18-.36,.36-.71,.54-1.07,5.28,2.82,10.55,5.64,17.01,5.79-.48-1.12-.77-1.8-1.05-2.48,.27-.21,.54-.41,.81-.62,.66,.72,1.73,1.36,1.91,2.19,1.62,7.44,3.45,14.9,1.45,22.59-.68,2.62,.57,3.81,2.98,4.1,2.67-3.33,3.26-3.45,7.1-1.69,1.18-.63,2.2-1.46,3.33-1.7,2.16-.44,4.39-.54,6.64-.78-1.24-8.41-.89-16.11,.11-23.98,.2,2.59,1.84,2.52,3.44,2.3,3.26-.44,6.53-.83,9.75-1.48,12.93-2.63,24.05-8.23,31.65-19.56,4.28-6.38,6.47-13.49,7.65-21,.27-1.73,.61-3.45,.92-5.17,.26,.04,.52,.08,.78,.12,0,1.09,.08,2.19-.01,3.28-1.59,17.8-9.34,31.55-25.93,39.5-.72,.34-1.65,1.13-1.72,1.79-.49,4.7-.8,9.42-1.13,14.13-.15,2.13,.49,3.82,2.79,4.39,3.03-3.52,3.82-3.7,6.81-2.16,4.43-1.03,8.24-1.92,11.33-2.64,1.01-3.89,1.91-7.22,2.73-10.58,.75-3.07,1.41-6.16,2.11-9.24,.81-3.57,1.15-7.32,2.49-10.68,3.92-9.84,7.38-19.63,5.75-30.53-3.05-20.41-15.65-36.13-38.3-38.32-10.82-1.05-21.34,.4-31.79,2.93-2.58,.62-4.9,1.28-6.27,4.17-.85,1.8-3.1,2.74-5.91,1.13,3.07-1.29,6.09-2.12,5.54-5.96-.42-2.95-1.62-5.25-5.04-6.41-1.24,2.36-2.46,4.68-3.68,6.99ZM4.64,23.58c2.25-.69,4.04-1.83,5.64-1.61,2.59,.36,1.6,2.86,1.72,4.6,.26,3.6,1.12,6.63,4.95,8.31,2.79,1.22,5.35,3.09,7.83,4.91,5.63,4.12,11.37,8.15,16.63,12.72,2.2,1.91,4.88,5.32,4.54,7.65-.67,4.61-2.7,9.3-5.26,13.26-2.31,3.58-6.07,6.22-9.43,9.52,1.26,.83,2.72,2.42,4.44,2.79,4.12,.88,8.36,1.18,12.71,1.73-.13-.59-.25-1.6-.6-2.52-2.33-6.12-2.89-12.1,.68-18.04,.82-1.36,1.35-3.17,1.26-4.73-.15-2.8-.06-6.12-1.5-8.25-4.58-6.79-7.14-14.32-9.68-21.95-2.83-8.52-7.86-15.13-16.75-17.99-5.14-1.65-10.3-1.97-15.18,.98-3.96,2.4-4.51,5.76-2.01,8.62Zm29.61,63.47c-3.79,.89-6.58,1.55-9.37,2.21-.1-.27-.19-.54-.29-.81,2.43-.95,4.87-1.9,7.43-2.91-3.73-2.92-7.99-3.1-12.3-2.65-1.41,.15-3.81,1.03-3.89,1.77-.25,2.42-.54,5.49,2.58,6.54,3.77,1.27,7.66,2.18,11.53,3.09,.7,.16,2.06-.25,2.29-.76,.77-1.73,1.17-3.63,2.02-6.48Zm3.05-36.08v23.83c.1-.06,.6-.19,.74-.48,2.25-4.69,4.47-9.4,6.65-14.12,.15-.32,.1-.86-.08-1.19-1.78-3.38-4.31-6.04-7.31-8.04Zm61.52,76.72c-.9,3.49,1,6.18,3.17,6.87,2.42,.77,5.5-.39,8.25-.93,.43-.08,.97-1.35,.9-2-.21-1.79-.72-3.55-1.12-5.38-3.87,.5-7.49,.96-11.2,1.44Zm62.6-79.63c-.4,2.09-.21,4.72-1.4,6.32-1.3,1.76-3.88,2.57-6.09,3.9,.83,1.87,1.8,4.05,2.78,6.25,6.94-3.7,8.89-11.57,4.7-16.48ZM39.08,94.22c4.87,.51,7.66-.92,8.83-4.71-2.86-.74-5.7-1.47-8.83-2.27v6.98Zm-24.79-5.77c-.36-2.71-.66-5.35-1.11-7.95-.1-.56-.7-1.19-1.23-1.44-.26-.12-1.1,.46-1.33,.9-1.59,3.07,.15,7.19,3.67,8.49Zm-3.82-57.05c.25-.26,.5-.51,.76-.77-.19-1.99-.33-3.99-.59-5.98-.08-.61-.43-1.64-.74-1.67-.71-.08-2.11,.34-2.12,.57-.02,1.84,0,3.75,.47,5.51,.25,.92,1.45,1.57,2.22,2.35Zm124.2,112.16c2.21,.73,4.27,1.12,5.58-.94,.24-.38-1.22-2.63-2.1-2.78-2.51-.42-3.1,1.56-3.48,3.72ZM33.56,95.21c1.62-.81,2.94-1.04,3.15-1.65,.73-2.09,1.34-4.35-.88-6.92-.77,2.92-1.38,5.2-2.27,8.57Zm58.29,54.29c-.37,.03-.74,.06-1.11,.09-.57,1.2-1.13,2.41-1.7,3.61,.84,.23,1.73,.75,2.51,.62,.89-.15,1.68-.88,2.52-1.35-.74-.99-1.48-1.98-2.21-2.97ZM45.41,6.15c1.26,1.46,2.4,2.79,3.77,4.37,.59-4.11-.22-4.94-3.77-4.37Zm86.79,137.48c.17-.27,.35-.53,.52-.8-.72-.81-1.32-2.06-2.19-2.29-.64-.17-1.63,1-2.46,1.57l.22,.9,3.91,.62Zm-49.68,8.08c.03,.38,.05,.75,.08,1.13,1.26,.19,2.52,.38,3.78,.57l.45-.79c-.57-.7-1.06-1.88-1.72-1.98-.79-.12-1.72,.68-2.59,1.08Z"/>
    <path class="cls-1" d="M71.9,40.23c1.22-2.31,2.43-4.62,3.68-6.99,3.42,1.16,4.61,3.46,5.04,6.41,.55,3.84-2.47,4.67-5.54,5.96,2.81,1.61,5.06,.67,5.91-1.13,1.37-2.9,3.68-3.55,6.27-4.17,10.45-2.52,20.97-3.98,31.79-2.93,22.65,2.19,35.24,17.92,38.3,38.32,1.63,10.9-1.83,20.69-5.75,30.53-1.34,3.36-1.69,7.11-2.49,10.68-.7,3.08-1.36,6.17-2.11,9.24-.82,3.36-1.72,6.69-2.73,10.58-3.09,.72-6.9,1.61-11.33,2.64-2.99-1.53-3.78-1.35-6.81,2.16-2.3-.58-2.93-2.26-2.79-4.39,.32-4.72,.64-9.43,1.13-14.13,.07-.66,1-1.45,1.72-1.79,16.59-7.95,24.34-21.7,25.93-39.5,.1-1.08,.01-2.18,.01-3.28-.26-.04-.52-.08-.78-.12-.31,1.72-.65,3.44-.92,5.17-1.18,7.5-3.37,14.62-7.65,21-7.6,11.32-18.72,16.92-31.65,19.56-3.22,.66-6.49,1.05-9.75,1.48-1.6,.21-3.24,.29-3.44-2.3-.99,7.86-1.34,15.56-.11,23.98-2.25,.24-4.48,.34-6.64,.78-1.13,.23-2.14,1.07-3.33,1.7-3.84-1.76-4.43-1.64-7.1,1.69-2.42-.29-3.66-1.48-2.98-4.1,1.99-7.69,.17-15.14-1.45-22.59-.18-.83-1.25-1.46-1.91-2.19-.27,.21-.54,.41-.81,.62,.29,.68,.58,1.35,1.05,2.48-6.46-.15-11.73-2.97-17.01-5.79-.18,.36-.36,.71-.54,1.07,2.35,1.37,4.58,3.09,7.1,4.01,2.62,.95,2.98,2.48,2.86,4.89-.2,3.79-.18,7.61-.04,11.41,.07,1.93-.38,3.3-2.34,3.73-1.9,.41-3.83,.65-5.76,.92-.38,.05-1.1-.04-1.15-.22-1.1-3.64-4.91-3.06-7.3-4.65-1.5-1-1.51-1.89-1.19-3.29,1.73-7.49,1.36-14.85-1.4-22.08-1.09-2.86-1.93-5.82-2.82-8.56,2.12-1.26,4.37-2.18,6.08-3.7,4.56-4.03,7.28-8.96,5.84-15.33-.51-2.24,.35-3.51,2.28-4.37,3.1-1.38,6.22-2.73,9.28-4.19,8.71-4.15,12.3-10.77,10.9-20.33-.38-2.6-1.14-5.13-1.73-7.7-.31,.04-.61,.08-.92,.13,.1,.91,.21,1.82,.29,2.73,.24,2.87,.6,5.73,.66,8.6,.18,9.05-6.02,13.17-13.05,16.57-2.66,1.29-5.37,2.48-8.6,3.97,.21-2.39,.41-4.62,.61-6.86-.24-.06-.48-.11-.72-.17-.42,1.97-1.04,3.92-1.19,5.91-.13,1.72,0,3.57,.49,5.21,2.51,8.46-5.33,17.62-15.56,17.82-7.59,.15-13.53-2.76-19.05-7.69,.28,.75,.57,1.5,.86,2.27-7.68,.14-17.48-7.98-18.5-15.21-.23-1.63,.14-2.7,1.85-2.85,1.55-.14,3.51-.8,3.81,1.76,.34,2.88,1.8,5.04,4.21,6.5,9.17,5.57,19.14,7.54,29.63,5.63,7.08-1.29,9.1-5.49,6.82-12.3-.59-1.76-1.46-3.51-1.59-5.31-.16-2.15,.06-4.42,.59-6.52,.75-2.98,2.14-5.8,2.88-8.78,.89-3.61,.7-7.4-1.65-10.37-4.81-6.09-6.92-13.28-9.13-20.46-3.63-11.8-11.66-18.53-23.66-20.7-5.76-1.04-10.5,.88-14.33,5.58C1.83,11.47,5.87,4.84,11.19,3.51,21.56,.92,31.91,.52,41.52,6.5c6.33,3.94,10.01,9.38,9.44,17.13-.24,3.29-.82,6.58-.74,9.86,.07,2.74,.9,5.46,1.39,8.19,.36-.06,.71-.13,1.07-.19-.49-1.76-.99-3.52-1.48-5.28,.19-.12,.39-.24,.58-.36,.89,1.01,1.77,2.01,2.67,3.03,3.13-3.06,4.79,1.28,7.89,1.35-1.29-1.22-2.32-2.2-3.36-3.19,2.71-3.4,6.06-3.43,8.47,0,1.11,1.57,2.02,3.28,3.37,5.51,.55-1.15,.86-1.79,1.17-2.43,0,0-.09,.1-.09,.1Zm14.88,9.74c11.21,2.49,19.48,8.33,24.7,18.21-1.96-11.69-19.06-21.23-24.7-18.21Z"/>
    <path class="cls-1" d="M4.64,23.58c-2.5-2.87-1.95-6.23,2.01-8.62,4.88-2.95,10.03-2.64,15.18-.98,8.89,2.86,13.92,9.47,16.75,17.99,2.53,7.63,5.1,15.16,9.68,21.95,1.44,2.14,1.35,5.45,1.5,8.25,.09,1.56-.45,3.37-1.26,4.73-3.57,5.94-3.02,11.92-.68,18.04,.35,.92,.46,1.93,.6,2.52-4.34-.55-8.59-.85-12.71-1.73-1.72-.37-3.18-1.96-4.44-2.79,3.36-3.3,7.12-5.94,9.43-9.52,2.55-3.96,4.59-8.65,5.26-13.26,.34-2.32-2.35-5.74-4.54-7.65-5.26-4.57-11-8.59-16.63-12.72-2.49-1.82-5.04-3.69-7.83-4.91-3.83-1.68-4.69-4.71-4.95-8.31-.12-1.73,.86-4.24-1.72-4.6-1.6-.22-3.39,.91-5.64,1.61Zm20.74,2.58c-.1,3.95,.74,5.4,3.07,5.45,2.03,.05,3.74-2.28,3.79-5.13,.04-2.47-1.93-4.45-4.4-4.43-3.24,.02-2.08,2.59-2.46,4.1Z"/>
    <path class="cls-1" d="M34.26,87.06c-.85,2.86-1.25,4.75-2.02,6.48-.23,.51-1.59,.92-2.29,.76-3.87-.9-7.76-1.82-11.53-3.09-3.12-1.05-2.83-4.12-2.58-6.54,.08-.74,2.48-1.62,3.89-1.77,4.3-.46,8.57-.28,12.3,2.65-2.56,1-4.99,1.95-7.43,2.91,.1,.27,.19,.54,.29,.81,2.79-.66,5.59-1.31,9.37-2.21Z"/>
    <path class="cls-1" d="M37.31,50.98c3.01,2,5.53,4.67,7.31,8.04,.17,.33,.23,.87,.08,1.19-2.18,4.72-4.4,9.43-6.65,14.12-.14,.29-.64,.42-.74,.48v-23.83Z"/>
    <path class="cls-1" d="M98.83,127.7c3.7-.48,7.32-.94,11.2-1.44,.4,1.83,.91,3.59,1.12,5.38,.08,.65-.46,1.92-.9,2-2.75,.54-5.83,1.7-8.25,.93-2.17-.69-4.07-3.39-3.17-6.87Z"/>
    <path class="cls-1" d="M161.43,48.06c4.18,4.91,2.24,12.78-4.7,16.48-.98-2.2-1.95-4.38-2.78-6.25,2.21-1.34,4.78-2.15,6.09-3.9,1.19-1.6,1-4.23,1.4-6.32Z"/>
    <path class="cls-1" d="M39.08,94.22v-6.98c3.13,.8,5.97,1.54,8.83,2.27-1.17,3.79-3.96,5.22-8.83,4.71Z"/>
    <path class="cls-1" d="M14.29,88.45c-3.52-1.3-5.26-5.42-3.67-8.49,.23-.44,1.07-1.02,1.33-.9,.53,.24,1.13,.88,1.23,1.44,.46,2.61,.75,5.24,1.11,7.95Z"/>
    <path class="cls-1" d="M10.47,31.41c-.77-.77-1.97-1.43-2.22-2.35-.48-1.76-.49-3.66-.47-5.51,0-.23,1.4-.64,2.12-.57,.31,.03,.66,1.06,.74,1.67,.26,1.98,.4,3.98,.59,5.98-.25,.26-.5,.51-.76,.77Z"/>
    <path class="cls-1" d="M134.66,143.57c.38-2.15,.97-4.13,3.48-3.72,.88,.15,2.34,2.4,2.1,2.78-1.31,2.06-3.36,1.67-5.58,.94Z"/>
    <path class="cls-1" d="M33.56,95.21c.89-3.37,1.5-5.65,2.27-8.57,2.22,2.57,1.61,4.83,.88,6.92-.22,.61-1.53,.84-3.15,1.65Z"/>
    <path class="cls-1" d="M91.84,149.51c.74,.99,1.48,1.98,2.21,2.97-.84,.48-1.63,1.2-2.52,1.35-.78,.13-1.67-.39-2.51-.62,.57-1.2,1.13-2.41,1.7-3.61,.37-.03,.74-.06,1.11-.09Z"/>
    <path class="cls-1" d="M45.41,6.15c3.54-.57,4.35,.27,3.77,4.37-1.36-1.58-2.51-2.91-3.77-4.37Z"/>
    <path class="cls-1" d="M132.2,143.63l-3.91-.62-.22-.9c.83-.57,1.82-1.74,2.46-1.57,.87,.23,1.48,1.48,2.19,2.29-.17,.27-.35,.53-.52,.8Z"/>
    <path class="cls-1" d="M82.52,151.71c.87-.4,1.8-1.2,2.59-1.08,.66,.1,1.15,1.28,1.72,1.98l-.45,.79c-1.26-.19-2.52-.38-3.78-.57-.03-.38-.05-.75-.08-1.13Z"/>
    <path d="M86.78,49.97c5.64-3.01,22.74,6.52,24.7,18.21-5.22-9.89-13.49-15.72-24.7-18.21Z"/>
    <path d="M25.38,26.17c.38-1.51-.79-4.08,2.46-4.1,2.47-.02,4.43,1.96,4.4,4.43-.04,2.85-1.76,5.18-3.79,5.13-2.33-.06-3.17-1.5-3.07-5.45Zm2.29-3.29c-.28,.22-.56,.45-.83,.67,0,1.71-.23,3.47,.13,5.1,.12,.56,1.7,.8,2.62,1.18,.3-1.76,.87-3.54,.76-5.27-.04-.61-1.73-1.12-2.67-1.68Z"/>
    <path class="cls-1" d="M27.67,22.87c.94,.56,2.63,1.07,2.67,1.68,.11,1.73-.46,3.51-.76,5.27-.91-.39-2.49-.63-2.62-1.18-.35-1.63-.13-3.39-.13-5.1,.28-.22,.56-.45,.83-.67Z"/>
  </g>
</svg>