<?xml version="1.0" encoding="UTF-8"?>
<svg id="Layer_2" data-name="Layer 2" xmlns="http://www.w3.org/2000/svg" viewBox="0 0 74.33 75.46">
  <defs>
    <style>
      .cls-1 {
        fill: #fff;
      }
    </style>
  </defs>
  <g id="Layer_1-2" data-name="Layer 1">
    <path d="M44.66,40.97c-.71-1.27-1.37-2.44-2.02-3.62l.42-.5c1.6,.35,3.2,.71,4.23,.94,1.13-1.35,1.96-2.46,2.97-3.38,.11-.1,1.23,.92,1.95,1.47,.48-1.67,.96-3.54,1.57-5.36,.31-.93,.84-1.8,1.3-2.68,.62-1.17,1.38-1.44,2.57-.6,.85,.6,1.89,.93,3.07,1.48-1.35,2.33-2.69,4.65-4.34,7.52,1.47-.29,2.27-.46,3.08-.61,.51-.09,1.04-.14,1.56-.21-.07,.58-.12,1.15-.22,1.73-.04,.26-.17,.5-.37,1.08,2.18-.55,4.08-1.06,6-1.49,.49-.11,1.04,.04,1.57,.07-.11,.52-.08,1.14-.36,1.53-.84,1.14-1.8,2.18-2.72,3.26,.3,.09,.89,.23,1.46,.43,4.41,1.57,7.01,4.55,7.74,9.29,1.41,9.24-3.46,18.96-11.4,22.38-12.18,5.23-25.08-1.65-27.72-14.91-.44-2.19-.63-4.59-.25-6.77,.99-5.64,3.78-9.94,9.95-11.05Zm3.53,2.08c-4.98-1.54-9.9,1.35-11.38,6.81-1.89,7.01-.16,13.32,4.77,18.55,4.76,5.06,10.83,6.37,17.45,4.85,10.68-2.46,15.19-13.92,13.39-22.42-1.2-5.65-7.34-9.29-12.19-7.66-.25,1.53-.49,2.97-.79,4.78-.7-.54-.94-.67-1.11-.87-3.08-3.61-3.05-3.53-7.3-2.07-1.63,.56-3.42,.64-5.13,.95-.07-.26-.15-.52-.22-.78,.81-.69,1.62-1.38,2.52-2.15Zm16.05-3.94c-2.45,.34-4.9,.73-7.35,1.02-2.26,.27-2.92-.33-2.19-2.47,.89-2.6,2.22-5.04,3.36-7.55,.08-.18,.1-.38,.18-.67-.59-.28-1.14-.54-2.29-1.07-.78,3.17-1.65,6.07-2.18,9.03-.51,2.83-.35,2.88-3.13,2.57-1.55-.18-3.09-.44-4.63-.66l-.18,.81c1.53,.41,3.06,.82,4.9,1.31-.12,.38-.39,1.23-.85,2.7,3.08-2.59,5.88-2.94,8.48,.31-.22-1.06-.65-1.75-.98-2.48-.12-.27-.09-.69,.04-.95,.08-.17,.59-.33,.72-.23,2.68,1.85,4.23-.66,6.09-1.66Z"/>
    <path d="M7.55,13.64c-.43-1.26-.81-2.33-1.18-3.41,1.07,.1,2.15,.19,3.22,.32,.91,.11,1.82,.26,2.83,.4,.09-1.11,.07-2.1,.28-3.04,.11-.48,.63-.87,.97-1.3,.39,.34,.83,.65,1.17,1.03,.44,.5,.82,1.06,1.53,2.01,.51-1.81,.88-3.13,1.25-4.44,.08-.27,.17-.54,.25-.81,1.67-5.19,2.28-5.42,7.32-2.56-.72,1.11-1.47,2.19-2.14,3.32-.64,1.09-1.2,2.24-2,3.74,1.47-.35,2.56-.6,3.95-.93-.07,1.18-.12,2.06-.19,3.22,1.64-.31,3.22-.64,4.8-.89,.64-.1,1.3-.04,1.96-.05-.21,.7-.36,1.43-.64,2.1-.15,.37-.5,.66-.93,1.2,5.21,.56,7.04,3.99,7.61,8.43,1,7.79-.25,14.87-7.08,19.79-6.88,4.96-22.22,4.9-27.74-4.9C-.47,31.06-.67,24.91,1.14,18.69c.89-3.07,3.28-4.73,6.41-5.05Zm3.68,1.94c-5.53-1.25-8.61,.89-9.3,6.49-.09,.71-.22,1.41-.26,2.12-.32,6.59,.98,12.62,6.93,16.44,5.53,3.55,11.61,3.39,17.69,1.54,3.33-1.01,5.9-3.18,7.59-6.21,3.02-5.41,3.18-11.15,1.39-16.95-.84-2.74-3.13-3.81-5.82-3.82-1.59,0-3.19,.39-4.6,.58-.25,1.15-.44,1.98-.68,3.09-2.98-2.01-5.75-2.92-8.88-1.18-.82,.46-1.94,.56-2.91,.54-1.12-.02-2.23-.34-3.34-.53,.7-.68,1.4-1.36,2.18-2.12Zm-1.95-3.44c1.77,1.79,3.56,2.38,6.33,1.37-.68,1.27-1.05,1.98-1.73,3.26,1.77-.81,3.06-1.83,4.41-1.91,1.39-.08,2.83,.77,4.13,1.17-.18-.67-.36-1.36-.54-2.06,.63,.12,1.32,.46,1.89,.32,1.63-.4,3.22-1,4.82-1.51-.06-.16-.12-.33-.18-.49-3.05,.34-6.1,.67-9.26,1.02-.35-4.45,1.64-7.59,3.71-10.82-.66-.35-1.25-.66-1.92-1.01-1.88,3.04-2.56,6.29-2.9,9.63-.15,1.47-.57,2.21-2.25,1.89-2.01-.38-4.07-.56-6.52-.87Z"/>
    <path class="cls-1" d="M48.19,43.06c-.91,.77-1.71,1.46-2.52,2.15,.07,.26,.15,.52,.22,.78,1.72-.3,3.5-.39,5.13-.95,4.25-1.45,4.22-1.54,7.3,2.07,.17,.2,.41,.33,1.11,.87,.3-1.81,.54-3.25,.79-4.78,4.85-1.63,10.99,2,12.19,7.66,1.81,8.5-2.71,19.96-13.39,22.42-6.62,1.52-12.69,.2-17.45-4.85-4.93-5.24-6.66-11.54-4.77-18.55,1.48-5.46,6.39-8.35,11.38-6.81Zm-5.92,2.76c-.54,.27-.74,.35-.92,.46-2.89,1.74-4.55,11.1-2.4,13.72,.18,.22,.75,.44,.87,.34,.27-.21,.57-.71,.49-.97-1.32-4.36-1.07-8.42,2.03-12.05,.21-.24-.03-.87-.07-1.49Zm24.92,18.43c-2.74,1.9-5.09,3.52-7.43,5.18-.34,.24-.54,.65-.81,.99,.45,.14,.99,.52,1.35,.39,2.9-1.01,5.25-2.82,6.97-5.36,.22-.33-.06-1.01-.08-1.2Z"/>
    <path class="cls-1" d="M64.24,39.12c-1.86,1-3.41,3.52-6.09,1.66-.14-.09-.64,.07-.72,.23-.13,.27-.16,.68-.04,.95,.33,.73,.75,1.42,.98,2.48-2.6-3.26-5.39-2.9-8.48-.31,.46-1.47,.73-2.33,.85-2.7-1.84-.49-3.37-.9-4.9-1.31l.18-.81c1.54,.22,3.08,.49,4.63,.66,2.77,.31,2.62,.26,3.13-2.57,.53-2.96,1.4-5.86,2.18-9.03,1.15,.54,1.7,.8,2.29,1.07-.08,.29-.1,.49-.18,.67-1.14,2.51-2.47,4.95-3.36,7.55-.73,2.15-.07,2.74,2.19,2.47,2.46-.29,4.9-.68,7.35-1.02Z"/>
    <path class="cls-1" d="M11.23,15.57c-.79,.76-1.48,1.44-2.18,2.12,1.11,.19,2.23,.52,3.34,.53,.98,.01,2.09-.08,2.91-.54,3.13-1.75,5.9-.83,8.88,1.18,.24-1.11,.43-1.94,.68-3.09,1.41-.19,3-.59,4.6-.58,2.69,0,4.97,1.07,5.82,3.82,1.79,5.8,1.63,11.54-1.39,16.95-1.69,3.03-4.26,5.2-7.59,6.21-6.08,1.84-12.16,2.01-17.69-1.54C2.65,36.8,1.36,30.77,1.67,24.18c.03-.71,.17-1.41,.26-2.12,.69-5.6,3.77-7.74,9.3-6.49ZM3.34,25.92c.08,.02,.16,.04,.24,.05,.05,.92-.03,1.87,.18,2.76,.15,.67,.65,1.27,1,1.9,.2-.65,.58-1.31,.56-1.95-.1-3.39-.58-6.82,1.61-9.84,.12-.16,.08-.66-.05-.74-.25-.16-.78-.3-.91-.17-.53,.53-1.2,1.11-1.37,1.78-.53,2.04-.85,4.14-1.25,6.21Zm27.85,11.2l-.44-1.07c-2.45,1.14-4.91,2.25-7.33,3.45-.17,.09-.02,.82-.02,1.98,2.89-1.62,5.34-3,7.79-4.37Z"/>
    <path class="cls-1" d="M9.28,12.13c2.45,.32,4.5,.49,6.52,.87,1.68,.32,2.1-.43,2.25-1.89,.34-3.34,1.02-6.59,2.9-9.63,.66,.35,1.25,.66,1.92,1.01-2.07,3.24-4.06,6.37-3.71,10.82,3.16-.35,6.21-.69,9.26-1.02,.06,.16,.12,.33,.18,.49-1.6,.52-3.19,1.11-4.82,1.51-.57,.14-1.26-.2-1.89-.32,.18,.69,.36,1.39,.54,2.06-1.3-.41-2.74-1.25-4.13-1.17-1.34,.07-2.63,1.09-4.41,1.91,.68-1.28,1.06-1.99,1.73-3.26-2.77,1.01-4.56,.42-6.33-1.37Z"/>
    <path d="M42.27,45.82c.04,.62,.28,1.25,.07,1.49-3.1,3.63-3.35,7.69-2.03,12.05,.08,.27-.22,.76-.49,.97-.13,.1-.69-.12-.87-.34-2.15-2.62-.49-11.98,2.4-13.72,.18-.11,.37-.19,.92-.46Z"/>
    <path d="M67.19,64.25c.02,.2,.3,.87,.08,1.2-1.72,2.54-4.06,4.35-6.97,5.36-.36,.13-.9-.25-1.35-.39,.27-.33,.48-.75,.81-.99,2.33-1.66,4.69-3.28,7.43-5.18Z"/>
    <path d="M3.34,25.92c.4-2.08,.72-4.17,1.25-6.21,.17-.67,.84-1.25,1.37-1.78,.13-.13,.66,0,.91,.17,.13,.09,.17,.58,.05,.74-2.19,3.02-1.71,6.45-1.61,9.84,.02,.64-.37,1.3-.56,1.95-.35-.63-.85-1.22-1-1.9-.2-.89-.13-1.83-.18-2.76-.08-.02-.16-.04-.24-.05Z"/>
    <path d="M31.19,37.12c-2.45,1.37-4.89,2.75-7.79,4.37,0-1.17-.15-1.9,.02-1.98,2.42-1.2,4.88-2.32,7.33-3.45l.44,1.07Z"/>
  </g>
</svg>