<?xml version="1.0" encoding="UTF-8"?>
<svg id="Layer_2" data-name="Layer 2" xmlns="http://www.w3.org/2000/svg" viewBox="0 0 89.51 56.53">
  <defs>
    <style>
      .cls-1 {
        fill: #fff;
      }
    </style>
  </defs>
  <g id="Layer_1-2" data-name="Layer 1">
    <path d="M58.17,37.19c-3.19,3.68-2.1,7.59-1.37,11.35,.4,2.06,1.35,4.02,2.09,6,.5,1.32,.04,1.78-1.32,1.88-5.5,.39-5.78-.08-5.92-5.77-.11-4.37-.86-8.72-1.37-13.5-8.45,2.59-16.19,1.24-23.9-2.08q.43,3.49-2.73,4.54c-.22,.08-.38,.36-.56,.56-1.8,1.94-2.93,1.75-4.27-.67-2.25,1.55-1.52,3.44-.44,5.27,1.61,2.74,3.33,5.42,4.94,8.15,.37,.63,.51,1.41,.76,2.12-.72,.17-1.44,.47-2.16,.48-4.89,.05-4.77-.01-6.35-4.69-1.09-3.22-2.59-6.31-3.9-9.46-.35-.83-.69-1.67-1.1-2.65-1.76,.66-3.21,1.7-2.71,4.06,.7,3.31,1.49,6.6,2.26,9.9,.15,.62,.42,1.21,.6,1.82,.35,1.19,.11,1.99-1.35,1.9-.07,0-.14,0-.21,0-5.39,.25-5.58,0-5.66-5.42-.04-2.84-.27-5.69-.61-8.51-.14-1.14-.62-2.33-1.25-3.29C.07,36.75-.17,34.12,.09,31.37c.42-4.59,.59-9.22,1.42-13.74,.58-3.15,1.72-6.32,3.24-9.14,1.76-3.27,4.94-4.58,8.72-4.15,1.27,.15,2.55,.28,3.98,.44-.09,.82-.18,1.62-.27,2.45-2.27-2.44-8.31-1.91-10.51,1.33-1.6,2.35-2.48,5.21-3.5,7.91-.41,1.1-.4,2.38-.47,3.59-.22,3.81,.11,7.64-1.05,11.41-.47,1.52-.08,3.31-.08,5.38,3.12-1.16,2.72-3.41,2.68-5.21-.06-2.98-.65-5.95-.75-8.93-.14-4.42,.62-8.66,3.35-12.33,.3-.4,.6-.82,.99-1.11,.21-.16,.79-.23,.88-.11,.2,.28,.41,.88,.27,1.05-3.32,3.82-2.63,8.43-1.32,12.39,1.91,5.78,.7,10.25-3.13,14.55-.52,.59-.53,1.84-.43,2.75,.37,3.39,.88,6.77,1.36,10.4,.4,.02,.98,.06,1.58,.09,.06-.37,.14-.57,.12-.76-.28-2.12-.59-4.23-.86-6.35-.39-3.02,.17-4.08,2.79-5.59,2.22-1.28,4.63-2.34,6.58-3.95,2.38-1.96,4.35-4.4,6.53-6.61,.44-.45,.98-.8,1.7-.94-1.26,4.43-4.48,7.04-7.94,9.35v4.13c.19,.05,.38,.1,.57,.15,.25-.57,.4-1.23,.78-1.7,.46-.57,1.11-.99,1.68-1.47,.43,.53,.92,1.02,1.27,1.59,.29,.49,.42,1.09,.62,1.63,.24-.04,.47-.07,.71-.11,0-.62-.08-1.25,.02-1.85,.1-.62,.38-1.22,.59-1.82,.48,.34,.98,.64,1.43,1.02,.33,.28,.59,.65,1.13,1.26,.11-.71,.18-1.02,.21-1.34,.07-.8-.18-1.84,.23-2.34,.83-1,1.89-1.35,3.38-.62,6.04,2.94,12.43,3.38,18.98,2.23,.48-.08,.93-.31,1.39-.46-.24-1.41-.88-1.71-2.26-1.43-5.9,1.19-11.63,.45-17.1-2.05-.58-.26-.99-.9-1.25-1.7,5.11,1.86,10.16,3.16,15.51,2.65,1.18-.11,2.34-.46,3.53-.7-.11-1.5-.26-2.83-.28-4.16,0-.38,.4-.76,.62-1.13,.26,.33,.72,.65,.75,1,.22,2.75,1.1,5.19,2.6,7.57,.86,1.35,.91,3.26,1.16,4.94,.41,2.74,.77,5.5,1,8.26,.13,1.54,.88,1.5,1.74,1.25,0-3.73-.42-7.37,.13-10.86,.46-2.94,2.05-5.7,3.16-8.52,.05-.12,.38-.15,.58-.16,.2,0,.4,.07,.74,.14-.05,.77-.11,1.52-.16,2.26,2.83-.9,3.21-1.49,2.72-4.21-.47-2.58-.95-5.36,1.71-6.96,3.51-2.11,6.96-5.03,11.55-2.07,2.19,1.41,4.7,2.34,6.85,3.39-.13-.56-.31-1.35-.5-2.13,.75,.47,1.68,.8,2.19,1.46,.86,1.1,1.75,1.46,2.91,.69,1.15-.77,1.26-1.73,.41-2.9-1.98-2.71-2.48-5.85-2.44-9.02-2.01-1.98-3.57,.7-5.63,.56,.96-2.66,2.88-2.94,5.18-2.71-.52-2.18-1.46-3.47-4.04-2.62,.25-.95,.4-1.53,.55-2.11-.16-.09-.32-.17-.48-.26-.55,.89-1.13,1.76-1.64,2.67-.19,.34-.19,.79-.28,1.19-.41-.17-.87-.27-1.21-.53-1.16-.91-2.18-2.04-3.44-2.76-.54-.31-1.69,.01-2.27,.44-.27,.2-.04,1.51,.34,2.03,.66,.89,1.58,1.61,2.47,2.29,.92,.7,.92,1.13-.16,1.6-.4,.17-.77,.53-1.04,.88-1.74,2.27-3.89,2.95-6.11,1.29-3.23-2.42-7.57-3.17-10.01-6.75-.18-.26-.76-.38-1.14-.35-3.89,.29-7.78,.63-11.74,.97-.47,2.45,.66,5.28-1.73,7.06-1.54,1.15-3.26,2.05-4.9,3.07-.17-.25-.34-.5-.51-.76,1.5-1.2,3.41-2.15,4.39-3.68,.97-1.51,.99-3.63,1.37-5.25-1.4-.52-2.22-.83-3.35-1.25,.61-.53,.71-.7,.81-.7,9.23-.02,18.43-2.08,27.7-.47,.65,.11,1.57-.47,2.16-.97,1.35-1.15,2.52-2.51,3.87-3.65,1.3-1.09,3.05-.8,4.18,.57,.44,.54,.76,1.19,1.27,2.01,1.88-1.36,3.9-1.57,6.12-.78,1.18,.42,1.51,.9,.58,1.72-1.37,1.21-1.29,2.38-.52,3.9,.53,1.05,.87,2.33,.85,3.5-.06,3.25,.68,6.13,2.58,8.84,1.28,1.82-.39,4.54-2.85,4.83-2.57,.31-5,.34-7.12-1.81-1.71-1.75-4.03-2.06-6.31-.8-3.04,1.69-5.32,3.9-5.96,7.58-.35,2.01-1.05,4.01-1.92,5.86-2.09,4.46-.88,8.76,.4,13.06,.36,1.22,1.02,2.35,1.42,3.56,.35,1.04-.08,1.66-1.26,1.61-.07,0-.14,0-.21,0-5.68,.32-5.99-.05-5.85-5.78,.05-2.05-.19-4.12-.41-6.18-.18-1.65-.53-3.29-.84-5.17Zm1.27-30.89c-.07,.18-.13,.35-.2,.53,.72,.53,1.4,1.11,2.17,1.57,2,1.19,3.97,2.48,6.09,3.43,1.03,.46,2.38,.47,3.53,.28,.48-.08,1.27-1.55,1.09-1.78-.91-1.25-1.94-3.02-3.2-3.28-3.08-.64-6.31-.54-9.48-.74Zm3.88,41.74c-1.7-5.57-1.47-10.99,1.52-16.13-1.62,.92-3.01,1.79-4.23,2.85-.51,.44-.98,1.34-.91,1.97,.33,3.38,.9,6.73,1.26,10.1,.14,1.32,.6,1.79,2.36,1.2Zm.86-18.18c2.51-3.78,4.55-7.53,8.96-9.09-1.98-.82-3.1-.56-6.31,1.26-3.74,2.12-4.17,3.26-2.66,7.84Zm-50.49,7.69c-1.12,1.1-1.14,2.44-.29,4.1,1.26,2.46,2.35,5.01,3.35,7.58,.56,1.44,1.13,1.59,2.12,.64-1.75-4.17-3.46-8.24-5.18-12.32Zm-8-5.82c3.34-4-.38-7.72-.11-11.64-.2,.01-.4,.02-.59,.03,.24,3.87,.47,7.74,.71,11.61Zm55.62,20.84h3.48c-.54-2.89-.79-3.07-3.48-2.47v2.47Zm-55.9,2.14h3.58c-.74-2.93-1.02-3.1-3.75-2.34,.05,.73,.11,1.48,.17,2.34Zm51.66,.03c-.49-2.86-.9-3.13-3.69-2.35,.07,.74,.13,1.5,.21,2.35h3.48Zm-35.18-.66c-1.32-2.92-1.34-2.93-3.94-1.83,.22,2.81,2.38,1.26,3.94,1.83ZM74.19,2.53c.05,.23,.09,.47,.14,.7,1.05,.52,2.1,1.03,3.15,1.55,.2-.26,.41-.52,.61-.78-.67-.78-1.24-1.71-2.07-2.26-.3-.2-1.2,.5-1.83,.79Z"/>
    <path d="M12.1,32.9c.25-.49,.39-1.1,.76-1.45,1.81-1.67,3.67-3.29,5.55-4.87,.34-.28,.9-.3,1.36-.43-.07,.51,.04,1.21-.25,1.49-2.11,2.03-4.31,3.98-6.48,5.95-.31-.23-.63-.46-.94-.69Z"/>
    <path d="M55.13,29.39c1.61,1.36,.85,2.64,.47,3.69-.37,1.02-1.17,1.89-1.77,2.82,.08-1.07,.07-2.17,.28-3.22,.2-1.03,.62-2.03,1.03-3.29Z"/>
    <path d="M20.08,10.59c1.91,.96,3.68,1.86,5.6,2.83-2.6,.94-5.13-.33-5.6-2.83Z"/>
    <path d="M32.32,16.48c-1.58-1.15-3.17-2.29-4.28-3.1,3.59-.44,3.97-.21,4.27,3.1h0Z"/>
    <path d="M19.03,6.3c1.54-1.74,3.31-1.07,5.38-1.03-1.66,2.38-3.58,.87-5.38,1.03Z"/>
    <path d="M37.27,7.4c-.99-.34-1.99-.67-2.98-1.01,.07-.22,.15-.43,.22-.65,1.18-.12,2.47-.61,3.2,.7-.15,.32-.29,.64-.44,.96Z"/>
    <path d="M32.32,16.48c1.32-.19,2.64-.37,4.37-.62-.27,.68-.42,1.48-.61,1.49-.92,.04-1.86-.08-2.78-.25-.35-.06-.65-.4-.98-.62,0,0,0,0,0,0Z"/>
    <path class="cls-1" d="M59.43,6.3c3.17,.2,6.4,.11,9.48,.74,1.26,.26,2.29,2.03,3.2,3.28,.17,.24-.61,1.7-1.09,1.78-1.14,.19-2.5,.19-3.53-.28-2.12-.95-4.09-2.23-6.09-3.43-.76-.45-1.45-1.04-2.17-1.57,.07-.18,.13-.35,.2-.53Z"/>
    <path class="cls-1" d="M63.32,48.04c-1.76,.59-2.22,.12-2.36-1.2-.36-3.37-.93-6.73-1.26-10.1-.06-.64,.4-1.53,.91-1.97,1.22-1.06,2.61-1.93,4.23-2.85-2.99,5.14-3.22,10.56-1.52,16.13Z"/>
    <path class="cls-1" d="M64.18,29.86c-1.51-4.58-1.08-5.71,2.66-7.84,3.21-1.82,4.33-2.08,6.31-1.26-4.41,1.57-6.45,5.31-8.96,9.09Z"/>
    <path class="cls-1" d="M13.69,37.54c1.71,4.08,3.43,8.15,5.18,12.32-.99,.95-1.57,.8-2.12-.64-1-2.57-2.09-5.12-3.35-7.58-.85-1.66-.83-3,.29-4.1Z"/>
    <path class="cls-1" d="M5.69,31.72c-.24-3.87-.47-7.74-.71-11.61,.2-.01,.4-.02,.59-.03-.26,3.91,3.45,7.64,.11,11.64Z"/>
    <path class="cls-1" d="M61.32,52.56v-2.47c2.69-.6,2.95-.42,3.48,2.47h-3.48Z"/>
    <path class="cls-1" d="M5.42,54.7c-.06-.86-.12-1.61-.17-2.34,2.73-.76,3-.59,3.75,2.34h-3.58Z"/>
    <path class="cls-1" d="M57.08,54.73h-3.48c-.08-.85-.14-1.61-.21-2.35,2.79-.77,3.2-.5,3.69,2.35Z"/>
    <path class="cls-1" d="M21.9,54.07c-1.56-.56-3.72,.99-3.94-1.83,2.6-1.1,2.62-1.09,3.94,1.83Z"/>
    <path class="cls-1" d="M74.19,2.53c.63-.29,1.53-.99,1.83-.79,.83,.55,1.4,1.48,2.07,2.26-.2,.26-.41,.52-.61,.78-1.05-.52-2.1-1.03-3.15-1.55-.05-.23-.09-.47-.14-.7Z"/>
  </g>
</svg>