<?xml version="1.0" encoding="UTF-8"?>
<svg id="Layer_2" data-name="Layer 2" xmlns="http://www.w3.org/2000/svg" viewBox="0 0 97.54 68.8">
  <defs>
    <style>
      .cls-1 {
        fill: #fff;
      }
    </style>
  </defs>
  <g id="Layer_1-2" data-name="Layer 1">
    <path d="M6.6,52.23c-1.23,.49-2.14,.87-3.07,1.22-.85,.32-1.7,.61-2.69,.96-.15-.53-.39-.9-.31-1.16,1.38-4.38,.75-8.77-.03-13.11C-.63,33.87-.09,28.08,4.53,23.21c.37-.39,.59-.97,.75-1.5,1.85-6.2,6.29-9.76,12.73-9.57,3.3,.1,6.61,.86,9.87,1.54,9.97,2.07,20.04,2.93,30.09,1.16,5.71-1.01,11.28-2.94,16.86-4.6,3.11-.93,6.34-1.81,9.13-3.39,2.41-1.37,4.31-3.67,6.38-5.61,1.8-1.69,1.86-1.67,3.35,.26,.38,.49,1.18,.69,1.8,.97,2.21,1,2.75,2.64,1.01,4.31-1.98,1.9-4.33,3.41-6.64,5.18,1.77,2.15,2.13,4.95,2.53,7.88,.47,3.43,1.73,6.74,2.43,10.15,.29,1.4,.45,3.11-.1,4.34-.71,1.57-2.25,3.99-3.32,3.93-2.12-.11-4.7,.49-6.51-2.04-2.14-2.99-4.94-5.5-7.88-8.67-1.88,1.43-4.03,2.77-5.8,4.5-2.03,1.98-3.77,4.27-5.56,6.48-1.76,2.17-2.73,4.66-2.6,7.5,.14,3.05,.22,6.11,.45,9.16,.13,1.74,.67,3.15,2.17,4.54,1.07,.98,1.02,3.37,1.06,5.13,0,.35-1.84,.74-2.93,1.15q-.55,2.8-3.67,2.77c-3.19-.04-5.12-1.38-5.5-3.94-.22-1.48-.25-2.98-.43-4.47-.64-5.41-1.3-10.82-2-16.63-10.62,2.93-20.56,3.31-29.54-3.11-1.65,2.01-3.31,3.91-4.79,5.94-.46,.62-.65,1.63-.58,2.42,.26,2.82,.68,5.63,1.08,8.44,.06,.39,.25,.95,.54,1.1,3.06,1.49,2.4,4.15,2.31,6.8-1.23,.09-2.35,.17-3.43,.25-.53,1.24,.51,3.24-2.09,3.25-4.18,.01-6.23-.95-6.87-3.92-.56-2.64-.89-5.33-1.35-8-.25-1.46-.56-2.91-.9-4.65Zm45.16-11.35c-.18-.14-.37-.27-.55-.41-2.58,.46-5.15,1.11-7.75,1.34-2.61,.23-5.31,.39-7.87-.02-2.76-.44-5.42-1.54-8.1-2.45-.38-.13-.57-.81-.84-1.24,.49-.05,.98-.14,1.47-.12,.26,.01,.5,.25,.76,.37,7.38,3.45,14.78,2.5,22.24,.32,0-.98-.1-1.77,.03-2.53,.1-.63,.47-1.23,.72-1.84,.28,.57,.72,1.12,.8,1.71,.57,4.16,1.05,8.33,1.6,12.48,.49,3.66,1.17,7.29,1.54,10.96,.27,2.68,.54,2.97,3.21,2.05-1.67-15.39,4.63-26.87,17.28-35.42-.23-.72-.5-1.57-.77-2.43,.17-.13,.33-.26,.5-.39,1.93,.76,2.01,3.22,3.38,4.51,1.54,1.45,2.87,3.12,3.98,4.34,2.94-2.27,5.66-4.36,8.57-6.6-.2-.78-.5-1.94-.78-3.1-.61-2.47-1.77-3.22-4.31-2.97-.58,.06-1.2-.32-1.81-.49,.05-.27,.11-.55,.16-.82h5.98c-1.07-1.97-1.65-3.91-2.9-5.16-2.34-2.33-2.5-2.15,.21-4.35,.66-.54,1.46-1.03,1.86-1.74,.81-1.43,1.4-2.99,2.08-4.5-.26-.15-.53-.3-.79-.46-.66,.71-1.31,1.43-1.97,2.14-2.67,2.84-5.66,5.31-9.44,6.41-6.96,2.02-13.96,3.95-20.99,5.71-6.73,1.68-13.6,1.26-20.42,.65-3.68-.33-7.4-.74-10.96-1.67-3.46-.9-6.88-1.61-10.44-1.54-5.66,.1-10.12,4.2-10.95,9.77-.59,3.93,1.36,7.18,2.51,10.65,1.32,3.94,2.25,8.07,.19,11.83-1.43,2.61-1.35,4.93-.81,7.55,.42,2.02,.77,4.05,1.11,6.09,.44,2.66,.65,2.8,3.44,2.08-.32-2.32-.61-4.63-.96-6.94-.52-3.38,.3-6.08,3.28-8.16,3.78-2.64,6.27-6.17,6.44-11.02,.02-.44,.71-.86,1.41-1.66,0,2.21-.46,3.85,.13,4.93,.6,1.11,2.15,1.8,3.41,2.44,7.76,3.97,15.78,3.63,23.87,1.24,.52-.15,.83-1.02,1.24-1.55ZM3.19,51.78c1.52-.43,3.17-.61,3.33-3.36,.1-1.67-.07-3.03-.48-4.59-.64-2.44-.65-5.04-1.33-7.47-.86-3.09-.61-6.02,.24-9.01,.13-.45-.14-1-.27-1.84-2.58,3.38-3.5,6.88-3.16,10.66,.47,5.2,1.1,10.38,1.66,15.61ZM92.19,27.33c-2.02,1.55-3.98,2.81-5.63,4.39-1.95,1.87-1.17,4.07,1.51,4.76,.15,.04,.36-.12,.54-.19-.17-.64-.32-1.24-.49-1.91,2.36-.81,1.73,2.13,3.16,2.32,2.8-2.45,3.11-4.69,.91-9.36ZM16.78,58.44c-.47-3.36-.93-6.58-1.42-10.11-3.1,3.25-1.74,6.66-1.37,10.11h2.8ZM5.94,30.54c-.72,4.21,.42,10.86,2.27,13.69,1.28-4.86,.02-9.11-2.27-13.69ZM56.27,63.56c-.09,3.11,1.65,4.16,5.54,3.35,.25-3.65-.74-4.25-5.54-3.35Zm-45.84-.05c.12,3.23,1.86,4.28,5.52,3.34,.19-3.42-.82-4.03-5.52-3.34Zm9.42,.05c.03-3.43-.92-4-5.12-3.2,.29,2.1,2.55,3.57,5.12,3.2Zm45.36,.27c.42-3.37-.34-3.95-4.46-3.38,.46,2.02,2.65,3.69,4.46,3.38Zm-2.85-5.31c-.37-2.82-.72-5.53-1.07-8.24-.19-.02-.39-.03-.58-.05-.23,2.73-.46,5.45-.71,8.29h2.36ZM91.59,8.3c.09,.14,.19,.29,.28,.43,1.42-1.23,2.84-2.45,4.69-4.05-1.35-.5-2.06-.77-2.62-.98-.87,1.71-1.61,3.15-2.35,4.6Z"/>
    <path class="cls-1" d="M51.76,40.88c-.41,.53-.72,1.4-1.24,1.55-8.09,2.38-16.12,2.72-23.87-1.24-1.25-.64-2.81-1.33-3.41-2.44-.59-1.08-.13-2.73-.13-4.93-.7,.8-1.4,1.22-1.41,1.66-.17,4.85-2.66,8.38-6.44,11.02-2.97,2.08-3.79,4.78-3.28,8.16,.35,2.31,.64,4.62,.96,6.94-2.79,.73-3,.59-3.44-2.08-.34-2.04-.69-4.07-1.11-6.09-.54-2.61-.62-4.94,.81-7.55,2.06-3.76,1.12-7.89-.19-11.83-1.16-3.47-3.1-6.72-2.51-10.65,.83-5.57,5.29-9.67,10.95-9.77,3.56-.06,6.98,.64,10.44,1.54,3.56,.93,7.28,1.34,10.96,1.67,6.82,.61,13.69,1.03,20.42-.65,7.03-1.76,14.03-3.69,20.99-5.71,3.78-1.1,6.77-3.57,9.44-6.41,.66-.71,1.32-1.42,1.97-2.14,.26,.15,.53,.3,.79,.46-.68,1.51-1.27,3.07-2.08,4.5-.4,.71-1.2,1.2-1.86,1.74-2.71,2.2-2.55,2.02-.21,4.35,1.26,1.25,1.83,3.19,2.9,5.16h-5.98c-.05,.27-.11,.55-.16,.82,.6,.18,1.23,.55,1.81,.49,2.54-.25,3.7,.5,4.31,2.97,.29,1.16,.59,2.32,.78,3.1-2.91,2.24-5.63,4.34-8.57,6.6-1.11-1.23-2.44-2.9-3.98-4.34-1.38-1.29-1.45-3.75-3.38-4.51-.17,.13-.33,.26-.5,.39,.27,.86,.54,1.71,.77,2.43-12.65,8.55-18.94,20.03-17.28,35.42-2.67,.92-2.93,.63-3.21-2.05-.37-3.67-1.05-7.3-1.54-10.96-.56-4.16-1.03-8.33-1.6-12.48-.08-.6-.52-1.14-.8-1.71-.25,.61-.61,1.2-.72,1.84-.13,.76-.03,1.55-.03,2.53-7.46,2.19-14.86,3.13-22.24-.32-.26-.12-.5-.36-.76-.37-.49-.03-.98,.07-1.47,.12,.28,.43,.46,1.11,.84,1.24,2.67,.91,5.34,2.01,8.1,2.45,2.56,.41,5.26,.26,7.87,.02,2.6-.23,5.17-.88,7.75-1.34,.18,.14,.37,.27,.55,.41Zm8-.9c.77-.53,1.1-.67,1.3-.91,3.04-3.63,6.08-7.27,9.09-10.94,.26-.32,.27-.84,.4-1.27-.48,.03-1.19-.12-1.41,.13-3.09,3.6-6.12,7.24-9.11,10.92-.28,.35-.15,1.03-.26,2.06ZM23.82,17.76s.41-.25,.79-.47c-.34-.35-.66-.97-1.04-1-2.54-.23-5.1-.57-7.62-.42-2.52,.15-4.51,1.65-5.9,3.78-.26,.4-.06,1.09-.07,1.65,.44-.26,1.04-.41,1.31-.79,2.01-2.83,4.84-3.56,8.07-3.3,1.34,.11,2.68,.33,4.47,.55Zm36.71,.55c.06,.25,.12,.51,.18,.76,.69-.07,1.4-.04,2.05-.22,3.08-.84,6.15-1.7,9.2-2.63,.5-.15,.9-.66,1.35-1-.6-.13-1.25-.49-1.78-.35-3.22,.83-6.42,1.76-9.62,2.69-.49,.14-.92,.49-1.38,.74ZM19.75,34.62c-.08-.1-.37-.52-.67-.93-.3,.3-.84,.59-.85,.9-.11,3.76-1.75,6.65-4.76,8.86-.3,.22-.32,.81-.46,1.23,.49-.03,1.11,.11,1.46-.13,3.3-2.29,5.11-5.44,5.27-9.93Z"/>
    <path class="cls-1" d="M3.19,51.78c-.56-5.22-1.2-10.41-1.66-15.61-.34-3.79,.58-7.28,3.16-10.66,.14,.84,.4,1.4,.27,1.84-.85,2.99-1.1,5.92-.24,9.01,.68,2.42,.68,5.03,1.33,7.47,.41,1.56,.58,2.92,.48,4.59-.16,2.75-1.8,2.93-3.33,3.36Z"/>
    <path class="cls-1" d="M92.19,27.33c2.2,4.68,1.89,6.91-.91,9.36-1.43-.19-.8-3.13-3.16-2.32,.17,.67,.33,1.27,.49,1.91-.18,.07-.39,.23-.54,.19-2.68-.69-3.46-2.89-1.51-4.76,1.65-1.58,3.61-2.84,5.63-4.39Z"/>
    <path class="cls-1" d="M16.78,58.44h-2.8c-.37-3.45-1.72-6.86,1.37-10.11,.5,3.53,.95,6.76,1.42,10.11Z"/>
    <path class="cls-1" d="M5.94,30.54c2.29,4.57,3.56,8.83,2.27,13.69-1.85-2.83-3-9.48-2.27-13.69Z"/>
    <path class="cls-1" d="M56.27,63.56c4.8-.9,5.79-.3,5.54,3.35-3.89,.81-5.63-.24-5.54-3.35Z"/>
    <path class="cls-1" d="M10.43,63.51c4.7-.69,5.71-.08,5.52,3.34-3.66,.94-5.4-.12-5.52-3.34Z"/>
    <path class="cls-1" d="M19.85,63.56c-2.57,.37-4.83-1.1-5.12-3.2,4.2-.8,5.14-.23,5.12,3.2Z"/>
    <path class="cls-1" d="M65.21,63.84c-1.81,.31-4-1.36-4.46-3.38,4.12-.57,4.88,0,4.46,3.38Z"/>
    <path class="cls-1" d="M62.36,58.52h-2.36c.24-2.83,.47-5.56,.71-8.29,.19,.02,.39,.03,.58,.05,.35,2.71,.7,5.42,1.07,8.24Z"/>
    <path class="cls-1" d="M91.59,8.3c.74-1.44,1.48-2.89,2.35-4.6,.56,.21,1.27,.47,2.62,.98-1.85,1.6-3.27,2.82-4.69,4.05-.09-.14-.19-.29-.28-.43Z"/>
    <path d="M59.77,39.98c.12-1.02-.02-1.71,.26-2.06,2.99-3.68,6.02-7.32,9.11-10.92,.22-.26,.93-.1,1.41-.13-.13,.43-.14,.95-.4,1.27-3,3.67-6.04,7.3-9.09,10.94-.2,.24-.53,.38-1.3,.91Z"/>
    <path d="M23.82,17.76c-1.79-.22-3.12-.44-4.47-.55-3.23-.26-6.07,.47-8.07,3.3-.27,.38-.86,.53-1.31,.79,.01-.56-.18-1.25,.07-1.65,1.38-2.13,3.37-3.62,5.9-3.78,2.52-.15,5.09,.19,7.62,.42,.37,.03,.69,.65,1.04,1-.37,.22-.74,.44-.79,.47Z"/>
    <path d="M60.53,18.31c.46-.25,.89-.6,1.38-.74,3.2-.93,6.39-1.86,9.62-2.69,.53-.14,1.19,.22,1.78,.35-.45,.34-.84,.85-1.35,1-3.05,.93-6.12,1.79-9.2,2.63-.66,.18-1.37,.15-2.05,.22-.06-.25-.12-.51-.18-.76Z"/>
    <path d="M19.75,34.62c-.17,4.49-1.98,7.65-5.27,9.93-.35,.24-.97,.09-1.46,.13,.15-.42,.17-1.01,.46-1.23,3.01-2.2,4.64-5.1,4.76-8.86,0-.31,.56-.6,.85-.9,.29,.41,.59,.82,.67,.93Z"/>
  </g>
</svg>