<?xml version="1.0" encoding="UTF-8"?>
<svg id="Layer_2" data-name="Layer 2" xmlns="http://www.w3.org/2000/svg" viewBox="0 0 160.4 151.8">
  <defs>
    <style>
      .cls-1 {
        fill: #fff;
      }
    </style>
  </defs>
  <g id="Layer_1-2" data-name="Layer 1">
    <path d="M152.61,112.07c-.61,.94-1.23,1.87-1.96,2.98,3.93,1.29,7.69,3.05,8.96,7.43,.59,2.01,.96,4.26,.69,6.3-.71,5.5-1.4,11.38-6.97,14.26-3.85,2-8.15,3.4-12.41,4.26-5.62,1.13-11.44,1.25-17.11,2.2-11.81,1.96-23.73,2.85-35.61,1.94-16.37-1.26-32.71-3.17-49-5.23-5.41-.68-11.04-2.1-14.53-7-1.36-1.92-2.2-4.34-2.74-6.66-.41-1.78-1.1-2.58-2.8-3.12-6.04-1.9-11.39-4.93-14.68-10.59-1.06-1.82-1.79-3.96-2.14-6.04-1.07-6.35-3.37-12.44-1.77-19.24,1.6-6.8,1.79-13.92,3.01-20.82,.26-1.49,2.09-3.35,3.59-3.84,2.32-.75,3.19,1.73,3.54,3.41,.92,4.41,1.38,8.91,2.15,13.35,.24,1.39,1.28,2.71,1.28,4.06-.01,3.51-.44,7.02-.62,10.54-.03,.67,.33,1.35,.43,2.04,.12,.89,.4,1.85,.2,2.68-.99,4.15-.32,6.34,3.23,8.85,2.86,2.02,5.63,4.34,10.12,4.49-1-1.89-1.57-3.41-2.5-4.63-3.68-4.83-2.82-14.77,2.32-19.64,4.07-3.86,9.33-4.61,14.66-3.92,2.41,.31,3.57-.37,4.39-2.47,2.11-5.37,6.48-7.65,11.86-7.59,6.05,.07,12.1,.83,18.15,1.21,6.64,.42,7.2-.1,9.79-6.15,4.22-9.87,5.2-20.4,6.65-30.86,.39-2.82-.59-4.19-3.12-5.43-2.47-1.21-4.89-3-6.63-5.11-4.39-5.34-3.79-11.45,1.49-15.97,1.73-1.48,2.15-2.93,2.21-5.01,.2-6.36,5.01-13.84,12-12.59,2.08,.37,4.18,1.51,5.88,2.81,2.66,2.02,5.44,2.33,7.82,.26,6.42-5.58,14.16-3.59,17.11,4.4,.14,.38,.27,.81,.25,1.21-.27,5.85,1.59,11.14,3.54,16.58,1.4,3.92-1.05,7.65-4.27,10.13-2.64,2.03-5.81,3.37-8.6,5.23-.91,.61-1.88,1.87-1.95,2.88-.86,12.75-2.15,25.41-6.73,37.49-.24,.62-.12,1.37-.19,2.28,3.97,.21,7.8,.1,11.53,.68,7.87,1.22,15.79,2.39,23.45,4.47,2.63,.71,5.25,3.68,6.64,6.28,2.83,5.3,2.72,11.1,.48,16.74-.12,.31-.79,.4-1.21,.59,.01-.5-.12-1.07,.06-1.51,2.09-5.02,1.66-9.97-.29-14.9-1.65-4.17-7.2-7.81-10.72-7.12-7.21,1.42-14.42,2.87-21.67,4.1-2.21,.38-2.81,1.2-2.72,3.43,.16,3.91-.13,7.83-.23,11.75-.34,.04-.68,.08-1.01,.12-.38-.54-.86-1.03-1.13-1.62-1.46-3.26-2.99-6.49-4.23-9.83-.72-1.95-1.78-2.04-3.56-1.75-3.85,.63-7.74,1.13-11.63,1.41-2.16,.16-3.24,.77-3.74,3.09-.75,3.51-2.05,6.9-3.11,10.34-.36-.02-.73-.04-1.09-.05-.31-.78-.7-1.54-.9-2.34-.68-2.68-1.1-5.45-2.02-8.04-.38-1.07-1.69-2.4-2.73-2.55-5.08-.74-10.23-1.03-15.32-1.68-1.94-.25-2.7,.23-3.19,2.17-1.16,4.57-2.62,9.07-3.95,13.59-1.23-4.75-1.91-9.6-2.35-14.47-.15-1.69-.51-2.71-2.36-2.89-3.78-.36-7.57-.73-11.33-1.26-2.36-.33-3.39,.64-3.78,2.87-.67,3.82-1.5,7.62-2.26,11.43-.24,.1-.48,.2-.71,.31-1.81-4.51-3.63-9.03-5.65-14.07-1.52,1.43-2.96,2.33-3.78,3.63-6.5,10.25-1.43,23.79,11.7,25.55,10.47,1.4,21.09,2.16,31.65,2.28,20.22,.23,40.48,.19,60.35-4.47,4.75-1.12,9.46-2.48,14.1-4.02,2.67-.89,5.15-2.36,7.72-3.57Zm-30.96,22.54c-.34-.01-.68-.02-1.03-.03-1.3-2.66-2.69-5.27-3.87-7.98-.9-2.07-2.23-3.02-4.54-2.81-5.22,.49-10.47,.78-15.68,1.39-.79,.09-1.7,1.34-2.08,2.26-1.13,2.68-2.02,5.46-3,8.2-.42-.07-.84-.14-1.26-.21-.46-1.74-.96-3.46-1.36-5.21-.93-4.04-1.97-4.87-6.06-4.85-5.05,.02-10.09,.04-15.14-.03-1.64-.02-2.58,.27-3.02,2.17-.65,2.81-1.79,5.51-2.72,8.26-.29-.01-.58-.03-.87-.04-.65-2.74-1.18-5.51-2.03-8.19-.3-.94-1.3-2.22-2.13-2.34-4.27-.63-8.59-.86-12.87-1.39-2.18-.27-3.49,.56-4.44,2.42-1.54,3.04-3.15,6.04-4.75,9.1-2.08-2.89-2.87-6.82-2.92-12.11-.01-1.19-.98-2.53-1.86-3.47-.37-.4-1.89-.28-2.46,.16-3.85,2.97-5.52,11.41-3.54,15.95,2.67,6.11,8.43,7.77,13.87,8.85,9.66,1.9,19.49,3.52,29.31,3.92,16.95,.68,33.96,.73,50.92,.26,10.62-.29,21.27-1.71,31.39-5.44,4.74-1.75,8.08-4.75,8.56-10.14,.18-1.95,.36-3.9,.53-5.85,.69-7.84-3.92-10.6-10.9-10.85-1.95-.07-2.73,.63-1.82,2.9,1.1,2.72,1.57,5.69,2.32,8.55-.37,.19-.73,.38-1.1,.57-3.28-2.95-6.56-5.9-9.45-8.49-4.37,.78-8.35,1.67-12.38,2.15-2.22,.27-2.94,1.11-2.96,3.29-.03,3.01-.44,6.02-.69,9.03ZM46.99,90.97c5.22,.72,10.49,1.39,15.75,2.17,12.76,1.88,25.55,2.97,38.4,1.02,.99-.15,2.07-.91,2.76-1.69,4.65-5.26,7.01-11.77,8.79-18.32,1.75-6.42,2.66-13.09,3.6-19.69,.59-4.17,.56-8.43,.83-13.02-8.07,2.29-15.34,1.39-22.81-.27-.57,5.33-1.19,10.22-1.57,15.12-.19,2.4,.07,4.84,.14,7.4-1.55-.15-2.44,1.12-2.55,3.31-.04,.89-.71,1.75-.76,2.65-.19,3.8-4.97,6.91-1.68,11.23,.05,.07-.17,.34-.26,.51-1.93,.22-3.49,1.01-5.08,1.73-.93,.42-1.88,.89-2.87,1.04-4.64,.69-9.29,1.28-13.95,1.9,.57-.95,1.15-1.92,1.58-2.64h9.44c-5.1-1.09-10.24-1.86-15.4-2.06-2.82-.11-5.72,.55-8.49,1.23-3.03,.75-5.88,4.98-5.87,8.4ZM114.64,3.36c.73-.06,1.21-.02,1.65-.14,6.6-1.83,10.65,2.31,11.58,8.7,.52,3.58-1.24,6.18-4.88,6.76-2.52,.41-5.12,.51-7.68,.53-3.61,.03-4.91-1.13-4.79-4.83,.09-2.82,.86-5.61,1.33-8.42h-5.58c.23,3.43,.72,6.73,.51,9.97-.08,1.15-1.79,3.01-2.9,3.13-3.03,.32-6.17,.1-9.2-.36-1.46-.22-3.65-1.19-3.98-2.29-1.03-3.36-1.03-6.91,1.12-10.05,3.01-4.39,7.12-4.06,11.52-2.58-2.1-2.74-7.24-3.31-10.13-1.22-3.6,2.61-4.77,6.24-4.51,10.5,.12,1.98-.1,3.37-2.22,4.75-3.32,2.15-5.7,5.78-5.03,9.85,.72,4.39,3.4,7.9,8.23,9.2-3.25-3.45-2.34-9.15-6.86-12.36,.32-.4,.79-1,1.56-1.97,1.62,3.25,3.45,5.85,4.24,8.73,1.75,6.36,7.18,8.97,13.45,6.93,3.79-1.23,7.41-1.14,11.16,0,4.37,1.32,8.85,.34,10.57-2.71,2.17-3.86,3.85-8,5.83-12.2,.47,.24,1.22,.63,2.43,1.24-.55-1.18-.76-1.99-1.24-2.59-1.82-2.23-2.29-4.56-2.16-7.54,.14-3.11-.62-6.59-2.04-9.37-2.16-4.25-8.57-4.99-11.97-1.67ZM25.3,119.77c-.32-.14-.91-.31-1.39-.64-3.51-2.39-7.11-4.66-10.43-7.29-1.36-1.08-1.34-3.71-3.99-3.53-2,.13-5.69-.19-5.72,.06-1.19,9.22,8.21,19.95,17.03,20.17,.52,.01,1.34-.55,1.55-1.04,1.05-2.48,1.94-5.03,2.95-7.73Zm80.03-26.63c.05,.32,.1,.64,.16,.96,10.65-2,21.3-4,31.94-5.99-.65-.92-1.22-1.18-1.81-1.24-7.35-.8-14.71-1.53-22.06-2.37-1.97-.22-3.28,.28-4.25,2.13-1.18,2.25-2.64,4.35-3.99,6.51Zm-4.65-74.92c2.89,.49,4.38-.64,4.92-2.95,.83-3.56-.05-6.83-2.6-9.4-3.29-3.32-7.67-2.67-10.07,1.37-.78,1.31-1.42,2.75-1.83,4.22-1.1,3.91,1.04,6.16,5.29,5.74-1.72-4.75-1.41-7.45,1.02-8.99,2.03-1.29,3.62-.16,4.94,1.14,1.81,1.78,1.07,5.71-1.67,8.88Zm20.64-1.02c4.51,.02,5.73-1.16,5.38-5.18-.32-3.67-2.34-6.23-5.58-7.84-2.57-1.28-4.76-.04-6.42,1.64-2.52,2.54-3.36,5.83-2.5,9.36,.66,2.74,1.28,2.99,4.29,2.31-2.43-3.55-2.55-6.5-.41-8.47,1.54-1.41,2.98-1.94,4.84-.34,2.18,1.88,2.47,4.8,.4,8.52ZM7.54,100.35c.81-.05,1.52-.12,2.24-.13,2.25-.02,3.44-.95,3.13-3.39-.31-2.43-1.9-2.52-3.82-2.37-1.42,.11-2.87,.11-4.28-.07-1.88-.24-3.22-.08-3.41,2.27-.18,2.2,.64,3.3,2.85,3.41,1.13,.05,2.25,.19,3.29,.29Zm.11-6.55c0-.05,.02-.11,.02-.16,.61,0,1.23,.04,1.84,0,2.62-.19,3.7-1.49,3.31-4.02-.37-2.41-1.92-2.43-3.89-2.08-1.38,.25-2.85,.16-4.27,.03-1.7-.15-2.79,.34-3.06,2.16-.26,1.77,.23,3.06,2.14,3.44,1.3,.26,2.61,.43,3.91,.64Zm-.06-13.71c-4.4,.01-5.3,.55-5.38,2.97-.08,2.34,1.52,3.58,4.68,3.54,2.27-.03,4.67,.17,4.77-3.25,.1-3.46-2.07-3.46-4.07-3.25Zm5.74,22.18c-4.44-.26-7.87-.46-12.04-.71,.26,1.42,.18,3.18,.92,4.47,.78,1.36,7.96,1.63,9.39,.32,.92-.84,1.09-2.49,1.73-4.08ZM99.54,41.02h16.26c-3.6-3.02-11.5-3.07-16.26,0Zm25.62-4.87c4.34-1.45,7.52-6.19,6.73-10.09-5.3,1.51-3.94,7.19-6.73,10.09ZM6.78,79.59c1.53-.95,3.43-1.5,3.61-2.39,.33-1.63-.92-2.83-2.88-2.69-1.87,.13-4.11,.03-3.91,2.67,.06,.79,1.85,1.45,3.18,2.41ZM100.78,12.31c-1.26-.93-1.95-1.79-2.73-1.89-.47-.06-1.48,1.05-1.53,1.68-.04,.61,.88,1.84,1.32,1.81,.82-.05,1.59-.81,2.94-1.6ZM9.37,73.49c.15-.48,.3-.96,.45-1.44-1.15-.48-2.27-1.03-3.46-1.32-.13-.03-.62,1.4-.95,2.15,1.32,.2,2.64,.41,3.96,.61Z"/>
    <path class="cls-1" d="M152.61,112.07c-2.57,1.21-5.05,2.68-7.72,3.57-4.63,1.54-9.34,2.91-14.1,4.02-19.87,4.66-40.13,4.71-60.35,4.47-10.56-.12-21.18-.88-31.65-2.28-13.13-1.76-18.2-15.3-11.7-25.55,.82-1.3,2.26-2.2,3.78-3.63,2.03,5.05,3.84,9.56,5.65,14.07,.24-.1,.48-.2,.71-.31,.76-3.81,1.59-7.61,2.26-11.43,.39-2.24,1.42-3.2,3.78-2.87,3.76,.53,7.55,.89,11.33,1.26,1.85,.18,2.2,1.2,2.36,2.89,.43,4.87,1.12,9.72,2.35,14.47,1.34-4.53,2.8-9.02,3.95-13.59,.49-1.94,1.25-2.42,3.19-2.17,5.1,.65,10.24,.94,15.32,1.68,1.04,.15,2.35,1.48,2.73,2.55,.92,2.59,1.34,5.36,2.02,8.04,.2,.81,.59,1.56,.9,2.34,.36,.02,.73,.04,1.09,.05,1.07-3.44,2.36-6.83,3.11-10.34,.5-2.32,1.57-2.93,3.74-3.09,3.89-.28,7.77-.78,11.63-1.41,1.77-.29,2.84-.19,3.56,1.75,1.24,3.34,2.77,6.58,4.23,9.83,.26,.59,.75,1.08,1.13,1.62,.34-.04,.68-.08,1.01-.12,.1-3.92,.39-7.84,.23-11.75-.09-2.23,.51-3.05,2.72-3.43,7.24-1.24,14.45-2.68,21.67-4.1,3.53-.7,9.08,2.95,10.72,7.12,1.95,4.94,2.38,9.88,.29,14.9-.18,.43-.05,1-.06,1.51,0,0,.11-.1,.11-.1Z"/>
    <path class="cls-1" d="M121.65,134.61c.25-3.01,.66-6.01,.69-9.03,.02-2.18,.74-3.02,2.96-3.29,4.03-.49,8.02-1.37,12.38-2.15,2.89,2.6,6.17,5.54,9.45,8.49,.37-.19,.73-.38,1.1-.57-.75-2.86-1.22-5.83-2.32-8.55-.92-2.27-.13-2.97,1.82-2.9,6.97,.25,11.58,3.01,10.9,10.85-.17,1.95-.36,3.9-.53,5.85-.48,5.39-3.82,8.39-8.56,10.14-10.13,3.73-20.77,5.15-31.39,5.44-16.96,.47-33.96,.42-50.92-.26-9.82-.39-19.65-2.02-29.31-3.92-5.44-1.07-11.2-2.74-13.87-8.85-1.98-4.54-.31-12.98,3.54-15.95,.57-.44,2.09-.56,2.46-.16,.88,.95,1.85,2.29,1.86,3.47,.05,5.29,.83,9.22,2.92,12.11,1.6-3.06,3.21-6.07,4.75-9.1,.94-1.86,2.26-2.69,4.44-2.42,4.28,.53,8.61,.76,12.87,1.39,.83,.12,1.83,1.4,2.13,2.34,.85,2.67,1.38,5.45,2.03,8.19,.29,.01,.58,.03,.87,.04,.93-2.75,2.07-5.45,2.72-8.26,.44-1.9,1.37-2.19,3.02-2.17,5.05,.07,10.09,.05,15.14,.03,4.08-.02,5.13,.81,6.06,4.85,.4,1.75,.9,3.47,1.36,5.21,.42,.07,.84,.14,1.26,.21,.98-2.74,1.87-5.52,3-8.2,.38-.91,1.3-2.17,2.08-2.26,5.21-.61,10.45-.9,15.68-1.39,2.3-.22,3.63,.74,4.54,2.81,1.18,2.71,2.57,5.32,3.87,7.98,.34,.01,.68,.02,1.03,.03Z"/>
    <path class="cls-1" d="M46.99,90.97c-.01-3.42,2.84-7.65,5.87-8.4,2.77-.68,5.67-1.34,8.49-1.23,5.16,.2,10.3,.96,15.4,2.06h-9.44c-.43,.72-1.01,1.69-1.58,2.64,4.66-.63,9.32-1.21,13.95-1.9,.99-.15,1.94-.62,2.87-1.04,1.59-.72,3.15-1.51,5.08-1.73,.09-.18,.31-.45,.26-.51-3.29-4.31,1.48-7.43,1.68-11.23,.05-.89,.71-1.75,.76-2.65,.11-2.19,1-3.45,2.55-3.31-.06-2.55-.32-4.99-.14-7.4,.38-4.9,1-9.79,1.57-15.12,7.47,1.66,14.73,2.56,22.81,.27-.27,4.59-.24,8.85-.83,13.02-.94,6.61-1.85,13.27-3.6,19.69-1.79,6.56-4.14,13.06-8.79,18.32-.69,.78-1.77,1.54-2.76,1.69-12.85,1.96-25.64,.86-38.4-1.02-5.26-.77-10.53-1.45-15.75-2.17Z"/>
    <path class="cls-1" d="M114.64,3.36c3.4-3.33,9.82-2.58,11.97,1.67,1.41,2.78,2.17,6.26,2.04,9.37-.13,2.98,.34,5.31,2.16,7.54,.48,.59,.69,1.41,1.24,2.59-1.21-.62-1.96-1-2.43-1.24-1.98,4.2-3.65,8.34-5.83,12.2-1.71,3.04-6.2,4.02-10.57,2.71-3.75-1.13-7.37-1.23-11.16,0-6.27,2.04-11.7-.57-13.45-6.93-.79-2.88-2.62-5.47-4.24-8.73-.76,.96-1.24,1.57-1.56,1.97,4.52,3.2,3.61,8.91,6.86,12.36-4.83-1.31-7.5-4.81-8.23-9.2-.67-4.07,1.71-7.7,5.03-9.85,2.12-1.37,2.34-2.77,2.22-4.75-.27-4.26,.9-7.89,4.51-10.5,2.89-2.09,8.03-1.52,10.13,1.22-4.4-1.48-8.51-1.8-11.52,2.58-2.15,3.14-2.14,6.69-1.12,10.05,.34,1.1,2.52,2.07,3.98,2.29,3.03,.46,6.17,.68,9.2,.36,1.11-.12,2.83-1.98,2.9-3.13,.21-3.25-.29-6.54-.51-9.97h5.58c-.47,2.81-1.24,5.61-1.33,8.42-.12,3.7,1.17,4.85,4.79,4.83,2.56-.02,5.16-.12,7.68-.53,3.64-.59,5.4-3.18,4.88-6.76-.93-6.39-4.98-10.53-11.58-8.7-.44,.12-.92,.08-1.65,.14Zm-1.38,24.89c1.11,.07,2.32,.5,3.2,.12,1.36-.58,2.5-1.7,3.73-2.59-1.17-.91-2.25-2.44-3.52-2.62-3.09-.44-4.33,1.7-3.41,5.09Zm-11.33,.17c.38,0,.76,.02,1.13,.03-.19-1.36,.1-3.31-.67-3.93-1.18-.93-3.19-1.45-4.66-1.17-1.2,.23-2.12,1.9-3.43,3.18,3.06,.97,5.68,4.31,7.39-.62,.08,.84,.16,1.67,.23,2.51Z"/>
    <path class="cls-1" d="M25.3,119.77c-1.01,2.7-1.9,5.25-2.95,7.73-.21,.49-1.03,1.05-1.55,1.04-8.83-.22-18.23-10.95-17.03-20.17,.03-.25,3.73,.08,5.72-.06,2.66-.18,2.63,2.45,3.99,3.53,3.32,2.63,6.92,4.9,10.43,7.29,.48,.33,1.06,.49,1.39,.64Z"/>
    <path class="cls-1" d="M105.34,93.14c1.34-2.16,2.81-4.26,3.99-6.51,.97-1.85,2.28-2.35,4.25-2.13,7.35,.84,14.71,1.57,22.06,2.37,.59,.06,1.15,.32,1.81,1.24-10.65,2-21.3,4-31.94,5.99-.05-.32-.1-.64-.16-.96Z"/>
    <path class="cls-1" d="M100.68,18.22c2.74-3.17,3.48-7.1,1.67-8.88-1.31-1.29-2.91-2.42-4.94-1.14-2.43,1.54-2.74,4.24-1.02,8.99-4.26,.42-6.39-1.83-5.29-5.74,.41-1.47,1.05-2.91,1.83-4.22,2.41-4.05,6.78-4.69,10.07-1.37,2.55,2.57,3.43,5.83,2.6,9.4-.54,2.31-2.03,3.44-4.92,2.95Z"/>
    <path class="cls-1" d="M121.32,17.2c2.07-3.72,1.78-6.64-.4-8.52-1.85-1.6-3.3-1.07-4.84,.34-2.15,1.97-2.02,4.93,.41,8.47-3.02,.68-3.63,.42-4.29-2.31-.86-3.53-.02-6.82,2.5-9.36,1.66-1.67,3.85-2.91,6.42-1.64,3.24,1.61,5.26,4.17,5.58,7.84,.35,4.02-.88,5.2-5.38,5.18Z"/>
    <path class="cls-1" d="M7.54,100.35c-1.04-.09-2.16-.23-3.29-.29-2.21-.1-3.03-1.21-2.85-3.41,.19-2.35,1.53-2.51,3.41-2.27,1.41,.18,2.86,.18,4.28,.07,1.92-.15,3.51-.06,3.82,2.37,.31,2.44-.88,3.37-3.13,3.39-.72,0-1.43,.08-2.24,.13Z"/>
    <path class="cls-1" d="M7.65,93.8c-1.31-.21-2.62-.39-3.91-.64-1.91-.38-2.4-1.67-2.14-3.44,.27-1.82,1.36-2.31,3.06-2.16,1.42,.13,2.89,.22,4.27-.03,1.97-.36,3.52-.34,3.89,2.08,.39,2.53-.68,3.83-3.31,4.02-.61,.04-1.23,0-1.84,0,0,.05-.02,.11-.02,.16Z"/>
    <path class="cls-1" d="M7.59,80.09c2-.21,4.17-.21,4.07,3.25-.1,3.42-2.5,3.22-4.77,3.25-3.16,.04-4.76-1.2-4.68-3.54,.08-2.41,.99-2.95,5.38-2.97Z"/>
    <path class="cls-1" d="M13.33,102.27c-.63,1.59-.81,3.24-1.73,4.08-1.43,1.31-8.61,1.04-9.39-.32-.74-1.29-.67-3.05-.92-4.47,4.17,.24,7.6,.45,12.04,.71Z"/>
    <path class="cls-1" d="M99.54,41.02c4.76-3.07,12.66-3.02,16.26,0h-16.26Z"/>
    <path class="cls-1" d="M125.16,36.15c2.79-2.89,1.43-8.58,6.73-10.09,.79,3.9-2.39,8.64-6.73,10.09Z"/>
    <path class="cls-1" d="M6.78,79.59c-1.33-.96-3.12-1.61-3.18-2.41-.21-2.65,2.04-2.54,3.91-2.67,1.97-.14,3.22,1.05,2.88,2.69-.18,.9-2.09,1.44-3.61,2.39Z"/>
    <path class="cls-1" d="M100.78,12.31c-1.35,.79-2.13,1.56-2.94,1.6-.44,.02-1.36-1.2-1.32-1.81,.05-.63,1.06-1.74,1.53-1.68,.79,.1,1.47,.96,2.73,1.89Z"/>
    <path class="cls-1" d="M9.37,73.49c-1.32-.2-2.64-.41-3.96-.61,.33-.75,.82-2.18,.95-2.15,1.19,.29,2.32,.85,3.46,1.32-.15,.48-.3,.96-.45,1.44Z"/>
    <path d="M113.26,28.26c-.92-3.39,.32-5.53,3.41-5.09,1.27,.18,2.35,1.71,3.52,2.62-1.23,.89-2.36,2.02-3.73,2.59-.88,.37-2.1-.05-3.2-.12Z"/>
    <path d="M101.93,28.42c-.08-.84-.16-1.67-.23-2.51-1.71,4.93-4.34,1.6-7.39,.62,1.3-1.28,2.23-2.95,3.43-3.18,1.47-.28,3.48,.23,4.66,1.17,.77,.61,.48,2.57,.67,3.93-.38,0-.76-.02-1.13-.03Z"/>
  </g>
</svg>