<?xml version="1.0" encoding="UTF-8"?>
<svg id="Layer_2" data-name="Layer 2" xmlns="http://www.w3.org/2000/svg" viewBox="0 0 85.11 66.06">
  <defs>
    <style>
      .cls-1 {
        fill: #fff;
      }
    </style>
  </defs>
  <g id="Layer_1-2" data-name="Layer 1">
    <path d="M55.6,64.72c-2.74,1.24-6.13,.76-7.88-.84-.4-.36-1.12-.55-1.68-.52-2.06,.09-3.05-.95-3.26-2.87-.35-3.11-.63-6.23-.98-9.35-.06-.54-.22-1.09-.46-1.58-.96-1.97-1.96-3.91-3.25-6.46-5.04-1.89-11.19-1.17-17.22-1.09-1.25,.02-3.09,1.9-3.58,3.3-1.84,5.21-1.22,10.33,1.67,15.13,.45,.74,.67,1.62,1.11,2.74-1.55,.08-2.72,.14-4,.21,.33,.81,.62,1.5,1.07,2.61-2.35,0-4.44,.16-6.48-.1-.6-.07-1.29-1.25-1.53-2.04-.88-2.93-1.77-5.87-2.33-8.87-.76-4.14-1.23-8.33-1.81-12.5-.1-.69-.14-1.38-.22-2.22-2.53,.48-3.21-1.05-3.95-2.94-1.81-4.65-.54-8.62,2.18-12.42,.47-.66,.77-1.48,1-2.27,1.21-4.13,4.67-6.65,8.61-7.69,.88-.23,1.77-.44,2.67-.51,.52-.04,1.07,.2,1.61,.32,.03,.19,.06,.39,.09,.58-2.04,.69-4.16,1.21-6.11,2.1-4.19,1.9-5.33,4.12-5.56,8.44-.1,1.9-.3,3.8-.34,5.69-.02,.82,.28,1.65,.38,2.48,.41,3.45,.77,6.9,1.23,10.34,.15,1.11,.28,2.4,.92,3.22,.71,.91,2.01,1.91,3.01,1.87,.98-.04,2.07-1.2,2.84-2.1,1.22-1.42,2.06-3.17,3.34-4.52,1.31-1.38,3.05-2.34,3.35-4.51,.05-.33,.81-.55,1.61-1.05-.13,1.29-.2,2.04-.31,3.09,2.11,0,4.19-.13,6.24,.03,3.91,.29,7.83,.58,11.7,1.18,3.72,.58,3.69,.76,4.83-3.04,.25,.54,.63,1.05,.73,1.62,.43,2.42,.66,4.88,1.23,7.26,.21,.88,.99,1.8,1.77,2.33,1.16,.79,2.5,1.21,3.27-.7,.79-1.96,1.64-3.89,2.52-5.8,.15-.33,.62-.5,.91-.77,3.32-3.19,7.85-5.13,10.05-9.48,1.12-2.2,2.02-4.5,3.11-6.71,1.19-2.41,2.28-4.92,3.83-7.1,.71-.99,2.4-1.28,3.65-1.89,2.26-1.1,2.39-3.17,.49-4.84-1.12-.99-2.12-2.21-2.84-3.51-.29-.52,.03-1.86,.52-2.24,1.23-.94,2.72-1.55,4.59-2.55-.63-.69-1.17-1.71-2.01-2.13-2.43-1.21-7.08-.12-9.12,1.65-1.75,1.52-3.74,2.77-5.64,4.11-1.51,1.07-2.92,2.46-4.61,3.09-3.14,1.17-5.88,3.44-9.54,3.3-2.01-.08-4.05,.64-6.07,.63-1.17,0-2.33-.74-3.49-1.14,.06-.28,.12-.57,.18-.85,1.54,0,3.11-.2,4.62,.03,5.86,.89,10.64-2.05,15.53-4.39,1.71-.82,2.96-2.54,4.5-3.74,3.83-3.01,7.82-5.58,13.09-4.49,2.39,.5,3.62,1.74,3.98,4.09,.1,.65,.41,1.31,.78,1.87,1.31,2.03,2.76,3.97,4,6.04,1,1.66,1.41,3.57,.17,5.24-1.23,1.66-3.11,1.78-5.06,1.42-3.91-.72-6.75,1.29-8.5,4.96-2.25,4.72-4.89,9.27-7.61,13.75-.79,1.3-2.3,2.25-3.66,3.08-2.77,1.69-4.2,4.11-5.62,7.03-2.02,4.16-.61,8.21-.94,12.28-.07,.87,.94,1.84,1.47,2.76,.37,.64,.78,1.27,1.18,1.93Zm27.81-48.71c.05-.21,.22-.49,.17-.73-.76-3.47-2.98-6.07-5.24-8.63-.23-.26-.99-.27-1.38-.11-.94,.4-1.81,.97-2.45,1.32,1.03,3.24,5.44,4.73,3.74,9.16,.99,.19,1.97,.38,3.06,.58-.54-.97-.95-1.7-1.36-2.43,1.08,.26,2.15,.51,3.47,.83ZM7.5,50.7c.72,2.9,1.44,5.37,1.94,7.89,.35,1.75,1.24,2.03,2.53,1.59-.33-3-.64-5.92-.97-8.87-.77-.13-1.68-.29-3.5-.61Zm43.64,1.19h-3.14c.26,2.55,.51,4.98,.77,7.44h2.37v-7.44ZM3.06,28.01c-2.4,3.77-1.57,7.19,.3,11.07,.52-.74,1.14-1.21,1.09-1.61-.38-3.06-.88-6.11-1.39-9.47Zm43.25,23.33c-.98-.19-1.88-.37-3.01-.59,.26,2.4,.47,4.42,.69,6.47h2.88c-.19-1.99-.37-3.87-.56-5.88Zm-30.75,5.89c-.42-2.85-.81-5.46-1.18-7.91-1.86,1.58-2.36,4.94-.96,7.91h2.13Zm25.22-13.58c-.18,3.6,1.39,5.5,4.15,5.41-.62-1.8-1.24-3.62-1.85-5.41h-2.3Zm12.14,19.9c-.96-1.68-1.6-3.37-3.85-2.29,.02,2.6,.2,2.72,3.85,2.29Zm-38.55,.91c-.78-1.86-1.63-3.2-3.78-2.36-.03,2.62,.21,2.78,3.78,2.36Zm3.21-2.91c-.51-2.12-1.52-3.16-3.66-2.33q.43,2.65,3.66,2.33Zm29.6-2.46c-.76-.04-1.25-.08-1.73-.08-.34,0-.67,.05-1,.08-.08,2.63,.07,2.76,2.84,2.38-.03-.72-.07-1.46-.11-2.39Z"/>
    <path d="M71.48,8.74c.2,3.08-2.04,5.88-4.25,5.85-.78-.01-1.86-.56-2.24-1.2-.38-.64-.4-2,.04-2.52,.99-1.15,2.33-2.02,3.6-2.9,.27-.19,.84,.06,1.27,.11-.17,.41-.23,.95-.54,1.2-.82,.67-1.82,1.12-2.58,1.84-.34,.32-.28,1.08-.4,1.64,.58-.02,1.36,.2,1.71-.1,.8-.66,1.4-1.57,2.08-2.38,.31-.37,.63-.74,1.31-1.54Z"/>
    <path d="M17.65,35.81c-.55,.15-1.12,.47-1.66,.42-2.08-.19-4.24-.21-6.2-.84-1.48-.48-1.41-2.69-.13-4.03,.13,.05,.34,.07,.37,.16,.98,3.03,1.27,3.2,5.28,3.18,.48,0,.95,0,1.43,0,.3,.37,.61,.74,.91,1.11Z"/>
    <path d="M54.61,32.25c.66,1.62-.47,3.2-2.42,3.19-1.4,0-2.81-.11-4.18-.36-.5-.09-.89-.73-1.34-1.11,.45-.17,.9-.48,1.35-.47,1.22,.04,2.48,.47,3.65,.28,.98-.15,1.87-.94,2.94-1.53Z"/>
    <path d="M34.36,33.05c-1.03,.63-1.71,1.41-2.34,1.37-1.87-.13-3.74-.5-5.56-.96-.37-.09-.54-.97-.81-1.49,.5,.02,1,.01,1.49,.08,2.18,.29,4.36,.61,7.22,1.01Z"/>
    <path d="M55.55,18.03c1.14-1.38,3.44,.66,4.25-1.66,.36,.26,.72,.51,1.09,.77-.56,.67-1,1.68-1.7,1.92-1.15,.4-2.48,.41-3.73,.36-.46-.02-.9-.68-1.35-1.05,.38-.27,.77-.55,1.15-.82,.1,.16,.19,.32,.29,.48Z"/>
    <path d="M18.97,14.09c3.2-.85,5.76-1.06,8.25,.35-2.54-.45-5.12,1.78-8.25-.35Z"/>
    <path d="M10.88,21.71c.67,.15,1.14,.23,1.6,.35,.9,.24,1.79,.48,2.67,.78,.4,.14,.75,.43,1.12,.66-.25,.29-.45,.72-.77,.85-1.87,.75-3.73-.22-4.62-2.64Z"/>
    <path d="M41.76,36.94c-1.29,2.1-3.4,2.61-4.64,1.31-.22-.23-.02-1.25,.01-1.25,1.49-.06,2.98-.06,4.63-.06Z"/>
    <path d="M45.02,22.62c1.49-.11,2.85-.23,4.2-.29,.19,0,.54,.34,.54,.53,0,.31-.14,.69-.35,.91-1.33,1.43-3.76,.73-4.4-1.16Z"/>
    <path d="M35.35,15.24c-1.61-.37-3.23-.75-4.84-1.12,2.23-1.17,4.23-.78,5.02,.39-.06,.24-.12,.49-.18,.73Z"/>
    <path d="M27.72,22c-.77,.06-1.56,.28-2.29,.14-.61-.12-1.13-.66-2.08-1.26,1.65-.27,2.68-.43,4.01-.65,.1,.52,.23,1.15,.36,1.77,0,0,0,0,0,0Z"/>
    <path d="M38.53,27.41c.94,.28,1.71,.5,2.48,.73-.71,.44-1.4,1.14-2.15,1.22-.52,.06-1.14-.75-1.71-1.16,.44-.25,.88-.5,1.38-.78Z"/>
    <path d="M59.24,26.01c1.08,.34,1.97,.63,2.86,.91-.69,.41-1.36,1.11-2.07,1.14-.56,.03-1.16-.76-1.75-1.19,.3-.27,.61-.55,.96-.87Z"/>
    <path d="M10.29,41.53c.91,.27,1.61,.48,2.31,.69-.7,.45-1.36,1.15-2.11,1.25-.52,.07-1.15-.69-1.73-1.07,.47-.27,.94-.54,1.52-.86Z"/>
    <path d="M47.36,42.8c.9,0,1.63,0,2.36,0,.43,0,.85,.03,1.28,.04-.22,.46-.32,1.07-.67,1.34-1.23,.95-2.63,.33-2.96-1.38Z"/>
    <path d="M27.71,22c1.4-.77,2.81-1.55,4.47-2.46,.13,2-1.01,2.45-2.37,2.6-.69,.07-1.4-.08-2.1-.13,0,0,0,0,0,0Z"/>
    <path class="cls-1" d="M83.41,16.01c-1.32-.31-2.39-.57-3.47-.83,.41,.73,.82,1.46,1.36,2.43-1.08-.21-2.06-.39-3.06-.58,1.7-4.43-2.71-5.92-3.74-9.16,.64-.36,1.51-.93,2.45-1.32,.39-.16,1.15-.15,1.38,.11,2.26,2.56,4.48,5.16,5.24,8.63,.05,.24-.12,.53-.17,.73Z"/>
    <path class="cls-1" d="M7.5,50.7c1.82,.32,2.73,.47,3.5,.61,.32,2.95,.64,5.87,.97,8.87-1.28,.44-2.18,.16-2.53-1.59-.5-2.52-1.22-5-1.94-7.89Z"/>
    <path class="cls-1" d="M51.13,51.89v7.44h-2.37c-.25-2.46-.5-4.89-.77-7.44h3.14Z"/>
    <path class="cls-1" d="M3.06,28.01c.51,3.36,1.01,6.4,1.39,9.47,.05,.39-.57,.87-1.09,1.61-1.87-3.88-2.7-7.3-.3-11.07Z"/>
    <path class="cls-1" d="M46.31,51.35c.19,2.01,.37,3.89,.56,5.88h-2.88c-.22-2.05-.43-4.07-.69-6.47,1.13,.22,2.03,.39,3.01,.59Z"/>
    <path class="cls-1" d="M15.56,57.24h-2.13c-1.4-2.97-.91-6.33,.96-7.91,.36,2.45,.75,5.06,1.18,7.91Z"/>
    <path class="cls-1" d="M40.78,43.66h2.3c.61,1.78,1.23,3.61,1.85,5.41-2.76,.1-4.33-1.81-4.15-5.41Z"/>
    <path class="cls-1" d="M52.92,63.55c-3.65,.42-3.83,.31-3.85-2.29,2.25-1.08,2.89,.61,3.85,2.29Z"/>
    <path class="cls-1" d="M14.37,64.46c-3.57,.41-3.82,.25-3.78-2.36,2.15-.84,3,.5,3.78,2.36Z"/>
    <path class="cls-1" d="M17.58,61.55q-3.23,.32-3.66-2.33c2.14-.83,3.15,.21,3.66,2.33Z"/>
    <path class="cls-1" d="M47.18,59.09c.04,.93,.07,1.67,.11,2.39-2.77,.38-2.92,.25-2.84-2.38,.32-.03,.66-.08,1-.08,.49,0,.97,.04,1.73,.08Z"/>
  </g>
</svg>