<?xml version="1.0" encoding="UTF-8"?>
<svg id="Layer_2" data-name="Layer 2" xmlns="http://www.w3.org/2000/svg" viewBox="0 0 82.86 77.43">
  <defs>
    <style>
      .cls-1 {
        fill: #fff;
      }
    </style>
  </defs>
  <g id="Layer_1-2" data-name="Layer 1">
    <path d="M27.31,74.87c-.68,.89-1.22,2.2-1.74,2.19-1.94-.03-4.44,1.29-5.7-.91-1.09-1.9-1.81-4.22-1.95-6.4-.22-3.25-.56-6.33-2.2-9.24-.45-.8-.56-2.17-.19-3,2.12-4.81,.76-9.19-1.3-13.55-1.08-2.29-2.11-4.61-3.32-7.25-2.95-.32-6.52-.47-9.12-3.21-.73-.77-1.2-1.8-1.78-2.72l.4-.53c.56,.1,1.14,.14,1.68,.31,4.95,1.57,9.36,.81,13.21-2.83,3.16-3,7.1-3.86,11.13-2.9,7.19,1.72,14.39,1.63,21.64,.96,.21-.02,.43-.09,.64-.08,7.8,.65,11.32-4.39,14.03-10.53,.66-1.49,1.35-2.96,2.09-4.56-1.91-3.2-4.43-5.89-8.14-7.32-.44-.17-.72-.71-1.08-1.08,.55-.2,1.14-.64,1.64-.55,2.14,.39,4.25,.93,6.86,1.53-.95-.74-1.6-1.14-2.12-1.67-.3-.3-.38-.82-.56-1.24,.43-.11,.93-.41,1.28-.29,5.16,1.84,9.7,4.3,11.76,9.97,.66,1.82,2.31,3.33,3.66,4.84,.74,.83,1.86,1.31,2.73,2.04,2.72,2.28,2.65,4.51,.09,6.96-.66,.64-.86,1.85-1.07,2.83-.17,.79-.03,1.65-.03,2.51-2.36-.35-3.99-1.97-4.24-4.48-.18-1.88-.69-2.64-2.65-1.84-.76,.31-1.67,.22-2.32,.3-.86,3.59-1.46,7.18-2.59,10.59-1.33,4.03-3.77,7.45-6.77,10.5-1.01,1.02-1.67,2.42-2.36,3.71-.7,1.31-.99,2.89-1.89,4.02-1.33,1.68-1.14,3.28-.77,5.18,.74,3.76,1.18,7.58,1.83,11.36,.19,1.09,.84,2.11,.98,3.2,.22,1.7,.19,3.43,.26,5.15-1.82,.03-4.08,.76-5.34-.07-1.8-1.17-3.25-2.69-5.57-2.94-.42-.05-1.03-1.09-1.05-1.69-.07-2.4-.14-4.83,.15-7.21,.56-4.58,.29-9.05-.94-13.09-4.09,.2-7.89,.4-11.7,.58-.28,.01-.57-.01-.85-.04-4.07-.35-4.01-.33-5.52,3.6-1.26,3.29-1.72,6.61-.89,10.05,.21,.87,.66,1.69,1.03,2.52,.34,.78,.85,1.51,1.05,2.32,.72,2.94,.24,3.61-2.35,3.94Zm29.54-5.16c-.82-4.76-1.68-9.29-2.35-13.85-.17-1.15,.1-2.47,.52-3.57,.7-1.84,1.62-3.61,2.56-5.35,.67-1.24,1.33-2.56,2.31-3.52,3.82-3.74,6.54-8.15,7.71-13.32,.76-3.36,2.41-7.06-1.11-10.05-.07-.06-.02-.26-.08-1.05,.82,.41,1.32,.7,1.85,.93,1.25,.53,2.48,1.32,3.78,1.49,1.58,.2,3.23-.13,4.69-.22-.04-.22-.15-.77-.26-1.31,.56,.11,1.17,.11,1.67,.34,.92,.43,1.78,1,2.66,1.52,.23-.16,.46-.33,.7-.49-.34-.86-.47-1.93-1.06-2.52-1.15-1.15-2.71-1.88-3.83-3.05-1.82-1.9-3.55-2.98-6-.36,.04-1.01,.15-1.73,.57-2.14,.55-.55,1.33-.86,2.07-1.31-3.54-2.09-6.85-1.12-8.35,2.34-.43,.98-.82,1.98-1.31,2.92-2.28,4.44-4.8,8.76-10.2,9.87-2.28,.47-4.67,.47-7.02,.47-5.05,.02-10.11,0-15.16-.2-2.03-.08-4.02-.83-6.05-1.09-5.09-.65-9.49,1.89-11.36,6.47-1.28,3.14-1.18,6.43,.62,9.14,3.15,4.75,4.88,9.55,2.92,15.2-.29,.84-.66,2.01-.31,2.64,1.85,3.33,2.6,6.87,2.46,10.71h3.49c-.13-.91-.27-1.66-.35-2.42-.49-4.53-.16-8.74,3.43-12.24,2.42-2.37,3.52-5.47,3.29-8.96-.04-.56,.36-1.15,.56-1.72,.26,.06,.51,.12,.77,.18v4.93c3.18,1.07,11.18,1.17,13.87,.08,.55-.22,.84-1.07,1.25-1.64-8.11,.97-12.01,.8-13.03-1.21,.83,0,1.5,.02,2.16,0,2.63-.1,5.25-.22,7.88-.32,1.65-.06,2.93-.53,3.07-2.7,.56,.52,1,1.01,1.03,1.52,.15,2.84,.82,5.47,2.54,7.8,.54,.73,1.01,1.59,1.24,2.46,1.17,4.43,2.24,8.88,3.42,13.61h2.75Zm1.1,5.77c.22-3.94-.73-4.72-4.39-3.74q.21,4.19,4.39,3.74Zm-33.05-.03c.36-3.41-.87-4.24-4.91-3.31,.17,3.35,.95,3.87,4.91,3.31ZM12.21,32.11c-2.76,.33-5.47,.66-8.11,.98,1.72,1.58,4.6,2.21,7.55,1.59,.18-.82,.36-1.64,.56-2.56Zm39.72,34.71c-.73-3.19-1.41-6.19-2.09-9.18-.23,.03-.46,.06-.68,.09v9.09h2.78Zm-3.07,1.81c-.07,4.52,.06,4.69,3.03,4.04-.07-1.29-.15-2.6-.23-4.04h-2.8Zm-22.98-.86v-9.4c-2.31,3.19-1.97,6.26-1.68,9.4h1.68ZM63.19,4.68c-.16,.16-.31,.31-.47,.47,.86,1.12,1.84,2.16,2.56,3.36,.88,1.46,1.79,1.52,3.37,.21-1.92-1.42-3.69-2.74-5.46-4.05ZM28.28,73.1c-.28-3.67-.8-4.1-3.71-3.15,1.29,.97,1.08,3.45,3.71,3.15ZM71.9,9.3c.2-.19,.4-.39,.59-.58-1.55-1.58-3.09-3.17-4.64-4.75-.21,.21-.43,.42-.64,.63,2.04,1.09,1.91,4.34,4.68,4.71Z"/>
    <path class="cls-1" d="M56.85,69.71h-2.75c-1.18-4.72-2.26-9.18-3.42-13.61-.23-.87-.7-1.73-1.24-2.46-1.72-2.33-2.38-4.97-2.54-7.8-.03-.51-.47-1-1.03-1.52-.14,2.17-1.42,2.64-3.07,2.7-2.63,.09-5.25,.22-7.88,.32-.67,.03-1.33,0-2.16,0,1.02,2.01,4.91,2.18,13.03,1.21-.41,.56-.7,1.41-1.25,1.64-2.69,1.1-10.69,.99-13.87-.08v-4.93c-.26-.06-.51-.12-.77-.18-.2,.58-.6,1.16-.56,1.72,.23,3.49-.86,6.6-3.29,8.96-3.59,3.5-3.92,7.71-3.43,12.24,.08,.76,.22,1.51,.35,2.42h-3.49c.13-3.84-.62-7.39-2.46-10.71-.35-.63,.02-1.81,.31-2.64,1.95-5.65,.23-10.45-2.92-15.2-1.8-2.71-1.9-6-.62-9.14,1.87-4.58,6.27-7.12,11.36-6.47,2.03,.26,4.03,1,6.05,1.09,5.05,.21,10.11,.22,15.16,.2,2.34,0,4.74,0,7.02-.47,5.4-1.12,7.92-5.43,10.2-9.87,.49-.95,.88-1.94,1.31-2.92,1.5-3.45,4.82-4.43,8.35-2.34-.73,.45-1.52,.76-2.07,1.31-.42,.41-.53,1.13-.57,2.14,2.45-2.61,4.18-1.54,6,.36,1.12,1.17,2.69,1.9,3.83,3.05,.6,.6,.72,1.67,1.06,2.52-.23,.16-.46,.33-.7,.49-.88-.51-1.74-1.08-2.66-1.52-.5-.24-1.11-.24-1.67-.34,.11,.55,.22,1.09,.26,1.31-1.45,.09-3.1,.42-4.69,.22-1.3-.16-2.53-.95-3.78-1.49-.53-.23-1.03-.51-1.85-.93,.05,.8,0,.99,.08,1.05,3.52,2.99,1.87,6.68,1.11,10.05-1.17,5.17-3.89,9.58-7.71,13.32-.98,.96-1.64,2.29-2.31,3.52-.94,1.74-1.86,3.51-2.56,5.35-.42,1.11-.69,2.42-.52,3.57,.66,4.56,1.52,9.09,2.35,13.85ZM16.83,32.65c.74-.38,1.2-.51,1.51-.79,1.87-1.75,4.02-2.58,6.59-2.12,2,.36,4,.76,6.02,1.04,.44,.06,.95-.3,1.42-.47-.36-.33-.68-.89-1.09-.96-2.71-.47-5.42-.93-8.15-1.19-2.74-.26-5.78,1.78-6.29,4.49Zm37.47,14.57c.2,.04,.4,.08,.6,.11,.2-.18,.45-.33,.6-.55,1.5-2.11,2.98-4.23,4.48-6.34,1.03-1.45,2.13-2.84,3.08-4.34,.27-.42,.13-1.1,.18-1.66-.48,.28-1.08,.46-1.43,.86-1.71,1.99-3.41,3.99-4.99,6.08-.93,1.23-1.7,2.6-2.4,3.98-.26,.51-.09,1.24-.12,1.87Zm-3.58-17.45c.03,.18,.06,.36,.08,.54,.24,.12,.47,.33,.71,.34,4.47,.14,7.93-1.89,10.77-5.14,.27-.31,.11-.98,.17-1.79-2.14,1.59-3.76,3.15-5.67,4.12-1.86,.95-4.03,1.31-6.06,1.93Zm-27.87,25.43l.72,.17c2.87-2.48,4.15-5.6,3.58-9.41-.06-.39-.64-.71-.98-1.06-.18,.41-.58,.85-.52,1.23,.45,2.89-.49,5.29-2.34,7.45-.33,.39-.31,1.08-.46,1.63ZM68.1,15.45c.15-.85,.27-1.51,.39-2.17-.54,.19-1.24,.24-1.59,.61-.86,.9-1.18,2.02-.05,2.95,.42,.34,1.12,.34,1.69,.49-.15-.65-.3-1.3-.44-1.88Z"/>
    <path class="cls-1" d="M57.95,75.47q-4.18,.45-4.39-3.74c3.66-.98,4.61-.2,4.39,3.74Z"/>
    <path class="cls-1" d="M24.9,75.44c-3.96,.56-4.74,.04-4.91-3.31,4.04-.93,5.27-.11,4.91,3.31Z"/>
    <path class="cls-1" d="M12.21,32.11c-.2,.92-.38,1.75-.56,2.56-2.95,.62-5.83,0-7.55-1.59,2.65-.32,5.35-.64,8.11-.98Z"/>
    <path class="cls-1" d="M51.93,66.82h-2.78v-9.09c.23-.03,.46-.06,.68-.09,.68,2.99,1.36,5.99,2.09,9.18Z"/>
    <path class="cls-1" d="M48.86,68.63h2.8c.08,1.44,.16,2.75,.23,4.04-2.97,.65-3.1,.48-3.03-4.04Z"/>
    <path class="cls-1" d="M25.88,67.78h-1.68c-.29-3.14-.63-6.21,1.68-9.4v9.4Z"/>
    <path class="cls-1" d="M63.19,4.68c1.77,1.31,3.54,2.62,5.46,4.05-1.57,1.31-2.49,1.24-3.37-.21-.73-1.2-1.7-2.25-2.56-3.36,.16-.16,.31-.31,.47-.47Z"/>
    <path class="cls-1" d="M28.28,73.1c-2.63,.3-2.42-2.18-3.71-3.15,2.91-.95,3.43-.52,3.71,3.15Z"/>
    <path class="cls-1" d="M71.9,9.3c-2.78-.37-2.64-3.62-4.68-4.71,.21-.21,.43-.42,.64-.63,1.55,1.58,3.09,3.17,4.64,4.75-.2,.19-.4,.39-.59,.58Z"/>
    <path d="M16.83,32.65c.51-2.7,3.54-4.75,6.29-4.49,2.73,.26,5.45,.73,8.15,1.19,.41,.07,.73,.63,1.09,.96-.47,.17-.98,.53-1.42,.47-2.01-.28-4.01-.68-6.02-1.04-2.57-.46-4.72,.37-6.59,2.12-.31,.29-.77,.41-1.51,.79Z"/>
    <path d="M54.3,47.21c.03-.63-.14-1.35,.12-1.87,.7-1.38,1.47-2.75,2.4-3.98,1.58-2.09,3.28-4.09,4.99-6.08,.34-.4,.94-.58,1.43-.86-.05,.56,.09,1.24-.18,1.66-.95,1.49-2.05,2.89-3.08,4.34-1.5,2.11-2.98,4.23-4.48,6.34-.15,.22-.4,.37-.6,.55-.2-.04-.4-.08-.6-.11Z"/>
    <path d="M50.73,29.76c2.03-.62,4.2-.98,6.06-1.93,1.92-.98,3.54-2.53,5.67-4.12-.06,.81,.1,1.48-.17,1.79-2.84,3.25-6.3,5.28-10.77,5.14-.24,0-.47-.22-.71-.34-.03-.18-.06-.36-.08-.54Z"/>
    <path d="M22.86,55.19c.14-.55,.12-1.24,.46-1.63,1.85-2.17,2.79-4.56,2.34-7.45-.06-.37,.33-.82,.52-1.23,.34,.35,.93,.67,.98,1.06,.57,3.81-.71,6.94-3.58,9.41l-.72-.17Z"/>
    <path d="M68.1,15.45c.14,.58,.29,1.23,.44,1.88-.57-.15-1.28-.15-1.69-.49-1.13-.93-.81-2.05,.05-2.95,.35-.37,1.05-.42,1.59-.61-.12,.66-.24,1.33-.39,2.17Z"/>
  </g>
</svg>