<?xml version="1.0" encoding="UTF-8"?>
<svg id="Layer_2" data-name="Layer 2" xmlns="http://www.w3.org/2000/svg" viewBox="0 0 69.69 63.28">
  <defs>
    <style>
      .cls-1 {
        fill: #fff;
      }
    </style>
  </defs>
  <g id="Layer_1-2" data-name="Layer 1">
    <path d="M7.4,15.67c2.88,.86,4.15-1.13,5.64-2.97,.99-1.22,1.49-2.37,.96-3.88-.52-1.49,.04-1.75,1.45-1.47,.62,.12,1.49-.15,2-.56,2.08-1.65,4.05-3.44,3.98-6.39,.46-.04,.79-.15,.85-.07,1.49,2.09,3.38,1.33,5.44,1.1,3.23-.36,6.57-.46,9.78-.05,2.53,.32,4.85,1.05,6.73-1.39,1.78,1.68,1.27,6.96,5.92,3.11,.19,.75,.27,1.27,.45,1.76,.66,1.71,1.28,3.43,2.05,5.09,.6,1.29,1.5,1.74,3.09,1.21,2.04-.69,2.44-.21,2.42,1.97,0,.5,0,1,.02,1.5,.06,1.77,.53,2.6,2.72,2.25,7-1.11,8.7,2.84,8.79,8.34,.04,2.57-2.06,4.07-4.19,4.95-1.99,.82-2.57,2.11-2.97,4.07-2.1,10.22-7.41,18.05-17.27,22.3-.59,.25-1.19,.45-1.8,.66-.6,.2-1.2,.39-1.76,.57q-.54,5.52-6.21,5.52c-1.85,0-3.71,.02-5.56,0-2.38-.04-3.51-1.02-3.37-3.35,.11-1.79-.57-2.37-2.2-2.89-6.69-2.17-11.48-6.71-14.92-12.72-.64-1.11-1.28-1.74-2.61-1.7-.77,.02-1.58-.11-2.31-.36-1.67-.57-2.81-1.43-2.34-3.59,.42-1.93,.31-3.81-.96-5.67-2.33-3.43-1.28-6.37,2.66-7.68,1.87-.62,3.27-1.09,3.97-3.37,.64-2.07,.68-3.65-.52-5.34-.06-.09,.01-.27,.06-.92ZM36.05,5.34c.05,.71,.11,1.43,.18,2.36,3.4-.64,7.21,2.41,10.09-1.41-1-1.35-1.84-2.47-2.67-3.58-1.73,.95-3.41,2.01-5.2,2.79-.67,.29-1.61-.06-2.43-.12,.97-.59,1.94-1.18,3.07-1.87-3.35-1.54-9.99-1.37-12.6,.2,1.91,1.09,3.76,2.2,5.68,3.2,.31,.16,.91-.07,1.32-.26,.88-.4,1.72-.88,2.57-1.32ZM11.08,29.12c-.57,.89-1.2,.94-1.82,.07-.74-1.02-1.45-2.06-2.26-3.22-1,.31-2.06,.51-3.01,.95-2.46,1.14-3.09,2.76-1.62,4.96,1.53,2.27,1.68,4.53,1.09,7.06-.11,.45,.51,1.31,1.02,1.61,.64,.37,1.51,.52,2.27,.47,5.3-.33,10.64-.46,15.89-1.19,7.87-1.09,15.69-2.97,23.73,.2-.84-1.19-1.95-2.03-3.03-2.93-5.48-4.58-11.94-5.65-18.82-5.32-3.12,.15-6.27,.39-9.37,.11-1.59-.14-3.86-.23-4.09-2.78,3.56,1.92,7.34,1.58,11.19,1.31,5.19-.36,10.44-.55,15.37,1.56,2.45,1.04,4.74,2.47,6.99,3.66,.97-1.98,1.98-4.03,2.99-6.09-.22-.04-.36-.1-.5-.09-.5,.02-1,.03-1.49,.09-7.65,.82-14.48-1.31-20.8-5.55-1.48-.99-2.27-2.03-1.53-4.26h8.94c-4.48-5.32-10.11-8.23-15.66-10.26-1.34,2.31-2.48,4.3-3.63,6.29,7.82,2.48,9.5,3.54,9.19,6.09-3.53-3.1-7.63-4.38-11.91-4.57-.2,1.44-.08,2.86-.61,3.96-1.5,3.08-.87,5.59,1.47,7.87Zm-.27,14.04s-.07,.15-.02,.26c.14,.32,.3,.64,.49,.94,5.06,8.24,12.44,12.48,22.09,12.65,5.96,.1,11.56-1.25,16.53-4.72,1.24-.87,1.67-1.61,1.16-3.3-1.38-4.58-4.45-7.37-8.88-8.29-3.35-.69-6.93-.91-10.32-.56-7.03,.73-14.01,1.98-21.05,3.03ZM52.2,12.49c-1.18-2.26-2.25-4.29-3.56-6.8-1.76,2.47-3.65,4.69-5.04,7.19-2.71,4.85-6.68,7.67-12.13,8.42-2.13,.29-4.28,.42-6.42,.62-.06,.17-.12,.34-.17,.51,2.78,1.37,5.45,3.04,8.36,4.06,7.47,2.65,8.83,1.97,12.2-5.17,1.62-3.44,3.31-6.81,6.77-8.83Zm-8.92-2.6c-7.48-.83-14.68-1.81-20.32-6.68-1.61,1.84-3.03,3.47-4.55,5.2,.63,.29,1.2,.54,1.77,.81,4.7,2.24,9.3,4.66,12.87,8.55,1.17,1.28,2.1,1.07,3.32,.42,3.37-1.8,5.34-4.76,6.91-8.3Zm3.41,27.49c2.25,4.11,4.37,7.97,6.55,11.95,4.45-4.85,7.28-10.49,8.06-17.09-2.5,.25-4.68,.56-6.86,.66-3.58,.17-6.16,1.83-7.74,4.48Zm.6-3.96c2.32-.63,4.75-1.6,7.26-1.91,3.99-.5,7.87-1.08,11.33-3.33,1.83-1.19,2.54-2.73,2.16-4.89-.74-4.24-2.99-5.84-7.27-4.89-.5,.11-1.19,.99-1.17,1.5,.06,2.6-1.07,4.2-3.37,5.39-3.82,1.97-7.25,4.46-8.95,8.15Zm8.74-20.73c-2.84,.41-5.14,2.18-6.68,4.7-2.1,3.42-3.86,7.04-5.76,10.57,4.23,.35,5.43,.02,8.82-2.25,1-.67,2.06-1.27,3.12-1.86,2.25-1.26,2.98-3.07,2.21-5.5-.57-1.81-1.09-3.63-1.69-5.67ZM28.08,58.35c-.37,3.05-.15,3.31,2.72,3.31,2.13,0,4.27,.01,6.4,0,2.88-.02,3.3-.61,2.51-3.32h-11.63Z"/>
    <path class="cls-1" d="M10.8,43.16c7.04-1.04,14.02-2.3,21.05-3.03,3.4-.35,6.98-.13,10.32,.56,4.43,.92,7.49,3.71,8.88,8.29,.51,1.69,.08,2.43-1.16,3.3-4.98,3.48-10.57,4.83-16.53,4.72-9.65-.17-17.03-4.41-22.09-12.65-.18-.3-.35-.62-.49-.94-.05-.11,.02-.27,.02-.26Zm37.37,6.81l-.69-.16c-1.75,.78-3.43,1.91-5.26,2.25-3.53,.67-7.15,.87-10.73,1.31-.53,.07-1.02,.41-1.52,.62,.41,.27,.8,.72,1.24,.77,5.76,.65,11.21-.35,16.22-3.32,.4-.24,.5-.98,.74-1.49Z"/>
    <path class="cls-1" d="M11.09,29.11c-2.36-2.27-2.99-4.78-1.49-7.86,.53-1.1,.41-2.52,.61-3.96,4.28,.19,8.38,1.47,11.91,4.57,.31-2.54-1.37-3.61-9.19-6.09,1.15-1.99,2.3-3.97,3.63-6.29,5.55,2.04,11.18,4.94,15.66,10.26h-8.94c-.75,2.23,.05,3.26,1.53,4.26,6.32,4.24,13.15,6.37,20.8,5.55,.5-.05,1-.07,1.49-.09,.14,0,.28,.05,.5,.09-1.01,2.06-2.02,4.11-2.99,6.09-2.25-1.19-4.54-2.61-6.99-3.66-4.93-2.1-10.18-1.91-15.37-1.56-3.84,.26-7.63,.61-11.19-1.31h.02Z"/>
    <path class="cls-1" d="M11.07,29.11c.24,2.55,2.5,2.64,4.09,2.78,3.09,.27,6.24,.04,9.37-.11,6.88-.33,13.33,.74,18.82,5.32,1.07,.9,2.19,1.74,3.03,2.93-8.04-3.17-15.85-1.29-23.73-.2-5.25,.73-10.59,.85-15.89,1.19-.75,.05-1.63-.1-2.27-.47-.51-.29-1.13-1.15-1.02-1.61,.59-2.54,.43-4.79-1.09-7.06-1.48-2.2-.84-3.82,1.62-4.96,.95-.44,2.01-.64,3.01-.95,.82,1.16,1.53,2.2,2.26,3.22,.63,.87,1.25,.81,1.83-.08,0,0-.02,0-.02,0Zm18.1,7.13c-.05-.24-.1-.49-.15-.73-7.15,.27-14.16,3.02-21.4,1.88-.39-5.1-1.39-7.07-2.88-6.24,.42,1.69,1.08,3.3,1.18,4.94,.17,2.89,.23,3.38,3.11,3.12,6.35-.57,12.68-1.46,19.01-2.26,.4-.05,.75-.46,1.12-.7Z"/>
    <path class="cls-1" d="M52.2,12.49c-3.46,2.01-5.15,5.39-6.77,8.83-3.37,7.14-4.73,7.81-12.2,5.17-2.9-1.03-5.58-2.69-8.36-4.06,.06-.17,.12-.34,.17-.51,2.14-.2,4.29-.32,6.42-.62,5.45-.75,9.42-3.57,12.13-8.42,1.39-2.5,3.29-4.72,5.04-7.19,1.31,2.51,2.38,4.54,3.56,6.8Z"/>
    <path class="cls-1" d="M43.28,9.89c-1.57,3.54-3.54,6.5-6.91,8.3-1.22,.65-2.15,.86-3.32-.42-3.56-3.89-8.17-6.31-12.87-8.55-.57-.27-1.14-.53-1.77-.81,1.51-1.73,2.94-3.36,4.55-5.2,5.64,4.87,12.84,5.86,20.32,6.68Z"/>
    <path class="cls-1" d="M46.69,37.39c1.58-2.64,4.17-4.31,7.74-4.48,2.19-.1,4.37-.41,6.86-.66-.78,6.6-3.6,12.24-8.06,17.09-2.18-3.98-4.3-7.85-6.55-11.95Z"/>
    <path class="cls-1" d="M47.3,33.43c1.7-3.69,5.13-6.18,8.95-8.15,2.3-1.19,3.44-2.79,3.37-5.39-.01-.51,.68-1.39,1.17-1.5,4.28-.95,6.53,.65,7.27,4.89,.38,2.16-.33,3.7-2.16,4.89-3.46,2.25-7.35,2.83-11.33,3.33-2.51,.32-4.94,1.28-7.26,1.91Zm17.27-12.28c-.18,.57-.45,.94-.35,1.17,1.13,2.89-1.04,3.52-2.93,4.18-1.52,.54-3.14,.8-4.71,1.23-.45,.12-.87,.4-1.3,.61,.04,.2,.07,.39,.11,.59,.57,.07,1.2,.32,1.71,.17,2.48-.75,5.05-1.37,7.37-2.48,2.43-1.17,2.44-3.21,.11-5.47Z"/>
    <path class="cls-1" d="M56.04,12.7c.61,2.04,1.12,3.86,1.69,5.67,.76,2.42,.04,4.24-2.21,5.5-1.05,.59-2.11,1.19-3.12,1.86-3.39,2.27-4.59,2.59-8.82,2.25,1.9-3.53,3.67-7.16,5.76-10.57,1.55-2.52,3.84-4.29,6.68-4.7Z"/>
    <path class="cls-1" d="M28.08,58.35h11.63c.8,2.71,.38,3.3-2.51,3.32-2.13,.01-4.27,0-6.4,0-2.87,0-3.09-.27-2.72-3.31Z"/>
    <path class="cls-1" d="M36.06,5.34c-.86,.45-1.69,.93-2.57,1.33-.41,.18-1.01,.42-1.32,.26-1.91-1-3.77-2.11-5.68-3.2,2.61-1.57,9.26-1.74,12.6-.2-1.13,.69-2.1,1.28-3.07,1.87l.04-.05Z"/>
    <path class="cls-1" d="M36.02,5.39c.82,.06,1.77,.41,2.43,.12,1.8-.78,3.48-1.84,5.2-2.79,.83,1.11,1.66,2.23,2.67,3.58-2.88,3.82-6.69,.77-10.09,1.41-.07-.94-.12-1.65-.18-2.37,0,0-.04,.05-.04,.05Z"/>
    <path d="M48.18,49.96c-.24,.51-.34,1.25-.74,1.49-5.01,2.97-10.46,3.97-16.22,3.32-.44-.05-.83-.51-1.24-.77,.51-.21,1-.56,1.52-.62,3.58-.45,7.19-.65,10.73-1.31,1.83-.35,3.51-1.48,5.26-2.25l.69,.16Z"/>
    <path d="M29.16,36.24c-.37,.24-.73,.65-1.12,.7-6.33,.8-12.65,1.69-19.01,2.26-2.88,.26-2.94-.23-3.11-3.12-.1-1.64-.76-3.25-1.18-4.94,1.49-.83,2.48,1.14,2.88,6.24,7.24,1.13,14.24-1.61,21.4-1.88,.05,.24,.1,.49,.15,.73Z"/>
    <path d="M64.57,21.15c2.33,2.25,2.32,4.3-.11,5.47-2.32,1.11-4.88,1.74-7.37,2.48-.51,.15-1.14-.1-1.71-.17-.04-.2-.07-.39-.11-.59,.43-.21,.85-.48,1.3-.61,1.56-.43,3.18-.69,4.71-1.23,1.9-.67,4.07-1.29,2.93-4.18-.09-.23,.17-.61,.35-1.17Z"/>
  </g>
</svg>