<?xml version="1.0" encoding="UTF-8"?>
<svg id="Layer_2" data-name="Layer 2" xmlns="http://www.w3.org/2000/svg" viewBox="0 0 67.74 72.96">
  <defs>
    <style>
      .cls-1 {
        fill: #fff;
      }
    </style>
  </defs>
  <g id="Layer_1-2" data-name="Layer 1">
    <g>
      <path d="M42.15,64.98h4.16c1.1,1.21,2.01,2.22,2.93,3.22-.13,.17-.27,.35-.4,.52-1.14-.29-2.28-.58-3.46-.88-.25,.55-.5,1.11-.86,1.92-1.91-1.44-3.39-4.2-6.21-1.61,.99,.88,1.99,1.78,3.13,2.8q-.22,.84-3.78,.24c-.23,.52-.47,1.04-.79,1.77-.69-.59-1.21-.94-1.62-1.4-1.12-1.24-2.29-1.66-3.85-.67-.39,.25-1.17-.11-1.95-.6,4.1-.7,3.48-3.59,3.44-6.19-.02-1.06,0-2.13,0-3.27-3.28-.91-5.27-3.2-6.65-6-.7-1.42-1.53-1.93-3.11-1.87-3.2,.11-3.34,0-3.18-3.07,.11-2.2-.13-3.96-2.23-5.23-.91-.55-1.46-1.68-2.17-2.55-.16,.12-.32,.18-.34,.28-.21,.77-.4,1.54-.6,2.31-.61-.6-1.41-1.11-1.78-1.83-.77-1.51-1.32-3.13-2.09-5.04-.67,1.74-1.26,3.26-1.87,4.82-2.07-1.59-2.51-7.73-.63-9.14,.13,1.39,.26,2.68,.44,4.6,.74-1.19,1.09-2.02,1.67-2.63,.51-.54,1.27-.84,1.91-1.25,.34,2.35,.63,4.31,.91,6.27,.18,.04,.36,.08,.54,.12,1.48-4.61,4.9-6.6,10.03-7.4-.61,.89-.86,1.37-1.22,1.74-.16,.17-.55,.09-.82,.18-2.22,.7-4.88,1.56-5.3,3.83-.43,2.35,1.78,4.11,3.59,5.65,1.11-2.36,1.94-4.79,3.32-6.84,1.34-1.99,3.26-3.6,4.92-5.37,.31,.24,.62,.48,.94,.72-.33,.54-.54,1.24-1,1.6-2.91,2.26-4.81,5.16-6.02,9.04,1.89-1.65,3.49-3.05,5.09-4.45,1.47,.96,.78,1.5-.05,2.12-2.25,1.68-4.12,3.66-5.19,6.69,1.71-1.24,3.14-2.32,4.63-3.3,.3-.2,.85-.03,1.28-.04-.17,.45-.2,1.03-.52,1.31-1.79,1.57-3.64,3.07-5.46,4.6l.33,.59c1.71,0,3.45,.17,5.14-.03,4.22-.51,8.23-1.62,11.55-4.51,2.68-2.33,4.41-5.17,5.06-8.69,.15-.82-.03-2.24,1.84-1.54-1.59,10.72-8.82,15.04-18.82,16.45,1.42,2.91,2.8,5.5,6.05,6.12,2.02,.38,4.56-1.67,5.79-4.38-1.46,.11-2.87,.28-4.28,.28-.43,0-.86-.44-1.29-.67,.43-.3,.85-.85,1.3-.87,5.23-.21,10.14-1.44,14.5-4.44,3.24-2.23,5.72-5.14,7.34-8.72,.36-.79,.34-1.74,.58-3.06-1.48,.73-2.54,1.26-3.95,1.96v-4.17c-1.55,.84-2.81,1.52-4.52,2.45,.21-1.85,.37-3.21,.54-4.7-1.49,.54-2.82,1.03-4.73,1.73,.5-1.91,.83-3.16,1.23-4.67-1.55,.56-2.86,1.04-4.81,1.75,.62-1.94,1.02-3.17,1.49-4.64-.62,.15-1.15,.13-1.49,.37-5.08,3.69-11.91,.32-14.3-5.04-.49-1.1-.86-2.26-1.32-3.38-2.76-6.73-13.06-10.28-19.45-6.49,1.78,.12,3.34,.23,4.93,.34-2.35,1.26-5,2.07-6.74,3.8-1.74,1.73-2.58,4.37-3.91,6.79,.01-3.13,1.23-5.74,2.99-8.07-.62-.24-1.24-.48-1.86-.72,.36-.58,.61-1.28,1.09-1.74,7.35-7.14,21.5-3.12,25.03,7.13,1.02,2.98,2.75,5.23,5.61,6.66,3.18,1.6,7.24,.36,8.64-2.91,1.16-2.71,2.93-5.22,4.71-7.6,1.73-2.32,3.83-4.36,5.86-6.62-.64-.18-1.29-.37-2.39-.68,.45-1.07,.88-2.1,1.35-3.2-.61-.47-1.32-1.01-2.64-2.02,2.23-.5,3.87-.88,5.67-1.29-.51-.41-1-.81-1.5-1.2,1.44-1.76,4.78-1.27,8.28,1.21,.22-.54,.42-1.07,.63-1.59l.67-.27c.84,1.51,1.68,3.02,2.55,4.57,2.62-.5,2.82-.33,3.02,2.74,.18,2.65-.26,3.86-2.31,6.42,1.37,3.16,1.35,3.3-.75,3.57,.24,1.1,.55,2.19,.7,3.31,.21,1.63-.21,2.91-1.99,3.55-.49,.18-.94,1.06-1.03,1.68-.29,1.97-.12,4.04-.63,5.94-1.94,7.34-5.69,13.57-11.85,18.22-.74,.56-1.28,1.49-1.73,2.34-1.23,2.3-2.57,4.43-5.17,5.44-.35,.14-.75,.7-.77,1.07-.08,1.83-.04,3.67-.04,5.73Zm16.44-28.24c1.43-3.01,2.45-8.71,2.08-11.35-.05-.37-.22-.82-.49-1.06-2.53-2.26-2.79-4.3-.56-7.86,.27,.85,.59,1.35,.55,1.82-.09,.9-.58,1.8-.55,2.68,.07,1.69,1.15,2.3,2.79,2.11,1.68-.19,1.67-1.33,1.37-2.51-.26-1.02-.63-2.05-1.15-2.97-.81-1.43-.88-2.38,1.19-2.33-.31-.55-.56-.9-.7-1.29-1.18-3.34-1.17-3.33-4.24-1.6-.25,.14-.88,.13-.92,.04-.13-.35-.25-.92-.06-1.11,.81-.83,1.72-1.55,2.59-2.31-4.53-2.55-13.74,6.6-17.63,15.49,3.93,.55-.18,2.84,1,4.1,1.11-.43,2.31-.89,4.08-1.58-.39,1.82-.67,3.12-1,4.65,1.46-.55,2.73-1.02,4.47-1.68-.3,1.68-.51,2.87-.76,4.27,1.33-.69,2.51-1.3,4.01-2.09v4.22c1.14-.59,2.04-1.06,3.04-1.58,.32,.7,.54,1.18,.88,1.91ZM52.3,4.09c1.07,1.38,1.51,2.54-.19,3.7,1.19,.26,2.29,.47,3.14,.11,4.38-1.86,7.08-.85,8.87,3.45,.13,.32,.33,.6,.49,.9,.22,.03,.44,.05,.66,.08,.4-1.8,.79-3.6,1.36-6.18-3.94,2.14-4.12-.19-4.18-2.5-.89,.59-1.51,1-1.87,1.24-1.23-1.17-2.29-2.17-3.34-3.17-.15,.16-.3,.32-.45,.48,.29,.62,.57,1.23,1.02,2.2-1.9-.11-3.52-.2-5.52-.31Zm-11.73,54.6c-2.7-1.54-3.7,1.64-5.69,1.86-.19,2.55-.39,5.1-.59,7.75h2.67c.58-.87,.88-1.86,1.38-1.97,2.07-.48,2.44-1.77,2.26-3.62-.13-1.34-.03-2.69-.03-4.01Zm-.5-1.98c3.16,.29,5.15-1.1,5.97-4.19-2.24,1.1-5.19,.9-5.97,4.19Z"/>
      <path d="M53.16,40.91c-.32,.94-.39,1.69-.77,2.21-2.12,2.86-4.92,4.89-8.17,6.3-.4,.17-.99-.11-1.5-.19,.22-.38,.35-.98,.67-1.11,3.58-1.5,6.34-3.98,8.7-6.99,.06-.08,.26-.06,1.07-.22Z"/>
      <path d="M23.83,22.33c1.54,1.9,3.06,3.73,4.51,5.6,.24,.31,.17,.85,.24,1.29-.43-.06-.99,.03-1.28-.21-2.06-1.72-3.75-3.68-3.46-6.68Z"/>
      <path d="M3.98,22.86c.81-4.95,2.6-6.08,7.01-4.42-2.69,.93-6.29,.48-7.01,4.42Z"/>
      <path d="M6.46,34.17c-.67,1.25-1.34,2.49-2.25,4.18-1.32-2.33-.91-4.21-.81-6.23,1.05,.7,1.88,1.26,3.07,2.06Z"/>
      <path d="M5.39,29.31c-1.93-2.94-1.72-3.55,1.62-4.82-.58,1.73-1.03,3.08-1.62,4.82Z"/>
      <path d="M12.98,12.48c-.44,2.21-2.51,1.4-3.9,1.9,.4-2.16,2.32-1.73,3.9-1.9Z"/>
      <path d="M11.25,29.25c-1.36,.49-1.73,2.88-3.77,2.06-.13-.24-.26-.49-.4-.73,1.26-.7,2.53-1.39,3.79-2.09,.12,.25,.25,.5,.37,.75Z"/>
      <path class="cls-1" d="M58.6,36.74c-.34-.73-.56-1.21-.88-1.91-1,.52-1.9,.99-3.04,1.58v-4.22c-1.51,.78-2.69,1.4-4.01,2.09,.25-1.4,.46-2.59,.76-4.27-1.75,.66-3.01,1.13-4.47,1.68,.33-1.54,.61-2.84,1-4.65-1.77,.68-2.97,1.15-4.08,1.58-1.18-1.26,2.93-3.55-1-4.1,3.88-8.89,13.1-18.04,17.63-15.5-.87,.75-1.79,1.48-2.59,2.31-.19,.19-.06,.77,.06,1.11,.03,.09,.67,.1,.92-.04,3.07-1.73,3.06-1.74,4.24,1.6,.14,.39,.4,.74,.7,1.29-2.07-.06-2,.9-1.19,2.33,.52,.92,.89,1.94,1.15,2.97,.3,1.17,.31,2.32-1.37,2.51-1.63,.19-2.72-.43-2.79-2.11-.04-.88,.46-1.78,.55-2.68,.05-.47-.28-.97-.55-1.82-2.23,3.56-1.97,5.6,.56,7.86,.27,.24,.44,.68,.49,1.06,.37,2.65-.65,8.34-2.08,11.35Zm-7.94-9.19c.67,.07,1.4,.23,1.43,.14,.7-2.03,1.38-4.08,1.92-6.16,.14-.54-.17-1.19-.27-1.79l-.84,.03c-.74,2.54-1.47,5.09-2.25,7.77Zm-3.78-6.26c1.53,.87,1.62,.78,5.57-5.14-1.36-1.05-2.43-.08-5.57,5.14Zm9.5,8.85c.43,.06,.76,.1,1.09,.15,.15-1.44,.29-2.87,.44-4.31-.37,.16-1.01,.27-1.05,.49-.24,1.17-.32,2.36-.48,3.67Z"/>
      <path class="cls-1" d="M52.3,4.09c1.99,.11,3.61,.2,5.52,.31-.45-.97-.73-1.58-1.02-2.2,.15-.16,.3-.32,.45-.48,1.05,1,2.11,2,3.34,3.17,.36-.24,.98-.65,1.87-1.24,.06,2.31,.23,4.64,4.18,2.5-.57,2.58-.96,4.38-1.36,6.18-.22-.03-.44-.05-.66-.08-.17-.3-.36-.59-.49-.9-1.79-4.31-4.49-5.31-8.87-3.45-.86,.36-1.96,.16-3.14-.11,1.69-1.17,1.26-2.32,.19-3.7Z"/>
      <path class="cls-1" d="M40.56,58.69c0,1.32-.1,2.68,.03,4.01,.18,1.85-.19,3.13-2.26,3.62-.5,.12-.8,1.1-1.38,1.97h-2.67c.2-2.65,.4-5.2,.59-7.75,2-.22,2.99-3.4,5.69-1.86Z"/>
      <path class="cls-1" d="M40.06,56.71c.79-3.29,3.73-3.1,5.97-4.19-.82,3.09-2.82,4.49-5.97,4.19Z"/>
      <path d="M50.66,27.55c.78-2.69,1.51-5.23,2.25-7.77l.84-.03c.1,.6,.41,1.25,.27,1.79-.55,2.08-1.23,4.13-1.92,6.16-.03,.09-.76-.07-1.43-.14Z"/>
      <path d="M46.89,21.28c3.14-5.23,4.2-6.2,5.57-5.14-3.95,5.93-4.04,6.02-5.57,5.14Z"/>
      <path d="M56.39,30.13c.15-1.31,.24-2.5,.48-3.67,.05-.23,.69-.33,1.05-.49l-.44,4.31c-.33-.05-.66-.09-1.09-.15Z"/>
    </g>
  </g>
</svg>